<?xml version="1.0" standalone="no"?>
<!DOCTYPE svg PUBLIC "-//W3C//DTD SVG 1.1//EN" "http://www.w3.org/Graphics/SVG/1.1/DTD/svg11.dtd" >
<svg xmlns="http://www.w3.org/2000/svg" xmlns:xlink="http://www.w3.org/1999/xlink" version="1.1">
<metadata>
Created by FontForge 20170731 at Thu Oct 15 04:51:40 2020
 By Aleksey,,,
Copyright (c) 2020 by Letterhend Studio. All rights reserved.
</metadata>
<defs>
<font id="DukeCharming-Regular" horiz-adv-x="325" >
  <font-face 
    font-family="Duke Charming"
    font-weight="400"
    font-stretch="normal"
    units-per-em="1000"
    panose-1="0 0 0 0 0 0 0 0 0 0"
    ascent="750"
    descent="-250"
    x-height="500"
    cap-height="700"
    bbox="-656.688 -311 1331.27 901.053"
    underline-thickness="50"
    underline-position="-175"
    unicode-range="U+000D-FB01"
  />
<missing-glyph horiz-adv-x="500" 
 />
    <glyph glyph-name="fi" unicode="fi" horiz-adv-x="706" 
d="M361 699q-43 0 -74.5 -12t-52.5 -30.5t-30.5 -41.5t-8 -45t15.5 -41t40 -29h133q6 0 9 -5t3 -11.5t-3 -11.5t-9 -5h-133v-288q0 -70 15.5 -103t35.5 -42q19 -9 19 -19q0 -15 -19 -15h-276q-20 0 -20 15q0 10 19 19q17 8 31.5 33.5t18.5 78.5v321h-59q-6 0 -8.5 5
t-2.5 11.5t3 11.5t8 5h108q-41 11 -65.5 35t-24.5 56q0 24 21.5 48.5t60.5 44.5t94.5 33t123.5 13q92 0 150.5 -10.5t92 -26.5t46 -36t12.5 -38q0 -25 -13.5 -41.5t-34.5 -25.5t-44.5 -10t-44.5 5t-34.5 19.5t-13.5 33.5v34t-7.5 32t-26 23.5t-55.5 9.5zM420 445q0 15 15 15
q25 1 50 6.5t47 13t40.5 16.5t30.5 17q4 2 8.5 4t9.5 2q10 0 10 -10v-344q2 -63 17 -93t34 -38q19 -9 19 -19q-2 -15 -20 -15h-276q-19 0 -19 15q0 11 18 19t34 38.5t18 92.5v207q-1 16 -5 31.5t-16 23.5q-15 7 -15 18z" />
    <glyph glyph-name=".notdef" horiz-adv-x="500" 
 />
    <glyph glyph-name="uni0000" horiz-adv-x="0" 
 />
    <glyph glyph-name="uni0000" horiz-adv-x="0" 
 />
    <glyph glyph-name="uni000D" unicode="&#xd;" horiz-adv-x="250" 
 />
    <glyph glyph-name="space" unicode=" " horiz-adv-x="260" 
 />
    <glyph glyph-name="exclam" unicode="!" horiz-adv-x="248" 
d="M136 229q-2 -9 -12 -9q-11 0 -12 9l-86 386q-7 34 6.5 56.5t37.5 33.5t53.5 11t54 -11t38 -33.5t6.5 -56.5zM39 72q0 18 6.5 34t18 27.5t27 18.5t33.5 7t33.5 -7t27 -18.5t18 -27.5t6.5 -34t-6.5 -34t-18 -27.5t-27 -18.5t-33.5 -7t-33.5 7t-27 18.5t-18 27.5t-6.5 34z
" />
    <glyph glyph-name="quotedbl" unicode="&#x22;" horiz-adv-x="371" 
d="M40 628q-12 29 -4 49t25.5 30t39.5 10t39.5 -10t25 -30t-4.5 -50l-48 -118q-4 -9 -13 -9q-10 0 -14 9zM210 628q-12 29 -4 49t25.5 30t39.5 10t39.5 -10t25 -30t-4.5 -50l-47 -118q-4 -9 -14 -9t-14 9z" />
    <glyph glyph-name="numbersign" unicode="#" horiz-adv-x="645" 
d="M253 426l88 160q1 2 3.5 3.5t4.5 1.5h21q7 0 9.5 -4.5t-0.5 -9.5l-83 -151h199l88 160q3 5 9 5h21q6 0 9 -4.5t0 -9.5l-83 -151h53q10 0 10 -10v-15q0 -10 -10 -10h-72l-107 -195h58q10 0 10 -10v-15q0 -10 -10 -10h-77l-85 -156q-2 -2 -4.5 -3.5t-4.5 -1.5h-21
q-6 0 -9 5t0 10l80 146h-199l-85 -156q-3 -5 -9 -5h-21q-6 0 -8.5 5t-0.5 10l80 146h-54q-10 0 -10 10v15q0 10 10 10h73l107 195h-59q-10 0 -10 10v15q0 10 10 10h79zM170 196h199l107 195h-199z" />
    <glyph glyph-name="dollar" unicode="$" horiz-adv-x="633" 
d="M276 -14q-47 1 -90.5 12.5t-77 32t-53.5 49.5t-20 65q0 24 7.5 42t19.5 29t27.5 16.5t31.5 5.5t32 -5.5t29 -15t20.5 -23.5t7.5 -32q0 -14 -5.5 -26.5t-12.5 -23.5t-12.5 -21t-5.5 -20q0 -23 30 -36.5t72 -16.5v253q-39 18 -76 38.5t-66 45.5t-46.5 54.5t-17.5 65.5
q0 48 18.5 82t48 56t66.5 33.5t73 13.5v63q0 8 8 8h21q8 0 8 -8v-62q29 -2 51.5 -7t40.5 -10.5t32 -10t25 -4.5q14 0 22.5 12.5t9.5 26.5q1 8 12 10q12 0 14 -8l24 -249q0 -11 -16 -11t-18 11q-11 48 -32 83.5t-48 59.5t-57 38t-60 20v-174q46 -23 96.5 -47t92.5 -54t69 -67
t27 -85q0 -50 -24.5 -88t-64.5 -64t-91.5 -40t-104.5 -16v-41q0 -8 -8 -8h-21q-8 0 -8 8v40zM276 625q-44 1 -73 -14.5t-29 -41.5q0 -30 28.5 -54.5t73.5 -47.5v158zM313 18q30 1 60 7.5t54 19t38.5 31t14.5 43.5q0 20 -13.5 37.5t-37 34t-53.5 31.5t-63 31v-235z" />
    <glyph glyph-name="percent" unicode="%" horiz-adv-x="688" 
d="M207 424q-54 0 -90 21t-54 52t-18 67.5t18 67.5t54 52t91 21q54 0 90 -21t54 -52t18 -67.5t-18 -67.5t-54.5 -52t-90.5 -21zM676 700q13 0 5 -10l-616 -684q-5 -6 -13 -6h-25q-13 0 -5 11l616 683q4 6 14 6h24zM208 675q-25 0 -41 -16.5t-24.5 -41t-8.5 -53t8 -53
t24.5 -41t41.5 -16.5q24 0 40.5 16.5t24.5 41t8 53t-8 53t-24.5 41t-40.5 16.5zM522 -10q-54 0 -90 21t-54 52t-18 67.5t18 67.5t54.5 52t90.5 21t90 -21t54 -52t18 -67.5t-18 -67.5t-54.5 -52t-90.5 -21zM523 241q-25 0 -41 -16.5t-24.5 -41t-8.5 -53t8.5 -53t24.5 -41
t41 -16.5q24 0 40.5 16.5t24.5 41t8 53t-8 53t-24.5 41t-40.5 16.5z" />
    <glyph glyph-name="ampersand" unicode="&#x26;" horiz-adv-x="781" 
d="M585 -115q-7 35 -25 70.5t-44 72.5q-40 -20 -83 -31t-88 -11q-59 0 -114 14t-97.5 40.5t-68 64.5t-25.5 87q0 47 16 82t42 61.5t59.5 47t68.5 38.5q-23 52 -23 101q0 51 18 88t46.5 60.5t64 34.5t71.5 11q30 0 57.5 -7.5t48.5 -21t33.5 -33t12.5 -44.5q0 -33 -15.5 -55.5
t-40.5 -39.5t-56.5 -32t-64.5 -32q24 -38 54.5 -75t62.5 -73.5t64.5 -71.5t60.5 -68q10 23 10 51q0 21 -14.5 35.5t-32 28.5t-32 32t-14.5 46q0 20 7.5 35.5t19.5 26.5t27.5 17t31.5 6t31.5 -6t27.5 -19.5t19.5 -34t7.5 -49.5q0 -57 -17.5 -106t-47.5 -90q34 -41 55 -75.5
t21 -61.5q0 -26 -9.5 -48t-24 -40t-32.5 -31t-34 -20q-12 -5 -22 1.5t-13 23.5zM355 491q33 23 53.5 51t20.5 69q0 38 -16.5 55t-36.5 17q-22 0 -40.5 -17t-18.5 -45q0 -32 10.5 -64.5t27.5 -65.5zM495 57q-27 36 -58 73t-62 74.5t-60.5 75t-52.5 75.5q-18 -27 -28.5 -62.5
t-10.5 -82.5q0 -45 14.5 -77t39.5 -52.5t57 -30t67 -9.5q50 0 94 16z" />
    <glyph glyph-name="quotesingle" unicode="'" horiz-adv-x="200" 
d="M40 628q-12 29 -4 49t25.5 30t39.5 10t39.5 -10t25 -30t-4.5 -50l-48 -118q-4 -9 -13 -9q-10 0 -14 9z" />
    <glyph glyph-name="parenleft" unicode="(" horiz-adv-x="391" 
d="M349 692q3 -9 -5 -12q-49 -26 -81.5 -80t-49 -122t-17 -143t15 -143.5t47 -123.5t79.5 -83q6 -4 4 -12q-3 -7 -11 -5q-76 20 -133 57.5t-95.5 86t-57.5 105t-19 114.5t19.5 115.5t58 106.5t97 87t136.5 58q9 2 12 -6z" />
    <glyph glyph-name="parenright" unicode=")" horiz-adv-x="391" 
d="M28 692q3 8 12 6q78 -20 136 -58t97 -87t58.5 -106.5t19.5 -115.5t-19 -114.5t-57.5 -105t-95.5 -86t-133 -57.5q-8 -2 -11 5t4 12q47 28 79 83t47.5 123.5t15 143.5t-17 143t-49 122t-81.5 80q-8 3 -5 12z" />
    <glyph glyph-name="asterisk" unicode="*" horiz-adv-x="235" 
d="M148 676q0 -5 -3 -12.5t-7 -16.5t-9 -17.5t-8 -14.5q5 4 12 10.5t14.5 12.5t14 11t11.5 6q18 5 29.5 -3t14.5 -20t-3 -25t-24 -17q-9 -3 -28.5 1t-33.5 7q6 -3 14.5 -7t17 -8.5t15 -9t9.5 -7.5q11 -15 7.5 -28.5t-14 -21t-25 -6t-24.5 15.5q-4 5 -6.5 15t-4.5 21t-3 21
t-1 14q0 -4 -1.5 -13.5t-3 -20.5t-4.5 -21.5t-6 -14.5q-11 -15 -25 -16.5t-24.5 6t-14 21t7.5 28.5q5 7 23 16.5t31 15.5q-14 -4 -32.5 -7.5t-27.5 -0.5q-18 4 -24.5 17t-3.5 25t15 20t30 3q4 -1 10.5 -5.5t14 -10.5t15 -12.5t12.5 -10.5q-7 11 -16.5 30t-9.5 30q0 18 11 27
t23.5 9.5t23.5 -8.5t11 -28z" />
    <glyph glyph-name="plus" unicode="+" horiz-adv-x="347" 
d="M192 435v-145h155v-38h-155v-146h-37v146h-155v38h155v145h37z" />
    <glyph glyph-name="comma" unicode="," horiz-adv-x="222" 
d="M24 72q0 18 6.5 34t18 27.5t27 18.5t33.5 7t33.5 -7t27 -18.5t18 -27.5t6.5 -34v-4q0 -1 -0.5 -1.5t-0.5 -2.5q0 -9 -3 -16q0 -3 -2 -7l-3 -8q-9 -20 -24.5 -38.5t-35 -34t-41.5 -26.5t-43 -15q-6 -1 -8 5t4 9q18 7 33.5 21.5t26.5 31.5q-31 4 -52 28.5t-21 57.5z" />
    <glyph glyph-name="hyphen" unicode="-" horiz-adv-x="347" 
d="M26 286q0 10 13 10h269q13 0 13 -10v-17q0 -10 -13 -10h-269q-13 0 -13 10v17z" />
    <glyph glyph-name="period" unicode="." horiz-adv-x="218" 
d="M24 72q0 18 6.5 34t18 27.5t27 18.5t33.5 7t33.5 -7t27 -18.5t18 -27.5t6.5 -34t-6.5 -34t-18 -27.5t-27 -18.5t-33.5 -7t-33.5 7t-27 18.5t-18 27.5t-6.5 34z" />
    <glyph glyph-name="slash" unicode="/" horiz-adv-x="509" 
d="M490 700q6 0 8 -3.5t-2 -8.5l-443 -682q-5 -6 -11 -6h-22q-16 0 -7 12l443 682q4 6 12 6h22z" />
    <glyph glyph-name="zero" unicode="0" horiz-adv-x="679" 
d="M339 -9q-75 0 -131.5 30.5t-94 80.5t-56 114t-18.5 131t19 131t56.5 114t94 80.5t131.5 30.5t131 -30.5t93.5 -80.5t56 -114t18.5 -131t-19 -131t-56.5 -114t-93.5 -80.5t-131 -30.5zM339 22q29 0 51.5 28t37 73.5t22 104t7.5 119.5t-7.5 119.5t-22 104t-37 73.5
t-51.5 28t-51.5 -28t-37 -73.5t-22 -104t-7.5 -119.5t7.5 -119.5t22 -104t37 -73.5t51.5 -28z" />
    <glyph glyph-name="one" unicode="1" horiz-adv-x="338" 
d="M2 548q-5 13 7 20l238 139q16 11 16 -8v-529q1 -65 16.5 -96t34.5 -40t19 -19q0 -15 -20 -15h-282q-19 0 -19 15q0 10 19 19q20 9 35.5 42t15.5 103v320q0 27 -10 37t-24 10q-15 0 -28 -6q-13 -5 -18 8z" />
    <glyph glyph-name="two" unicode="2" horiz-adv-x="584" 
d="M529 28q-2 -13 -11.5 -20.5t-22.5 -7.5h-454q-15 0 -15 15v115q0 73 24.5 120.5t61.5 80.5t80 56.5t79.5 47.5t61 54t24.5 76q0 59 -33 83t-81 24q-42 0 -53.5 -15.5t-8 -38.5t13.5 -48.5t10 -44.5q0 -20 -6.5 -35t-17.5 -25.5t-25 -15.5t-29 -5q-31 0 -57 23t-26 71
q0 29 13 59.5t41.5 55.5t73.5 41t110 16q46 0 92 -13t82.5 -37t59 -58.5t22.5 -77.5q0 -59 -30 -100t-76 -71t-101.5 -53.5t-107 -47.5t-92.5 -52.5t-58 -69.5h240q31 0 64 8.5t63.5 23t55.5 34t40 41.5q7 10 19 10t10 -12z" />
    <glyph glyph-name="three" unicode="3" horiz-adv-x="627" 
d="M230 381q44 17 74.5 46t47 62t19.5 66.5t-8 60.5t-36 44t-64 17q-34 0 -40.5 -12t-1 -31.5t15.5 -45.5t10 -53q0 -23 -7.5 -41t-20 -30t-28.5 -18t-33 -6t-33.5 6.5t-29 19t-20.5 32t-8 45.5q0 42 20 73.5t52.5 52t73.5 31t84 10.5q42 0 81.5 -9.5t70 -28.5t49.5 -47
t19 -65q0 -34 -17 -61.5t-44 -49t-61 -37.5t-68 -27q39 -4 86 -16t88 -34.5t68.5 -55.5t27.5 -79q0 -53 -28.5 -93t-73.5 -67t-102 -41t-114 -14q-48 0 -93 10t-79.5 31t-55.5 52.5t-21 74.5q0 34 9 58t23.5 39t33 21.5t37.5 6.5q46 0 68.5 -25t22.5 -60q0 -17 -8.5 -34
t-18 -33t-18 -31t-8.5 -28q0 -16 23 -26.5t55 -10.5q56 0 90 23t49 58t12.5 77t-18 80t-43 66.5t-63.5 36.5l-29 -6q-11 -2 -19 5q-8 8 2 11z" />
    <glyph glyph-name="four" unicode="4" horiz-adv-x="631" 
d="M516 181v-2q0 -70 16 -103t36 -42t18 -21.5t-19 -12.5h-282q-17 0 -19.5 12t18.5 22q19 9 34 39.5t17 95.5v12h-318q-14 0 -16 5.5t9 14.5q35 29 74.5 66.5t77.5 80t73 87.5t61.5 89.5t42.5 87.5t16 81q0 16 14 18q15 2 37.5 0t42.5 -12t34.5 -30t14.5 -55q0 -37 -36 -85
t-94.5 -100.5t-133.5 -105t-152 -98.5h253v107q0 20 15 32l141 117q6 6 16 6q9 0 9 -9v-253h80q15 0 15 -16v-13q0 -15 -15 -15h-80z" />
    <glyph glyph-name="five" unicode="5" horiz-adv-x="577" 
d="M30 166q0 34 9 59.5t23.5 42t33 24.5t36.5 8q33 0 59 -23t26 -66q0 -25 -14.5 -39t-32.5 -25t-32.5 -23t-14.5 -33q0 -28 23.5 -46.5t74.5 -18.5q45 0 75.5 28.5t46.5 71.5t16 93t-16 93t-49 71.5t-83 28.5q-26 0 -56 -8.5t-62 -31.5h-35l21 276q14 35 42.5 48t63.5 13
q24 0 50.5 -4t52.5 -9t50.5 -9t45.5 -4q32 0 51 13q14 11 21 11t12 -13q12 -33 10 -61t-13.5 -48t-29 -31.5t-37.5 -11.5q-29 0 -59 6.5t-59 15t-56.5 15t-52.5 6.5q-16 0 -30 -3.5t-27 -11.5l-16 -146q33 25 72 37.5t76 12.5q70 0 124.5 -21.5t91.5 -57t56 -80.5t19 -91
q0 -45 -18.5 -87t-56 -75t-96 -53t-137.5 -20q-40 0 -76 12t-63.5 35t-43.5 55.5t-16 74.5z" />
    <glyph glyph-name="six" unicode="6" horiz-adv-x="664" 
d="M436 696q2 -4 1.5 -8.5t-5.5 -7.5q-69 -48 -116.5 -121t-73.5 -154q18 15 41.5 24t54.5 9q71 0 125 -19t90 -50.5t54 -71.5t18 -82t-18 -81.5t-54 -70.5t-90.5 -50t-127.5 -19q-71 0 -126.5 19.5t-93 53t-57 79.5t-19.5 99q0 55 22.5 115.5t69.5 120.5t118.5 116.5
t170.5 104.5q11 5 16 -5v-1zM335 32q37 0 61 27t36 67.5t11.5 87.5t-12.5 87.5t-35.5 67.5t-57.5 27q-30 0 -51.5 -10t-36 -28t-23 -41.5t-12.5 -50.5q-3 -48 2.5 -91t20.5 -74.5t39 -50t58 -18.5z" />
    <glyph glyph-name="seven" unicode="7" horiz-adv-x="544" 
d="M500 700q14 0 14 -14l-8 -116q-62 -56 -99 -109.5t-57 -111t-26.5 -122t-7.5 -143.5q-1 -44 -27 -70t-71 -25q-45 0 -70 26.5t-20 68.5q11 86 40 150t73 119t100 106t121 111h-268q-24 0 -44.5 -7.5t-37 -19t-29 -25.5t-19.5 -26q-8 -13 -21 -13q-14 0 -12 14l22 174
q2 15 12 24t25 9h410z" />
    <glyph glyph-name="eight" unicode="8" horiz-adv-x="642" 
d="M20 177q0 36 19 67.5t50 58t71 48t81 38.5q-26 21 -49.5 42t-41 43.5t-28 46.5t-10.5 50q0 44 32 75t79.5 47t103.5 16.5t103.5 -15.5t79.5 -48.5t32 -83.5q0 -21 -12 -40t-30.5 -35.5t-42 -30t-46.5 -24.5q38 -25 75.5 -52.5t67.5 -58.5t48.5 -66.5t18.5 -76.5
q0 -46 -26 -81t-68 -58t-96 -35t-110.5 -12t-110.5 11.5t-96 34.5t-68 58t-26 81zM460 130q0 34 -15.5 64t-40.5 58t-57 53.5t-65 51.5q-24 -20 -39 -45t-23 -50t-11 -47.5t-3 -37.5q0 -51 19 -84.5t47 -50t61 -17.5t61 10.5t47 36t19 58.5zM234 599q0 -18 11 -36t30 -35
t44 -35t54 -36q20 16 33 38t13 60q0 40 -13.5 66.5t-34.5 40.5t-44.5 16t-44.5 -6.5t-34.5 -27t-13.5 -45.5z" />
    <glyph glyph-name="nine" unicode="9" horiz-adv-x="664" 
d="M229 1q-3 6 3 11q36 24 66 56t54.5 69.5t43 78.5t30.5 83q-19 -17 -43.5 -26.5t-56.5 -9.5q-71 0 -125 19t-90 50.5t-54 71t-18 81.5t18 81.5t54 70.5t90.5 50t127.5 19q71 0 126.5 -19.5t93 -53t57 -79.5t19.5 -99q0 -56 -22.5 -116.5t-69.5 -120.5t-119.5 -116.5
t-172.5 -104.5q-7 -3 -12 4zM450 435q3 48 -3 91t-21 74.5t-39.5 50t-57.5 18.5q-37 0 -61 -27t-36 -67.5t-11.5 -88t12.5 -88t35 -67.5t58 -27q30 0 52 10t37 28t23.5 42t11.5 51z" />
    <glyph glyph-name="colon" unicode=":" horiz-adv-x="219" 
d="M24 72q0 18 6.5 34t18 27.5t27 18.5t33.5 7t33.5 -7t27 -18.5t18 -27.5t6.5 -34t-6.5 -34t-18 -27.5t-27 -18.5t-33.5 -7t-33.5 7t-27 18.5t-18 27.5t-6.5 34zM24 417q0 18 6.5 34t18 27.5t27 18.5t33.5 7t33.5 -7t27 -18.5t18 -27.5t6.5 -34t-6.5 -34t-18 -27.5
t-27 -18.5t-33.5 -7t-33.5 7t-27 18.5t-18 27.5t-6.5 34z" />
    <glyph glyph-name="semicolon" unicode=";" horiz-adv-x="219" 
d="M24 411q0 18 6.5 34t18 27.5t27 18.5t33.5 7t33.5 -7t27 -18.5t18 -27.5t6.5 -34t-6.5 -34t-18 -27.5t-27 -18.5t-33.5 -7t-33.5 7t-27 18.5t-18 27.5t-6.5 34zM33 -76q-1 5 4 9q19 7 34 21t26 31q-31 5 -52 29.5t-21 57.5q0 18 6.5 34t18 27.5t27 18.5t33.5 7t33.5 -7
t27 -18.5t18 -27.5t6.5 -34q0 -23 -11 -43q-9 -19 -24.5 -37t-34.5 -33t-40.5 -25.5t-42.5 -14.5q-6 -2 -8 5z" />
    <glyph glyph-name="less" unicode="&#x3c;" horiz-adv-x="306" 
d="M47 216q-7 5 -7 13v80q0 8 7 13l214 138q7 3 7 -4v-18q0 -6 -6 -14l-163 -149q-6 -6 0 -12l163 -149q6 -8 6 -14v-18q0 -8 -7 -4z" />
    <glyph glyph-name="equal" unicode="=" horiz-adv-x="353" 
d="M26 322q0 12 12 12h277q13 0 13 -12v-9q0 -13 -13 -13h-277q-12 0 -12 13v9zM26 233q0 12 12 12h277q13 0 13 -12v-9q0 -13 -13 -13h-277q-12 0 -12 13v9z" />
    <glyph glyph-name="greater" unicode="&#x3e;" horiz-adv-x="306" 
d="M268 229q0 -8 -7 -13l-214 -138q-7 -4 -7 4v18q0 8 6 14l163 149q6 6 0 11l-163 150q-6 6 -6 14v18q0 7 7 4l214 -138q7 -5 7 -13v-80z" />
    <glyph glyph-name="question" unicode="?" horiz-adv-x="519" 
d="M225 206q0 -11 -11 -11t-11 11v17q0 53 8.5 89t21 62.5t27 46t27 38.5t21 41t8.5 53q0 36 -8.5 60.5t-22.5 39.5t-33.5 21t-40.5 6q-26 0 -40 -14.5t-14 -30.5q0 -12 5.5 -26t12 -29t12 -30.5t5.5 -31.5q0 -27 -12 -44t-30 -24.5t-39 -5.5t-39 13.5t-30 33t-12 52.5
q0 43 19.5 75t51 53t72 31.5t82.5 10.5q45 0 88 -11t77 -32.5t55 -53t21 -73.5q0 -44 -20 -76.5t-50 -58.5t-65.5 -48t-65.5 -44.5t-50 -49t-20 -60.5zM136 72q0 18 6.5 34t18 27.5t27 18.5t33.5 7t33.5 -7t27 -18.5t18 -27.5t6.5 -34t-6.5 -34t-18 -27.5t-27 -18.5
t-33.5 -7t-33.5 7t-27 18.5t-18 27.5t-6.5 34z" />
    <glyph glyph-name="at" unicode="@" horiz-adv-x="805" 
d="M578 464q0 -8 10 -11.5t23 -3.5q20 0 30 5q8 3 12.5 -3.5t-0.5 -12.5l-24 -28q-21 -24 -45.5 -54.5t-46.5 -61.5t-36.5 -60.5t-14.5 -51.5q0 -15 7.5 -27t34.5 -12q40 0 77.5 24.5t66.5 63.5t47 88t18 97q0 39 -13.5 74.5t-44 62.5t-79.5 43t-119 16q-101 0 -179.5 -32.5
t-133 -84t-83 -115.5t-28.5 -126q0 -47 17.5 -89.5t53 -75t90.5 -52t130 -19.5q30 0 62 3t63.5 10.5t60.5 19t52 29.5q8 6 13 -1l8 -9q7 -9 -1 -15q-26 -19 -57.5 -32.5t-65.5 -22t-68.5 -12.5t-67.5 -4q-84 0 -145 22t-101 59.5t-59.5 86t-19.5 102.5q0 69 31 139t90 126.5
t144.5 92t194.5 35.5q79 0 134.5 -19t90 -51t50 -74t15.5 -87q0 -55 -20.5 -110t-54 -99.5t-77.5 -72.5t-92 -28q-21 0 -41 7t-35.5 19t-24.5 29t-9 38v5q-19 -17 -40.5 -32.5t-44 -26.5t-44.5 -17.5t-41 -6.5q-34 0 -56 21.5t-22 73.5q0 30 12 66.5t33.5 73.5t51 71.5
t65 61.5t75.5 43.5t82 16.5q48 0 68.5 -25t20.5 -58v-2zM437 269q17 34 42 69t50 65q20 28 20 55q0 18 -11 31t-34 13q-22 0 -49.5 -12.5t-56 -34.5t-55.5 -50.5t-48 -60.5t-34 -65.5t-13 -64.5q0 -26 8.5 -36t22.5 -10q18 0 40 10.5t44.5 25.5t42 32.5t31.5 32.5z" />
    <glyph glyph-name="A" unicode="A" horiz-adv-x="780" 
d="M240 690q0 15 19 15h135q26 0 45 -11.5t26 -30.5l175 -484q16 -39 32 -65.5t31.5 -43.5t30 -25.5t26.5 -12.5q19 -4 19 -17q0 -15 -19 -15h-322q-19 0 -19 15q0 10 18 19q10 5 18.5 14.5t13 24.5t5 34.5t-6.5 44.5l-19 53l-257 1l-14 -44q-7 -21 -1 -41.5t18.5 -37
t28.5 -29.5t30 -19q18 -9 18 -20q0 -15 -19 -15h-232q-19 0 -19 15q0 13 19 20q15 6 33 18.5t34.5 30t30.5 38t21 41.5l155 470q-7 13 -15 23.5t-20 15.5q-19 7 -19 18zM201 236l236 -1l-123 346z" />
    <glyph glyph-name="B" unicode="B" horiz-adv-x="684" 
d="M5 685q0 15 20 15h270q66 0 115 -9.5t81.5 -26t48 -38.5t15.5 -47q0 -39 -39 -80t-120 -74q55 -4 101.5 -21.5t80 -44.5t52 -61.5t18.5 -72.5t-20.5 -78t-64.5 -72.5t-114 -53.5t-170 -21h-254q-20 0 -20 15q0 10 19 19q20 9 35.5 42t15.5 103v355q-2 63 -17.5 93
t-33.5 39q-19 9 -19 19zM256 384v-354h24q60 0 99 29.5t57.5 72.5t17 92.5t-22 89.5t-58.5 62.5t-93 12.5zM256 415q38 9 64.5 31t39.5 49.5t13.5 57.5t-12.5 55t-39 42t-66 19v-254z" />
    <glyph glyph-name="C" unicode="C" horiz-adv-x="691" 
d="M649 128q-14 -28 -38.5 -53t-55.5 -43.5t-66 -29.5t-69 -11q-95 0 -166.5 31t-119 81t-71 114.5t-23.5 131.5t23.5 131.5t71 115t119 81.5t166.5 31q51 0 93 -15.5t71.5 -41.5t45.5 -60t16 -71q0 -19 -5.5 -37t-17.5 -32t-30.5 -22.5t-44.5 -8.5q-36 0 -56 21.5t-20 53.5
q0 20 3.5 41t6.5 41t3.5 37t-5.5 30t-20 20.5t-40 7.5q-45 0 -80 -25t-59 -65.5t-37 -93t-13 -107.5q0 -58 15 -114t46 -100t79 -71t115 -27q24 0 47 6t42.5 16.5t34 24.5t22.5 30q5 10 13 1q9 -9 4 -19z" />
    <glyph glyph-name="D" unicode="D" horiz-adv-x="704" 
d="M5 685q0 15 20 15h262q94 0 165 -30t118.5 -79.5t71 -112t23.5 -128.5t-23.5 -128.5t-71 -112t-118.5 -79.5t-166 -30h-261q-20 0 -20 15q0 10 19 19q18 8 33.5 38.5t17.5 92.5v369q-2 63 -17.5 93t-33.5 39q-19 9 -19 19zM256 670v-640h31q48 0 84.5 27.5t60.5 72.5
t36 102.5t12 117.5t-12 117.5t-36 102.5t-60.5 72.5t-84.5 27.5h-31z" />
    <glyph glyph-name="E" unicode="E" horiz-adv-x="571" 
d="M538 14q-3 -14 -20 -14h-493q-20 0 -20 15q0 10 19 19q20 9 35.5 42t15.5 103v342q0 35 -4.5 60.5t-11.5 42.5t-16 27t-19 15q-19 9 -19 19q0 15 20 15h468q17 0 19 -14l22 -158q1 -10 -13 -14q-15 -2 -18 10q-5 15 -19.5 38.5t-37.5 46.5t-55 39.5t-72 16.5h-63v-297h54
q24 0 46.5 5.5t40 18t29 32.5t13.5 49q0 11 15 11q7 0 11.5 -3t3.5 -8q-6 -123 0 -244q1 -5 -3.5 -8.5t-11.5 -3.5q-15 0 -15 12q-2 29 -13.5 49t-29 32t-40 17.5t-46.5 5.5h-54v-298h64q42 0 78 16.5t64.5 41t48.5 52.5t29 51q4 11 18 9q15 0 13 -12z" />
    <glyph glyph-name="F" unicode="F" horiz-adv-x="551" 
d="M5 685q0 15 20 15h480q17 0 19 -14l22 -158q1 -5 -3 -9t-10 -5q-15 -3 -18 8q-5 15 -19.5 39t-38 47.5t-55.5 40t-71 16.5h-75v-326h43q24 0 46.5 5.5t40 17.5t29 32t13.5 49q2 12 15 12q7 0 11.5 -3.5t3.5 -8.5q-3 -58 -4 -121.5t4 -122.5q1 -5 -3.5 -8t-10.5 -3h-1
q-13 0 -15 11q-4 55 -39 79t-81 26h-52v-125q0 -70 15.5 -103t35.5 -42q19 -9 19 -19q0 -15 -20 -15h-281q-20 0 -20 15q0 10 19 19q20 9 35.5 42t15.5 103v355q-2 63 -17.5 93t-33.5 39q-19 9 -19 19z" />
    <glyph glyph-name="G" unicode="G" horiz-adv-x="737" 
d="M662 -17q0 -5 -3 -6.5t-7 -1t-7.5 2.5t-4.5 5q-8 21 -21.5 31t-29.5 12t-32.5 -1.5t-29.5 -7.5q-26 -12 -53.5 -19t-53.5 -7q-95 0 -166 31t-118.5 81t-71 114.5t-23.5 131.5t23.5 131.5t71 114.5t119 81t166.5 31q51 0 93 -15.5t71.5 -41.5t45.5 -59.5t16 -70.5
q0 -19 -5.5 -37t-17.5 -32t-30.5 -22.5t-44.5 -8.5q-36 0 -56 21.5t-20 53.5q0 30 6.5 61.5t6.5 57t-13 42t-53 16.5q-44 0 -79 -25t-59 -65.5t-37 -93t-13 -107.5q0 -58 15 -114t46 -100.5t79 -71.5t115 -27h15v122q0 70 -15.5 103t-35.5 42q-19 7 -19 19q0 15 19 15h261
q20 0 20 -15q0 -12 -19 -19q-20 -9 -35.5 -42t-15.5 -103v-207v0z" />
    <glyph glyph-name="H" unicode="H" horiz-adv-x="746" 
d="M5 15q0 10 19 19q20 9 35.5 42t15.5 103v342q0 70 -15.5 103t-35.5 42q-19 9 -19 19q0 15 20 15h281q20 0 20 -15q0 -10 -19 -19t-34 -39t-17 -93v-166h234v166q-2 63 -17.5 93t-33.5 39q-19 9 -19 19q0 15 19 15h282q20 0 20 -15q0 -10 -19 -19t-34 -39t-17 -93v-355
q0 -70 15.5 -103t35.5 -42q19 -9 19 -19q0 -15 -20 -15h-282q-19 0 -19 15q0 10 19 19q20 9 35.5 42t15.5 103v154h-234v-154q0 -70 15.5 -103t35.5 -42q19 -9 19 -19q0 -15 -20 -15h-281q-20 0 -20 15z" />
    <glyph glyph-name="I" unicode="I" horiz-adv-x="332" 
d="M5 15q0 10 19 19q18 8 33.5 38.5t17.5 92.5v369q-2 63 -17.5 93t-33.5 39q-19 9 -19 19q0 15 20 15h281q20 0 20 -15q0 -10 -19 -19q-20 -9 -35.5 -42t-15.5 -103v-342q0 -70 15.5 -103t35.5 -42q19 -9 19 -19q0 -15 -20 -15h-281q-20 0 -20 15z" />
    <glyph glyph-name="J" unicode="J" horiz-adv-x="552" 
d="M226 685q0 15 19 15h282q20 0 20 -15q0 -10 -19 -19t-34 -39t-17 -93v-332q0 -67 -28.5 -109.5t-70.5 -66.5t-88.5 -32.5t-82.5 -8.5q-55 0 -93 18.5t-59.5 47t-27.5 61t3 61t32 47t59 18.5q33 0 50.5 -17t20 -39t-8.5 -42.5t-33 -27.5q-9 -3 -12 -17.5t3 -30.5t21.5 -29
t44.5 -13q25 0 42 8t27.5 29t15 56.5t4.5 89.5v329q-2 63 -17.5 93t-33.5 39q-19 9 -19 19z" />
    <glyph glyph-name="K" unicode="K" horiz-adv-x="705" 
d="M5 685q0 15 20 15h281q20 0 20 -15q0 -10 -19 -19t-34 -39t-17 -93v-170l173 179q17 17 18.5 36t-5.5 35.5t-20.5 30t-26.5 19.5q-18 10 -18 21q0 15 20 15h236q19 0 19 -15q0 -12 -18 -21q-18 -8 -43 -25t-50 -35.5t-45 -36t-28 -25.5l-137 -141q53 10 92 1.5t68 -30.5
t49.5 -53t36 -66t27.5 -71t24 -66.5t25.5 -52.5t32.5 -30q19 -7 19 -18q0 -15 -20 -15h-153q-48 0 -81.5 22.5t-39.5 58.5q-6 39 -15 83.5t-23.5 83.5t-37 66.5t-55.5 32.5l-24 -25v-157q2 -63 17 -93t34 -38q19 -9 19 -19q0 -15 -20 -15h-281q-20 0 -20 15q0 10 19 19
q18 8 33.5 38.5t17.5 92.5v356q0 70 -15.5 103t-35.5 42q-19 9 -19 19z" />
    <glyph glyph-name="L" unicode="L" horiz-adv-x="563" 
d="M537 14q-2 -14 -19 -14h-493q-20 0 -20 15q0 10 19 19q20 9 35.5 42t15.5 103v342q0 35 -4.5 60.5t-11.5 42.5t-16 27t-19 15q-19 9 -19 19q0 15 20 15h282q19 0 19 -15q0 -10 -19 -19q-20 -9 -35.5 -42t-15.5 -103v-486h64q42 0 78 22.5t63.5 54.5t45.5 67.5t26 61.5
q3 10 17 8t12 -13z" />
    <glyph glyph-name="M" unicode="M" horiz-adv-x="912" 
d="M419 57q-8 0 -14.5 3.5t-8.5 9.5l-239 519l-24 -394q-2 -30 6 -56.5t21.5 -47.5t29 -35.5t29.5 -20.5q19 -10 18 -20q0 -15 -19 -15h-195q-20 0 -20 15q0 13 19 19q30 13 51 57t25 105l19 325q0 35 -5.5 60.5t-15 42.5t-21.5 27t-25 15q-24 8 -24 19q0 15 25 15h226
q8 0 14.5 -3.5t8.5 -9.5l176 -403l138 416h236q26 0 26 -15q0 -10 -25 -19q-24 -9 -38.5 -40t-10.5 -96l26 -381q4 -32 11.5 -52t15.5 -33t17 -19.5t18 -10.5q19 -9 19 -19q0 -15 -20 -15h-281q-18 0 -20 12.5t19 21.5q16 8 28 33t13 78l-29 462l-177 -537q-3 -13 -22 -13
h-1z" />
    <glyph glyph-name="N" unicode="N" horiz-adv-x="749" 
d="M652 13q0 -13 -17 -13q-19 0 -27 11l-475 552v-368q0 -30 8.5 -56.5t21 -47.5t27.5 -35.5t29 -20.5q19 -10 18 -20q0 -15 -19 -15h-195q-20 0 -20 15q0 13 19 19q30 13 53 57t23 105v325q0 35 -5.5 60.5t-15 42.5t-21.5 27t-25 15q-24 8 -24 19q0 15 25 15h214l371 -420
v225q0 30 -8.5 56.5t-21 47.5t-28 35.5t-28.5 20.5q-18 7 -18 20q0 15 19 15h194q20 0 20 -15q0 -12 -19 -20q-15 -6 -28.5 -20.5t-24 -36t-16.5 -48t-6 -56.5v-491z" />
    <glyph glyph-name="O" unicode="O" horiz-adv-x="785" 
d="M392 -12q-88 0 -153.5 31.5t-109.5 82.5t-66 116t-22 133t22 133.5t66 116.5t110 82.5t154 31.5t153.5 -31.5t109.5 -82.5t66 -116.5t22 -133.5t-22 -133.5t-66 -116.5t-110 -82t-154 -31zM393 23q42 0 74 28t53 74.5t31.5 105t10.5 120t-10.5 120.5t-32 105.5t-53 74.5
t-74.5 28q-42 0 -74 -28t-53 -74.5t-31.5 -105.5t-10.5 -120.5t10.5 -120t32 -105t53 -74.5t74.5 -28z" />
    <glyph glyph-name="P" unicode="P" horiz-adv-x="639" 
d="M5 685q0 15 20 15h291q94 0 151.5 -14.5t89 -37.5t42 -53t10.5 -60q0 -41 -31 -82t-81.5 -77t-113.5 -64t-127 -43v-104q2 -63 17 -93t34 -38q19 -9 19 -19q0 -15 -20 -15h-281q-20 0 -20 15q0 10 19 19q20 9 35.5 42t15.5 103v355q-2 63 -17.5 93t-33.5 39q-19 9 -19 19
zM256 665v-358q34 15 63 38t50.5 51.5t33.5 59.5t12 63q0 30 -8.5 56.5t-26 46.5t-43 31.5t-58.5 11.5h-23z" />
    <glyph glyph-name="Q" unicode="Q" horiz-adv-x="787" 
d="M393 -12q-88 0 -153.5 31.5t-109.5 82.5t-66 116t-22 133t22 133.5t66 116.5t110 82.5t154 31.5t153.5 -31.5t109.5 -82.5t66 -116.5t22 -133.5q0 -59 -16.5 -116t-49 -104.5t-81.5 -82.5t-115 -50q51 -50 102.5 -70t96.5 -20q42 0 75 14t50 35q13 15 28 7q17 -7 15 -25
q-11 -89 -52.5 -130t-96.5 -41q-35 0 -71.5 15t-71 43.5t-64.5 70t-51 94.5q-24 -3 -50 -3zM394 23q42 0 74 28t53 74.5t31.5 105t10.5 120t-10.5 120.5t-32 105.5t-53 74.5t-74.5 28q-42 0 -74 -28t-53 -74.5t-31.5 -105.5t-10.5 -120.5t10.5 -120t32 -105t53 -74.5
t74.5 -28z" />
    <glyph glyph-name="R" unicode="R" horiz-adv-x="683" 
d="M510 0q-48 0 -81.5 22.5t-40.5 58.5q-6 36 -15 75.5t-23.5 73.5t-36 57.5t-53.5 27.5q-2 0 -4 -1v-145q2 -65 17 -95.5t34 -39.5t19 -19q0 -15 -19 -15h-282q-20 0 -20 15q0 10 19 19q20 9 35.5 42t15.5 103v342q0 35 -4.5 60.5t-11.5 42.5t-16 27t-19 15q-19 9 -19 19
q0 15 20 15h291q94 0 151.5 -14.5t89 -37.5t42 -53t10.5 -60q0 -32 -19.5 -60.5t-53 -53t-78 -45t-93.5 -35.5q57 2 94.5 -18t63 -51.5t42 -69.5t31 -73t30 -61.5t38.5 -34.5q19 -7 19 -18q0 -15 -19 -15h-154zM256 665v-315q34 11 63 27.5t50.5 37.5t33.5 47t12 57
q0 30 -8.5 56.5t-26 46.5t-43 31.5t-58.5 11.5h-23z" />
    <glyph glyph-name="S" unicode="S" horiz-adv-x="626" 
d="M510 451q-13 60 -40 103t-60.5 70t-70.5 39.5t-70 12.5q-41 0 -68 -17.5t-27 -49.5q0 -33 31.5 -60t78.5 -53t102 -53t102 -60.5t78.5 -75.5t31.5 -98q0 -57 -27.5 -98.5t-71.5 -69.5t-99 -41.5t-111 -13.5q-49 0 -95 11.5t-81 33.5t-56.5 53.5t-21.5 71.5q0 26 7.5 45
t19.5 31t27.5 18t31.5 6t32 -5.5t29 -16t20.5 -26t7.5 -34.5q0 -15 -5.5 -28t-12.5 -25t-12.5 -22.5t-5.5 -21.5q0 -15 10 -26t27 -18.5t39.5 -11t46.5 -3.5q32 0 64.5 6.5t59 20t43 34.5t16.5 49q0 33 -30.5 60t-76 52t-98.5 51t-98.5 57t-76 70t-30.5 91q0 54 21 92t54 62
t73 34.5t78 10.5q33 0 58.5 -5.5t45.5 -12t35 -12t27 -5.5q14 0 22.5 13.5t9.5 28.5q2 10 12 11q12 0 14 -9l24 -266q0 -12 -16 -12t-18 12z" />
    <glyph glyph-name="T" unicode="T" horiz-adv-x="612" 
d="M24 700h564l24 -172q1 -10 -13 -14q-13 -1 -18 10q-5 15 -19.5 38.5t-37.5 46.5t-55 39.5t-72 16.5v-486q0 -70 15.5 -103t35.5 -42q19 -9 19 -19q0 -15 -20 -15h-282q-19 0 -19 15q0 11 18 19q20 9 36 42t16 103v486q-40 0 -72 -16.5t-55.5 -39.5t-38 -46.5t-19.5 -38.5
q-3 -12 -17 -10q-15 3 -13 14z" />
    <glyph glyph-name="U" unicode="U" horiz-adv-x="669" 
d="M5 685q0 15 20 15h281q20 0 20 -15q0 -10 -19 -19t-34 -39t-17 -93v-360q0 -51 20.5 -83t52 -46.5t67.5 -12t67.5 20t52 49t20.5 76.5v327q0 30 -8.5 56.5t-21 47.5t-28 35.5t-28.5 20.5q-19 7 -19 20q0 15 20 15h195q19 0 19 -15q0 -13 -18 -20q-15 -6 -29 -20.5
t-24.5 -36t-16.5 -48t-6 -56.5v-326q0 -68 -36.5 -111.5t-92 -64t-119.5 -19t-119.5 24t-92 64.5t-36.5 102v360q-2 63 -17.5 93t-33.5 39q-19 9 -19 19z" />
    <glyph glyph-name="V" unicode="V" horiz-adv-x="702" 
d="M341 700q19 0 19 -15q0 -11 -18 -19q-11 -5 -20.5 -16.5t-15 -28.5t-4.5 -40t12 -51l115 -286l97 294q7 21 1 41.5t-18.5 37t-29 29.5t-29.5 19q-19 7 -19 20q0 15 20 15h231q20 0 20 -15q0 -12 -19 -20q-15 -6 -33 -18.5t-34.5 -30t-30.5 -38t-21 -41.5l-180 -542h-33
l-218 541q-15 35 -30.5 58.5t-30 38.5t-28 23t-25.5 12q-19 5 -19 17q0 15 19 15h322z" />
    <glyph glyph-name="W" unicode="W" horiz-adv-x="1020" 
d="M767 665q-18 7 -18 20q0 15 19 15h232q19 0 19 -15q0 -13 -18 -20q-15 -6 -33.5 -18.5t-35.5 -29.5t-30.5 -37.5t-20.5 -42.5l-163 -523l-5 -19h-32l-175 526l-2 5l-166 -531h-31l-182 545q-12 33 -26 55.5t-28 37.5t-27.5 23t-24.5 11q-19 6 -19 18q0 15 19 15h322
q19 0 19 -15q0 -11 -18 -19q-11 -6 -21.5 -15.5t-16.5 -25t-6 -38t9 -54.5l4 -12l79 -238l79 255q7 21 1 41.5t-18.5 37t-29 29.5t-29.5 19q-19 8 -19 20q0 8 7 12l9 3h4h231h4h87q19 0 19 -15q0 -10 -18 -19q-11 -6 -21.5 -15.5t-16.5 -25t-6 -38t9 -54.5l4 -12l79 -237
l78 254q7 21 1 41.5t-18.5 37t-29 29.5t-29.5 19z" />
    <glyph glyph-name="X" unicode="X" horiz-adv-x="735" 
d="M442 665q-18 7 -18 20q0 15 19 15h231q20 0 20 -15q0 -12 -19 -20q-15 -6 -37.5 -20t-46 -32t-45.5 -38t-35 -38l-81 -108l159 -276q18 -31 36 -52.5t34.5 -35.5t31 -22t25.5 -11q19 -5 19 -17q0 -15 -19 -15h-322q-19 0 -19 15q0 11 18 19q20 11 25 43.5t-24 82.5
l-72 126l-94 -125q-14 -18 -16.5 -37.5t2.5 -37t15.5 -31.5t24.5 -20q18 -8 18 -20q0 -15 -19 -15h-233q-20 0 -20 15q0 12 19 20q15 6 37.5 20t46 32t45.5 38t36 38l119 156l-116 202q-43 74 -80.5 106.5t-61.5 39.5q-19 6 -19 18q0 15 19 15h322q19 0 19 -15
q0 -10 -18 -19q-21 -11 -25.5 -43.5t23.5 -82.5l45 -79l59 77q13 18 15.5 37.5t-2.5 37.5t-16.5 32t-24.5 20z" />
    <glyph glyph-name="Y" unicode="Y" horiz-adv-x="723" 
d="M203 15q0 10 19 19q17 8 31.5 33.5t18.5 78.5v136l-125 239q-39 75 -71.5 107t-56.5 39q-19 6 -19 18q0 15 19 15h322q19 0 19 -15q0 -11 -18 -19q-11 -6 -21 -18t-13.5 -30t0.5 -42.5t21 -54.5l105 -191l94 208q9 21 5.5 41t-14 37t-26 30t-28.5 19q-18 7 -18 20
q0 15 19 15h237q19 0 19 -15q0 -13 -18 -20q-15 -6 -35 -19t-39.5 -30.5t-36.5 -37.5t-26 -41l-113 -250v-122q2 -63 17 -93t34 -38q19 -9 19 -19q0 -15 -19 -15h-282q-20 0 -20 15z" />
    <glyph glyph-name="Z" unicode="Z" horiz-adv-x="612" 
d="M61 686q0 14 19 14h450q17 0 23 -7t0 -19l-341 -639h94q42 0 87 21.5t84 53t67.5 67.5t37.5 64q3 10 16 8q15 -2 13 -13l-43 -222q-3 -14 -20 -14h-505q-17 0 -23 7.5t0 18.5l341 639h-71q-42 0 -80 -22.5t-67.5 -54.5t-50 -67.5t-28.5 -60.5q-3 -11 -16 -9q-15 3 -13 13
z" />
    <glyph glyph-name="bracketleft" unicode="[" horiz-adv-x="283" 
d="M26 667q0 15 9 24t24 9h178q15 0 15 -15t-15 -18l-61 -7v-664l61 -8q15 -2 15 -17t-15 -15h-178q-15 0 -24 9t-9 24v678z" />
    <glyph glyph-name="backslash" unicode="\" horiz-adv-x="534" 
d="M505 12q4 -5 2 -8.5t-8 -3.5h-23q-8 0 -11 6l-444 682q-7 12 7 12h22q7 0 12 -6z" />
    <glyph glyph-name="bracketright" unicode="]" horiz-adv-x="283" 
d="M253 -11q0 -15 -9.5 -24t-24.5 -9h-178q-15 0 -15 15t15 17l61 8v664l-61 7q-15 3 -15 18t15 15h178q15 0 24.5 -9t9.5 -24v-678z" />
    <glyph glyph-name="asciicircum" unicode="^" horiz-adv-x="353" 
d="M133 700h89l108 -174q9 -12 -7 -12h-19q-9 0 -13 6l-114 130l-115 -130q-5 -6 -13 -6h-20q-6 0 -8 3.5t2 8.5z" />
    <glyph glyph-name="underscore" unicode="_" horiz-adv-x="503" 
d="M40 19q0 10 10 10h404q10 0 10 -10v-14q0 -10 -10 -10h-404q-10 0 -10 10v14z" />
    <glyph glyph-name="grave" unicode="`" horiz-adv-x="156" 
d="M149 560q4 -6 -1.5 -11t-12.5 0l-109 74q-21 15 -20 32t12.5 28t28.5 12t28 -17l74 -118v0z" />
    <glyph glyph-name="a" unicode="a" horiz-adv-x="589" 
d="M580 28q-13 -12 -38.5 -23.5t-65.5 -11.5q-43 0 -68 9.5t-38 23t-17.5 28.5t-5.5 25l-1 9q-17 -37 -47 -60.5t-65.5 -34t-72.5 -8.5t-67 17t-49 42.5t-19 67.5q0 42 22.5 69t56 45t72 30.5t71 25.5t53 31t17.5 47q-2 12 -6.5 31t-15.5 37t-29 31.5t-46 13.5
q-31 0 -36.5 -11.5t0 -29.5t15.5 -39.5t10 -40.5q0 -29 -22.5 -46t-49.5 -18t-49.5 16t-22.5 56q0 27 12.5 53t34.5 46.5t53 33t67 12.5q55 0 101 -10.5t80 -34t55 -60t27 -87.5l24 -202q3 -26 6 -41t20 -15q11 0 23 6q8 5 12 4.5t6 -7.5q2 -8 0.5 -16.5t-7.5 -13.5z
M212 112q0 -26 17 -35.5t39.5 -4.5t43 24.5t28.5 52.5l-15 143q-13 -27 -32 -45t-37 -36t-31 -40.5t-13 -58.5z" />
    <glyph glyph-name="b" unicode="b" horiz-adv-x="635" 
d="M40 651q0 14 14 16q25 1 50.5 6t47.5 12.5t40 16.5t30 17q5 2 9.5 4t8.5 2q11 0 11 -10v-244q14 15 34 24.5t45 9.5q69 0 120 -20.5t84.5 -55t49.5 -78.5t16 -90q0 -49 -17.5 -97t-52 -85.5t-84.5 -60.5t-116 -23q-34 0 -56.5 13.5t-36.5 33.5q-23 -40 -78 -42h-134
q-20 0 -20 15q0 10 19 19q20 9 35.5 42t15.5 103v382v19t-2 21.5t-6.5 19t-12.5 12.5q-14 7 -14 18zM330 27q28 0 48 33t31 82t12.5 106.5t-7.5 106.5t-29.5 82t-53.5 33q-23 0 -38 -9.5t-24 -24t-13.5 -31.5t-4.5 -33v-210q0 -20 3.5 -44t12 -44t23.5 -33.5t40 -13.5z" />
    <glyph glyph-name="c" unicode="c" horiz-adv-x="526" 
d="M486 146q5 -2 5 -7q-6 -34 -24 -60.5t-44.5 -45t-60.5 -28t-72 -9.5q-89 0 -146 38t-84 95.5t-24 124t35 124t93 95.5t150 38q42 0 74.5 -13t54.5 -35t33.5 -50.5t11.5 -58.5q0 -38 -22.5 -55.5t-49.5 -17.5q-26 0 -48 16.5t-22 49.5q0 19 7.5 42.5t9.5 44t-7 34.5
t-42 14q-30 0 -51.5 -29.5t-32.5 -73.5t-10 -96t16.5 -96t48 -73.5t84.5 -29.5q20 0 38 5t32.5 13.5t24.5 18.5t14 21q2 6 7 4h1z" />
    <glyph glyph-name="d" unicode="d" horiz-adv-x="634" 
d="M353 651q0 14 15 16q25 1 50 6t47 12.5t40.5 16.5t30.5 17q4 2 8.5 4t9.5 2q10 0 10 -10v-591q0 -9 1 -19.5t6 -19.5t15 -13.5t28 -1.5q8 1 12.5 -3t6 -9.5t0 -10.5t-7.5 -6l-179 -44q-23 -2 -39 10t-18 30q-16 -18 -36.5 -30t-46.5 -12q-69 0 -120 20.5t-84.5 55
t-49.5 78t-16 90.5q0 49 17.5 97t52 85.5t84.5 60.5t116 23q29 0 49 -9.5t34 -25.5v91v19t-2 21.5t-6.5 19t-12.5 12.5q-15 7 -15 18zM389 313q-2 18 -4 45t-10 53t-24 44.5t-45 18.5q-28 0 -48 -33t-31 -82t-12.5 -107t7.5 -107t29.5 -82t53.5 -33q23 0 39 9.5t25.5 24.5
t14.5 32.5t5 33.5v183z" />
    <glyph glyph-name="e" unicode="e" horiz-adv-x="537" 
d="M486 146q5 -2 5 -7q-6 -34 -24 -60.5t-44.5 -45t-60.5 -28t-72 -9.5q-89 0 -146 38t-84 95.5t-24 124t35 124t93 95.5t150 38q47 0 83 -20.5t60.5 -50.5t37 -65.5t12.5 -65.5v-1q0 -17 -14 -28.5t-37 -13.5l-235 -12q4 -33 14 -64t28 -54.5t44.5 -37.5t61.5 -14
q20 0 38 5t32.5 13.5t24.5 18.5t14 21q2 6 7 4h1zM330 299q20 3 31.5 17.5t15.5 35t1 43.5t-11.5 42t-22 32t-30.5 13q-21 0 -38.5 -16t-30 -42.5t-19.5 -60.5t-7 -70z" />
    <glyph glyph-name="f" unicode="f" horiz-adv-x="376" 
d="M263 687q-38 0 -59.5 -23.5t-24 -54.5t14.5 -62.5t56 -46.5h133q10 0 10 -10v-13q0 -10 -10 -10h-133v-302q2 -63 17 -93t34 -38q19 -9 19 -19q0 -15 -19 -15h-276q-20 0 -20 15q0 10 19 19q20 9 35.5 42t15.5 103v288h-60q-10 0 -10 10v13q0 10 10 10h108
q-41 11 -65.5 35t-24.5 56q0 24 11 47t35.5 41t63.5 29t94 11q49 0 83 -10t55.5 -25.5t31 -34.5t9.5 -37q0 -24 -10 -39.5t-25 -23t-33 -8t-33 5.5t-25 17t-10 26q0 16 7 33.5t10 31.5t-3 23t-31 9z" />
    <glyph glyph-name="g" unicode="g" horiz-adv-x="594" 
d="M294 47q-45 0 -82 9.5t-66 26.5q-22 -3 -34.5 -14.5t-12.5 -22.5q0 -16 36 -18.5t90.5 -1.5t117.5 1t117.5 -11t90.5 -37.5t36 -77.5q0 -37 -16 -64t-42 -46t-58 -31t-63.5 -18.5t-59.5 -9t-45 -2.5q-74 0 -125.5 9.5t-83.5 25t-47 35.5t-15 40q0 27 25.5 49t59.5 30
q-41 10 -66 30.5t-25 58.5q0 22 8.5 37.5t22 26.5t30.5 18t34 10q-38 30 -59 72t-24.5 87t11 89t46.5 79t82 56.5t118 21.5q46 0 83.5 -10.5t66.5 -28.5q18 13 18 31q0 16 -10 23t-22 13t-22 14.5t-10 27.5q0 34 25 51t55 16.5t55 -18t25 -53.5q0 -16 -7 -33.5t-19 -33.5
t-29 -30t-37 -23q39 -30 60 -72t24.5 -86.5t-11 -88.5t-46.5 -79t-82 -56.5t-118 -21.5zM295 81q31 0 51.5 29t30.5 72.5t10 94t-10 94t-30.5 72.5t-51.5 29t-51.5 -29t-31 -72.5t-10.5 -94t10.5 -94t31 -72.5t51.5 -29zM496 -146q0 24 -25.5 34t-65.5 13.5t-89.5 3.5
t-98.5 2q-8 0 -16.5 -6t-15.5 -15.5t-11.5 -21t-4.5 -23.5q0 -29 24 -45.5t60.5 -22.5t79 -2.5t79 14.5t60.5 29t24 40z" />
    <glyph glyph-name="h" unicode="h" horiz-adv-x="670" 
d="M40 651q0 15 14 15q25 1 50.5 6.5t47.5 13t40 16.5t30 17q5 2 9.5 4t8.5 2q11 0 11 -10v-298q16 36 52 62t88 26q44 0 74.5 -10t51 -31.5t33 -56.5t21.5 -85l26 -143q12 -69 21.5 -102.5t29.5 -42.5q19 -9 18 -19q0 -15 -19 -15h-276q-19 0 -19 15q0 11 18 19
q9 4 19.5 13t18.5 23t12.5 34.5t0.5 48.5l-17 127q-5 33 -10 62t-14 50.5t-22 33.5t-33 12q-28 0 -48.5 -22t-25.5 -63v-174q0 -70 15.5 -103t35.5 -42q19 -9 19 -19q0 -15 -19 -15h-277q-20 0 -20 15q0 10 19 19q20 9 35.5 42t15.5 103v382v18.5t-2 21t-6.5 19t-12.5 13.5
q-14 7 -14 18z" />
    <glyph glyph-name="i" unicode="i" 
d="M142 536q-24 0 -43 7t-32 19.5t-18.5 29t-2.5 35.5t15 35.5t30 29t40 19.5t45 7t42.5 -7t32 -19.5t18.5 -29t2 -35.5q-3 -19 -15 -35.5t-29.5 -29t-39.5 -19.5t-45 -7zM40 445q0 15 14 15q25 1 50.5 6.5t47.5 13t40 16.5t30 17q5 2 9.5 4t8.5 2q11 0 11 -10v-352
q2 -59 17 -87t33 -36q19 -9 19 -19q0 -15 -19 -15h-276q-20 0 -20 15q0 10 19 19q20 9 35.5 42t15.5 103v176v18.5t-2 21t-6.5 19t-12.5 13.5q-14 7 -14 18z" />
    <glyph glyph-name="j" unicode="j" horiz-adv-x="303" 
d="M41 445q0 15 15 15q25 1 50.5 6.5t47.5 13t40 16.5t30 17q4 2 8.5 4t9.5 2q11 0 11 -10v-515q0 -50 -22 -85.5t-56 -59t-74 -34.5t-76 -11t-63 8t-45 21t-27.5 27.5t-9.5 28.5q0 23 12 39t30 24t39 9t39 -5t30 -19t12 -33q0 -14 -8.5 -26.5t-15.5 -22.5t-8 -15.5t14 -5.5
q28 0 50 16.5t32 41t4.5 52t-33.5 50.5v380q-1 15 -5 30.5t-16 22.5q-15 7 -15 18zM142 536q-24 0 -43 7t-32 19.5t-18.5 29t-2.5 35.5t15 35.5t30 29t40 19.5t45 7t42.5 -7t32 -19.5t18.5 -29t2 -35.5q-3 -19 -15 -35.5t-29.5 -29t-39.5 -19.5t-45 -7z" />
    <glyph glyph-name="k" unicode="k" horiz-adv-x="679" 
d="M486 0q-38 0 -64.5 22.5t-31.5 58.5q-4 25 -9 52t-13.5 50t-21 41t-31.5 26l-65 -67v-18q2 -63 17 -93t34 -38q19 -9 19 -19q0 -15 -20 -15h-275q-20 0 -20 15q0 10 19 19q20 9 35.5 42t15.5 103v400q-1 16 -5 31.5t-16 22.5q-14 7 -14 18q0 15 14 15q25 1 50.5 6.5
t47.5 13t40 16t30 16.5q9 6 18 6q10 0 10 -10v-484l116 120q17 17 19.5 36t-4 35.5t-19 30t-25.5 20.5q-18 9 -18 20q0 15 20 15h236q18 0 20 -15q0 -12 -19 -20q-18 -8 -39 -21.5t-43.5 -29.5t-44 -34.5t-39.5 -37.5l-34 -35q50 8 83.5 -8t56.5 -45.5t39 -66.5t31.5 -71
t33 -60t44.5 -32q14 -3 14 -16q0 -15 -15 -15h-177z" />
    <glyph glyph-name="l" unicode="l" 
d="M40 651q0 15 14 15q25 1 50.5 6.5t47.5 13t40 16.5t30 17q5 2 9.5 4t8.5 2q10 0 10 -10v-550q2 -63 17 -93t34 -38q19 -9 19 -19q0 -15 -20 -15h-275q-20 0 -20 15q0 10 19 19q20 9 35.5 42t15.5 103v400q-1 16 -4.5 31.5t-16.5 22.5q-14 7 -14 18z" />
    <glyph glyph-name="m" unicode="m" horiz-adv-x="976" 
d="M331 15q0 10 19 19q9 4 19 13t18.5 23t12.5 34.5t0 48.5l-17 127q-4 33 -9.5 62t-14.5 50.5t-22 33.5t-33 12q-45 0 -53 -64v-195q0 -70 15.5 -103t35.5 -42q19 -9 19 -19q0 -15 -19 -15h-277q-20 0 -20 15q0 10 19 19q20 9 35.5 42t15.5 103v176v19t-2 21.5t-6.5 19
t-12.5 12.5q-14 7 -14 18v1q0 13 14 15q25 1 50.5 6.5t47.5 13t40 16t30 16.5q9 6 18 6q11 0 11 -10v-72q15 29 44.5 49t74.5 20q37 0 64 -6.5t46.5 -21.5t33 -38t23.5 -56q6 23 20.5 45t35.5 39t47.5 27.5t56.5 10.5q44 0 74.5 -10t51 -32t33 -57t21.5 -85l26 -143
q12 -69 21.5 -102.5t29.5 -42.5q19 -9 19 -19q0 -15 -20 -15h-276q-19 0 -19 15q0 11 18 19q9 4 19.5 13t18.5 23t12.5 34.5t0.5 48.5l-17 127q-5 33 -10 62t-14 50.5t-22 33.5t-33 12q-15 0 -29.5 -8.5t-25.5 -23.5t-18.5 -35t-7.5 -43q0 -4 1 -6l25 -143
q12 -69 21.5 -102.5t29.5 -42.5q19 -9 19 -19q0 -15 -20 -15h-276q-19 0 -19 15z" />
    <glyph glyph-name="n" unicode="n" horiz-adv-x="670" 
d="M352 15q0 11 18 19q9 4 19.5 13t18.5 23t12.5 34.5t0.5 48.5l-17 127q-5 33 -10 62t-14 50.5t-22 33.5t-33 12q-30 0 -51.5 -29.5t-22.5 -76.5v-153q0 -70 15.5 -103t35.5 -42q19 -9 19 -19q0 -15 -19 -15h-277q-20 0 -20 15q0 10 19 19q20 9 35.5 42t15.5 103v176v19
t-2 21.5t-6.5 19t-12.5 12.5q-14 7 -14 18v1q0 13 14 15q25 1 50.5 6.5t47.5 13t40 16t30 16.5q9 6 18 6q11 0 11 -10v-93q16 37 52 63.5t88 26.5q44 0 74.5 -10t51 -32t33 -57t21.5 -85l26 -143q12 -69 21.5 -102.5t29.5 -42.5q19 -9 19 -19q0 -15 -20 -15h-276
q-19 0 -19 15z" />
    <glyph glyph-name="o" unicode="o" horiz-adv-x="628" 
d="M314 -5q-69 0 -120.5 22t-86 58t-51.5 81.5t-17 93.5t17 94t51.5 81.5t86.5 57.5t121 22t120.5 -22t86 -58t51.5 -81.5t17 -93.5t-17.5 -94t-52 -81.5t-86 -57.5t-120.5 -22zM315 24q31 0 52.5 33.5t32 83.5t10.5 108t-10.5 108t-31.5 83.5t-53 33.5t-53 -33.5
t-31.5 -83.5t-10.5 -108t10.5 -108t31.5 -83.5t53 -33.5z" />
    <glyph glyph-name="p" unicode="p" horiz-adv-x="636" 
d="M6 -191q0 11 18 19q10 4 19 14t16.5 27.5t12 43t4.5 60.5v399q-1 16 -5 31.5t-16 23.5q-15 7 -15 18q0 15 15 15q51 3 89 19.5t62 33.5q4 2 8.5 4t9.5 2q8 0 10 -10l8 -55q15 21 37 36t51 15q69 0 120 -21t84.5 -55t49.5 -78t16 -90q0 -49 -17.5 -97t-52 -85.5
t-84.5 -60.5t-116 -23q-26 0 -45.5 8t-33.5 22v-72q1 -60 8.5 -88.5t25.5 -36.5t18 -19q0 -15 -19 -15h-259q-19 0 -19 15zM331 470q-21 0 -35.5 -8t-24 -20.5t-14.5 -28.5t-6 -31v-235q1 -20 5 -41.5t13 -39t23.5 -29t37.5 -11.5q28 0 48 33t31 82t12.5 107t-7.5 107
t-29.5 82t-53.5 33z" />
    <glyph glyph-name="q" unicode="q" horiz-adv-x="630" 
d="M332 -189q0 10 19 19q20 9 27 41t7 102v60q-15 -17 -35.5 -27.5t-43.5 -10.5q-69 0 -120 20.5t-84.5 55t-49.5 78t-16 90.5q0 49 17.5 97t52 85.5t84.5 60.5t116 23q28 0 48 -9.5t34 -24.5q19 -8 40 -6t40.5 9t36.5 18t27 21q3 4 8 5t10 1q10 0 10 -10v-549
q1 -30 5.5 -48.5t11.5 -29t16 -16t18 -9.5q18 -8 18 -19q0 -13 -19 -15l-258 -27q-9 -2 -14.5 3t-5.5 12zM305 30q36 0 54.5 22t25.5 49v261q-2 19 -6.5 39t-13.5 36t-23.5 26.5t-35.5 10.5q-28 0 -48 -33t-31 -82t-12.5 -107t7.5 -107t29.5 -82t53.5 -33z" />
    <glyph glyph-name="r" unicode="r" horiz-adv-x="507" 
d="M40 445q0 15 14 15q25 1 50.5 6.5t47.5 13t40 16.5t30 17q5 2 9.5 4t8.5 2q10 0 10 -10v-108q9 22 22.5 42.5t30.5 36.5t38 25t45 9q38 0 62.5 -11.5t38 -28t15.5 -36.5t-5.5 -36.5t-24 -28t-40.5 -11.5q-25 0 -39.5 11.5t-24.5 26t-17 26t-17 11.5q-19 0 -45 -30
t-39 -81v-147q0 -70 15.5 -103t35.5 -42q19 -9 19 -19q0 -15 -20 -15h-275q-20 0 -20 15q0 10 19 19q18 8 33.5 38.5t17.5 92.5v209q-1 15 -5 30.5t-16 22.5q-14 7 -14 18z" />
    <glyph glyph-name="s" unicode="s" horiz-adv-x="518" 
d="M417 315q-11 48 -33.5 79.5t-50.5 50.5t-58 26t-54.5 5.5t-40 -10.5t-15.5 -23q0 -24 24.5 -43.5t61.5 -37.5t80 -36.5t80 -42t61.5 -54t24.5 -71.5q0 -44 -24 -76t-61.5 -53t-83.5 -31t-90 -10q-39 0 -77.5 10t-69.5 27.5t-50.5 42t-19.5 54.5q0 41 22.5 61t49.5 20.5
t49.5 -17.5t22.5 -53q0 -12 -4.5 -21.5t-10 -17t-10 -14t-4.5 -14.5q0 -15 17.5 -25.5t43 -16t56 -5.5t56 7.5t43 22t17.5 37.5t-24 41.5t-60.5 35.5t-79 35.5t-79 40.5t-60.5 50.5t-24 66.5q0 42 19 71t48.5 47t63.5 26t64 8q20 0 41 -4t39.5 -8.5t34 -8t24.5 -3.5
q11 0 18 9t8 20q0 6 9 8q10 0 10 -7l23 -199q0 -9 -12 -9q-14 0 -15 9z" />
    <glyph glyph-name="t" unicode="t" horiz-adv-x="367" 
d="M31 500q12 0 35.5 6.5t50.5 20.5t53.5 37.5t45.5 58.5h20v-36q0 -11 0.5 -25.5t3 -28t8.5 -23t18 -10.5h65q10 0 10 -10v-13q0 -10 -10 -10h-95v-343q0 -39 13.5 -49.5t31.5 -5.5t36 20.5t28 28.5q7 9 13 1q9 -9 3 -18q-20 -38 -50 -63t-63.5 -37t-67 -11t-60 14t-43 38
t-16.5 61v313q-1 19 -6.5 35t-23.5 16h-21q-10 0 -10 10v13q0 10 10 10h21z" />
    <glyph glyph-name="u" unicode="u" horiz-adv-x="599" 
d="M354 74q-20 -34 -55.5 -56.5t-82.5 -22.5q-39 0 -71.5 11t-56 32t-36.5 50.5t-13 66.5v200q0 8 -0.5 19t-2.5 21.5t-6 19t-12 12.5q-15 9 -15 18v1q0 13 15 15q25 1 50 6.5t47 13t40.5 16t30.5 16.5q7 6 18 6q10 0 10 -10v-364q0 -52 15.5 -73t36.5 -21q15 0 30 8.5
t28 22t21 30.5t9 34v209v18.5t-2 21t-6.5 19t-12.5 13.5q-15 7 -15 18q0 15 15 15q25 1 50 6.5t47 13t40.5 16.5t30.5 17q4 2 8.5 4t9.5 2q10 0 10 -10v-385q0 -9 1 -19.5t6 -19.5t15 -13.5t28 -1.5q8 1 12.5 -3t6 -9.5t0 -10.5t-7.5 -6l-179 -44q-25 -2 -41 11t-16 33v33z
" />
    <glyph glyph-name="v" unicode="v" horiz-adv-x="610" 
d="M390 465q-19 7 -19 20q0 15 20 15h199q19 0 19 -15q0 -13 -18 -20q-15 -6 -32.5 -19t-33.5 -30.5t-30 -37.5t-23 -41l-151 -336l-38 -1l-155 321l-10 20q-17 35 -30.5 57.5t-24.5 37t-21.5 21.5t-22.5 11q-19 6 -19 17q0 15 19 15h275q19 0 19 -15q0 -11 -18 -19
q-11 -6 -16 -15t-3.5 -25t10.5 -40.5t25 -60.5l58 -131l65 144q9 20 8.5 40t-8 37.5t-19.5 30.5t-25 19z" />
    <glyph glyph-name="w" unicode="w" horiz-adv-x="879" 
d="M659 465q-19 8 -18 20q0 15 19 15h199q20 0 20 -15q0 -12 -19 -20q-15 -6 -32.5 -19t-34 -30.5t-30 -37.5t-22.5 -41l-142 -336l-38 -1l-130 285l-120 -284l-38 -1l-162 356q-14 31 -26 51t-23 32.5t-21.5 19t-21.5 9.5q-19 6 -19 17q0 17 19 15h275q19 0 19 -15
q0 -11 -18 -19q-11 -6 -17.5 -14.5t-6.5 -24t7.5 -39.5t24.5 -60l57 -121l52 123q5 13 2.5 33.5t-10.5 41t-20 37.5t-25 23q-18 7 -18 20q0 15 19 15h211h4h7q19 0 19 -15q0 -11 -18 -19q-11 -6 -17.5 -14.5t-6.5 -24t7.5 -39.5t24.5 -60l57 -121l55 131q9 21 8 41t-8 37
t-19 30t-25 19z" />
    <glyph glyph-name="x" unicode="x" horiz-adv-x="600" 
d="M382 464q-8 6 -13 10.5t-5 9.5q0 16 19 16h175q19 0 19 -15q0 -12 -18 -20q-15 -6 -36 -18t-44 -28t-44 -33.5t-36 -34.5l-37 -42l105 -158q38 -58 65.5 -85t48.5 -33q18 -6 18 -18q0 -15 -18 -15h-304q-18 0 -18 15q0 8 17 19q29 19 29.5 48t-31.5 76l-19 28l-35 -39
q-14 -17 -20.5 -34.5t-6.5 -33t6 -27.5t17 -17q18 -8 18 -20q0 -15 -19 -15h-196q-18 0 -18 15q0 12 17 20q15 6 35.5 18t43 28t43 33.5t35.5 34.5l60 67l-75 113q-47 70 -78.5 100.5t-54.5 37.5q-18 6 -18 18q0 15 19 15h285q18 0 18 -15q0 -10 -17 -20
q-20 -10 -15.5 -37.5t42.5 -85.5l2 -4l13 14q29 33 38.5 64.5t-12.5 47.5z" />
    <glyph glyph-name="y" unicode="y" horiz-adv-x="610" 
d="M390 465q-19 7 -19 20q0 15 20 15h199q19 0 19 -15q0 -13 -18 -20q-15 -6 -32.5 -19t-33.5 -30.5t-30 -37.5t-23 -41l-128 -285q-4 -8 -8.5 -18.5t-10.5 -22.5l-4 -10h-1q-15 -31 -37 -67t-48.5 -67t-57 -52t-63.5 -21t-55 11.5t-34 28t-14 36.5t6 36.5t25.5 28
t44.5 11.5q15 0 27.5 -7.5t23.5 -17t22 -17t23 -7.5q28 0 52.5 26.5t47.5 76.5l-155 321l-10 20q-17 35 -30.5 57.5t-24.5 37t-21.5 21.5t-22.5 11q-19 6 -19 17q0 15 19 15h275q19 0 19 -15q0 -11 -18 -19q-11 -6 -16 -15t-3.5 -25t10.5 -40.5t25 -60.5l58 -131l65 144
q9 20 8.5 40t-8 37.5t-19.5 30.5t-25 19z" />
    <glyph glyph-name="z" unicode="z" horiz-adv-x="530" 
d="M52 486q2 14 20 14h377q17 0 23 -7t-1 -19l-250 -439h12q42 0 82.5 21t74 52t57.5 66t33 63q3 10 16 8q15 -2 13 -13l-52 -218q-3 -14 -21 -14h-389q-17 0 -23 7t1 19l249 439h-17q-42 0 -77 -16t-61.5 -41t-44 -54t-25.5 -55q-3 -10 -16 -8q-6 1 -10 4.5t-3 8.5z" />
    <glyph glyph-name="braceleft" unicode="{" horiz-adv-x="377" 
d="M310 693q0 -7 -7 -7q-30 -1 -45.5 -13.5t-20.5 -32t-2 -43.5t8.5 -50t10.5 -51t5 -45q0 -56 -24.5 -81.5t-65.5 -34.5q40 -9 65 -34.5t25 -80.5q0 -20 -5 -45t-10.5 -51t-8.5 -50t2 -43.5t20 -32t46 -13.5q7 -2 7 -7q0 -8 -6 -9q-22 -5 -47 -5q-26 0 -54.5 6t-52 19
t-38.5 33.5t-15 50.5q0 27 4.5 55t8.5 55t4 51.5t-9.5 44t-31.5 32.5t-62 17v15q40 4 62 17t31.5 32.5t9.5 44t-4 51.5t-8.5 55t-4.5 55q0 30 15 50.5t38.5 33.5t52 19t54.5 6q25 0 47 -5q6 -2 6 -9z" />
    <glyph glyph-name="bar" unicode="|" horiz-adv-x="150" 
d="M74 -68q-17 0 -17 13v693q0 13 17 13q18 0 18 -14v-692q0 -13 -18 -13z" />
    <glyph glyph-name="braceright" unicode="}" horiz-adv-x="377" 
d="M11 -22q0 5 7 7q31 1 46 13.5t20 32t2.5 43.5t-8 50t-10.5 51t-5 45q0 56 24.5 81t64.5 34q-40 9 -64.5 34.5t-24.5 81.5q0 20 5 45t10.5 51t8 50t-2.5 43.5t-20 32t-46 13.5q-7 0 -7 7t6 9q22 5 47 5q26 0 54.5 -6t52 -19t38.5 -33.5t15 -50.5q0 -27 -4.5 -55t-8.5 -55
t-4 -51.5t9.5 -44t31.5 -32.5t62 -17v-15q-40 -4 -62 -17t-31.5 -32.5t-9.5 -44t4 -51.5t8.5 -55t4.5 -55q0 -30 -15 -50.5t-38.5 -33.5t-52 -19t-54.5 -6q-25 0 -47 5q-6 1 -6 9z" />
    <glyph glyph-name="asciitilde" unicode="~" horiz-adv-x="476" 
d="M35 272q-4 3 -4 7.5t3 7.5q44 41 77 56.5t60 15.5t48.5 -10.5t41.5 -24.5q19 -12 38.5 -22.5t42.5 -10.5q17 0 37 7t45 24q9 5 14 -3l6 -9q6 -7 -2 -13q-45 -35 -79.5 -49t-63.5 -14q-32 0 -57 13t-48 27q-17 11 -33.5 20t-34.5 9q-14 0 -31.5 -8.5t-38.5 -28.5
q-2 -2 -6 -2.5t-7 2.5z" />
    <glyph glyph-name="exclamdown" unicode="&#xa1;" horiz-adv-x="269" 
d="M236 -102q8 -34 -6 -56.5t-38 -33.5t-53.5 -11t-53.5 11t-38 33.5t-6 56.5l86 386q2 10 12 10q9 0 12 -10zM54 442q0 18 6.5 34t18 27.5t27 18.5t33.5 7t33.5 -7t27 -18.5t18 -27.5t6.5 -34t-6.5 -34t-18 -27.5t-27 -18.5t-33.5 -7t-33.5 7t-27 18.5t-18 27.5t-6.5 34z
" />
    <glyph glyph-name="cent" unicode="&#xa2;" horiz-adv-x="526" 
d="M474 173q6 -2 5 -6q-10 -60 -56 -96.5t-109 -44.5v-81q0 -13 -18 -13t-18 13v79q-65 0 -113 21t-79.5 56t-47 79.5t-15 91.5t17 93t48.5 83t79.5 61.5t109.5 28.5v100q0 13 18 13t18 -13v-100q39 -2 69.5 -15.5t51.5 -35t31.5 -49t10.5 -56.5q0 -38 -23 -56t-50 -18
q-26 0 -48 17t-22 50q0 18 7 40t10 42t-3.5 34.5t-33.5 17.5v-390q18 -7 43 -7q20 0 38 5t32.5 13.5t24.5 18.5t14 21q2 5 8 3zM278 504q-20 -10 -35.5 -35.5t-24 -59.5t-10.5 -73.5t5 -77t22.5 -69.5t42.5 -52v367z" />
    <glyph glyph-name="sterling" unicode="&#xa3;" horiz-adv-x="542" 
d="M80 369h112q2 41 2.5 82.5t4.5 79.5t14.5 71t31.5 57.5t55 38.5t87 14q29 0 50.5 -10.5t36 -27t22 -36t7.5 -37.5q0 -32 -20 -50.5t-44.5 -21t-44.5 11.5t-20 47q0 23 9 46t9 37q0 11 -12 15t-27 1t-27 -13.5t-12 -28.5q0 -21 10 -51.5t23 -66.5t24 -76.5t13 -81.5h78
v-25h-78q-2 -39 -16.5 -75.5t-48.5 -68t-91 -57t-143 -41.5h204q33 0 67 9.5t65 25.5t55 37.5t37 44.5h24l-37 -219h-467v102q47 11 76.5 34.5t47 55.5t24.5 71t10 81h-111v25z" />
    <glyph glyph-name="yen" unicode="&#xa5;" horiz-adv-x="723" 
d="M341 700q19 0 19 -15q0 -11 -18 -19q-11 -6 -21 -18t-13.5 -30t0.5 -42.5t21 -54.5l106 -191l93 208q9 21 5.5 41t-14 37t-26 30t-28.5 19q-18 7 -18 20q0 15 19 15h237q19 0 19 -15q0 -13 -18 -20q-15 -6 -35 -19t-39.5 -30.5t-36 -37.5t-26.5 -41l-107 -235h40
q13 0 13 -13v-8q0 -13 -13 -13h-46v-55h46q13 0 13 -13v-8q0 -13 -13 -13h-46q0 -70 16 -103t36 -42q18 -8 18 -19q0 -15 -19 -15h-282q-20 0 -20 15q0 10 19 19q17 8 32 35t18 83v27h-48q-13 0 -13 13v8q0 13 13 13h48v55h-48q-13 0 -13 13v8q0 13 13 13h38l-115 219
q-20 37 -37.5 63.5t-33.5 43.5t-30.5 26.5t-26.5 13.5q-19 5 -19 17q0 15 19 15h322z" />
    <glyph glyph-name="dieresis" unicode="&#xa8;" horiz-adv-x="236" 
d="M60 548q-25 0 -37.5 15t-12.5 32.5t12.5 32.5t37.5 15t37.5 -15t12.5 -32.5t-12.5 -32.5t-37.5 -15zM178 548q-24 0 -36.5 15t-12.5 32.5t12.5 32.5t36.5 15t36.5 -15t12.5 -32.5t-12.5 -32.5t-36.5 -15z" />
    <glyph glyph-name="copyright" unicode="&#xa9;" horiz-adv-x="723" 
d="M371 92q-58 0 -101.5 17t-72.5 44.5t-43.5 63t-14.5 72.5t14.5 72t43.5 63t72.5 45t101.5 17q32 0 52 -9t33 -17q10 -7 12 -7q9 0 9 17q0 10 10 10h4q10 0 10 -10v-99q0 -10 -10 -10h-4q-10 0 -10 9q-5 42 -37 64t-69 22q-45 0 -79 -14.5t-56.5 -38t-33.5 -54t-11 -61.5
t11 -61t33.5 -53t56.5 -37.5t79 -14.5q37 0 69 21.5t37 63.5q0 9 10 9h4q10 0 10 -10v-99q0 -10 -10 -10h-4q-10 0 -10 10q0 17 -9 17q-2 0 -12 -7q-13 -8 -33 -16.5t-52 -8.5zM22 298q0 62 26.5 117t71.5 96t106 65t130 24t129.5 -24t105.5 -65t71 -96t26 -118
q0 -62 -26 -117t-71.5 -96t-106 -65t-129.5 -24t-129.5 24t-105.5 65t-71.5 96t-26.5 118zM59 297q0 -55 23.5 -103.5t63.5 -85t94 -57.5t116 -21q61 0 115 21t94 57.5t63.5 85t23.5 104.5q0 55 -23.5 103.5t-64 85t-94.5 57.5t-115 21t-115 -21t-94 -57.5t-63.5 -85.5
t-23.5 -104z" />
    <glyph glyph-name="registered" unicode="&#xae;" horiz-adv-x="276" 
d="M22 600q0 24 9 44.5t25 35.5t37 24t45 9t45.5 -9t37 -24.5t25 -36t9.5 -43.5t-9.5 -43.5t-25 -36t-37 -24.5t-45.5 -9t-45 9t-37 24.5t-25 36t-9 43.5zM33 600q0 -21 8.5 -39.5t22.5 -32.5t33.5 -22t40.5 -8q22 0 41 8t33 22t22.5 32.5t8.5 39.5t-8.5 39.5t-22.5 32.5
t-33 22t-41 8t-41 -8t-33.5 -22t-22.5 -32.5t-8 -39.5zM121 558q0 -3 1 -6l2.5 -5t5.5 -4h-35q4 1 6 4t3 5q1 3 1 6v93q0 3 -1 6q-2 6 -10 8q0 1 1 1h39q20 0 30.5 -8t12 -18.5t-6 -19.5t-24.5 -12q11 -4 16 -14t8.5 -20.5t7.5 -19t13 -9.5q2 0 2 -1t-2 -1h-18
q-10 0 -14.5 10t-8.5 22t-9 22t-15 10h-5v-49zM121 612h12q12 0 18.5 7.5t6.5 17t-6 17t-19 7.5h-2q-7 0 -9 -6q-1 -3 -1 -6v-37z" />
    <glyph glyph-name="acute" unicode="&#xb4;" horiz-adv-x="155" 
d="M80 678q11 18 28 17t29 -12t12.5 -28t-20.5 -32l-109 -74q-6 -5 -11.5 0t-2.5 11z" />
    <glyph glyph-name="periodcentered" unicode="&#xb7;" horiz-adv-x="222" 
d="M26 350q0 27 25 46t60 19t60 -19t25 -46t-25 -46t-60 -19t-60 19t-25 46z" />
    <glyph glyph-name="cedilla" unicode="&#xb8;" horiz-adv-x="165" 
d="M156 -84q0 -13 -7 -22.5t-18.5 -15.5t-25.5 -9t-29 -3q-28 0 -50 9.5t-22 26.5q0 16 8.5 24t17.5 8t15.5 -6.5t6.5 -19.5q0 -16 5 -22.5t13 -6.5q11 0 22.5 11.5t11.5 27.5q0 14 -7.5 25.5t-24.5 11.5h-6q-13 0 -9 9l16 52l42 -1l-34 -47q38 -2 56.5 -18t18.5 -34z" />
    <glyph glyph-name="questiondown" unicode="&#xbf;" horiz-adv-x="526" 
d="M300 312q0 11 11 11t11 -11v-17q0 -53 -8.5 -89t-20.5 -62.5t-27 -46t-27 -38.5t-20.5 -41t-8.5 -53q0 -36 8.5 -60.5t22.5 -39.5t33 -21t40 -6q26 0 40 14.5t14 30.5q0 13 -5.5 27t-11.5 28.5t-11.5 30t-5.5 31.5q0 27 12 44t30 24.5t39 5.5t39 -13.5t30 -33t12 -52.5
q0 -44 -19.5 -76t-51 -53t-72 -31t-83.5 -10q-45 0 -88 11t-76.5 32.5t-54.5 53t-21 73.5q0 44 20 76.5t50 58.5t65 48t65 45t50 49t20 60zM390 446q0 -18 -6.5 -33.5t-18 -27t-27 -18.5t-33.5 -7t-33.5 7t-27 18.5t-18 27t-6.5 33.5t6.5 34t18 27.5t27 18.5t33.5 7t33.5 -7
t27 -18.5t18 -27.5t6.5 -34z" />
    <glyph glyph-name="Agrave" unicode="&#xc0;" horiz-adv-x="780" 
d="M240 690q0 15 19 15h135q26 0 45 -11.5t26 -30.5l175 -484q16 -39 32 -65.5t31.5 -43.5t30 -25.5t26.5 -12.5q19 -4 19 -17q0 -15 -19 -15h-322q-19 0 -19 15q0 10 18 19q10 5 18.5 14.5t13 24.5t5 34.5t-6.5 44.5l-19 53l-257 1l-14 -44q-7 -21 -1 -41.5t18.5 -37
t28.5 -29.5t30 -19q18 -9 18 -20q0 -15 -19 -15h-232q-19 0 -19 15q0 13 19 20q15 6 33 18.5t34.5 30t30.5 38t21 41.5l155 470q-7 13 -15 23.5t-20 15.5q-19 7 -19 18zM201 236l236 -1l-123 346zM408 760q3 -6 -2.5 -11t-11.5 0l-109 74q-21 15 -20.5 32t12.5 28t29 12
t28 -17z" />
    <glyph glyph-name="Aacute" unicode="&#xc1;" horiz-adv-x="780" 
d="M240 690q0 15 19 15h135q26 0 45 -11.5t26 -30.5l175 -484q16 -39 32 -65.5t31.5 -43.5t30 -25.5t26.5 -12.5q19 -4 19 -17q0 -15 -19 -15h-322q-19 0 -19 15q0 10 18 19q10 5 18.5 14.5t13 24.5t5 34.5t-6.5 44.5l-19 53l-257 1l-14 -44q-7 -21 -1 -41.5t18.5 -37
t28.5 -29.5t30 -19q18 -9 18 -20q0 -15 -19 -15h-232q-19 0 -19 15q0 13 19 20q15 6 33 18.5t34.5 30t30.5 38t21 41.5l155 470q-7 13 -15 23.5t-20 15.5q-19 7 -19 18zM201 236l236 -1l-123 346zM393 878q11 18 28 17t28.5 -12t12.5 -28t-20 -32l-109 -74q-7 -5 -12.5 0
t-1.5 11z" />
    <glyph glyph-name="Acircumflex" unicode="&#xc2;" horiz-adv-x="780" 
d="M240 690q0 15 19 15h135q26 0 45 -11.5t26 -30.5l175 -484q16 -39 32 -65.5t31.5 -43.5t30 -25.5t26.5 -12.5q19 -4 19 -17q0 -15 -19 -15h-322q-19 0 -19 15q0 10 18 19q10 5 18.5 14.5t13 24.5t5 34.5t-6.5 44.5l-19 53l-257 1l-14 -44q-7 -21 -1 -41.5t18.5 -37
t28.5 -29.5t30 -19q18 -9 18 -20q0 -15 -19 -15h-232q-19 0 -19 15q0 13 19 20q15 6 33 18.5t34.5 30t30.5 38t21 41.5l155 470q-7 13 -15 23.5t-20 15.5q-19 7 -19 18zM201 236l236 -1l-123 346zM336 874q0 2 3 2q0 1 2 1q1 0 1 0.5t1 0.5h2h49h3q7 -2 8 -4l71 -104
q3 -5 0.5 -8.5t-7 -4.5t-10 -0.5t-7.5 3.5l-82 74l-81 -74q-3 -3 -8 -3.5t-10 0.5t-7 4.5t1 8.5z" />
    <glyph glyph-name="Atilde" unicode="&#xc3;" horiz-adv-x="780" 
d="M263 769q-5 6 1 12q25 23 44 31t35 8q15 0 28 -6t24.5 -12.5t23 -12.5t24.5 -6q19 0 38 16q6 5 11 0t0 -9q-28 -26 -50 -35.5t-41 -9.5q-17 0 -30.5 6t-26 12.5t-23.5 12.5t-22 6q-7 0 -13.5 -2.5t-14.5 -10.5q-5 -5 -8 0zM240 690q0 15 19 15h135q26 0 45 -11.5
t26 -30.5l175 -484q16 -39 32 -65.5t32 -43.5t30.5 -25.5t26.5 -12.5q18 -5 18 -17q0 -15 -19 -15h-322q-19 0 -19 15q0 10 18 19q20 10 32 40t-3 81l-18 50l-257 1l-14 -44q-7 -21 -1 -41.5t18.5 -37t28.5 -29.5t30 -19q18 -8 18 -20q0 -15 -19 -15h-231q-20 0 -20 15
q0 13 19 20q15 6 33 18.5t34.5 30t30.5 38t21 41.5l156 470q-7 13 -15.5 23.5t-20.5 15.5q-19 7 -19 18zM437 236l-123 345l-113 -345h236z" />
    <glyph glyph-name="Adieresis" unicode="&#xc4;" horiz-adv-x="780" 
d="M240 690q0 15 19 15h135q26 0 45 -11.5t26 -30.5l175 -484q16 -39 32 -65.5t31.5 -43.5t30 -25.5t26.5 -12.5q19 -4 19 -17q0 -15 -19 -15h-322q-19 0 -19 15q0 10 18 19q10 5 18.5 14.5t13 24.5t5 34.5t-6.5 44.5l-19 53l-257 1l-14 -44q-7 -21 -1 -41.5t18.5 -37
t28.5 -29.5t30 -19q18 -9 18 -20q0 -15 -19 -15h-232q-19 0 -19 15q0 13 19 20q15 6 33 18.5t34.5 30t30.5 38t21 41.5l155 470q-7 13 -15 23.5t-20 15.5q-19 7 -19 18zM201 236l236 -1l-123 346zM303 755q-25 0 -37.5 15t-12.5 32.5t12.5 32.5t37.5 15t37 -15t12 -32.5
t-12 -32.5t-37 -15zM421 755q-25 0 -37.5 15t-12.5 32.5t12.5 32.5t37.5 15q24 0 36.5 -15t12.5 -32.5t-12.5 -32.5t-36.5 -15z" />
    <glyph glyph-name="Aring" unicode="&#xc5;" horiz-adv-x="780" 
d="M240 690q0 15 19 15h47q-25 12 -37 33.5t-12 45.5q0 17 6.5 33.5t19.5 29t33 20.5t46 8t45.5 -8t32 -20.5t19 -29t6.5 -33.5q0 -25 -13.5 -47t-39.5 -34q40 -8 53 -40l175 -484q16 -39 32 -65.5t31.5 -43.5t30 -25.5t26.5 -12.5q19 -4 19 -17q0 -15 -19 -15h-322
q-19 0 -19 15q0 10 18 19q10 5 18.5 14.5t13 24.5t5 34.5t-6.5 44.5l-19 53l-257 1l-14 -44q-7 -21 -1 -41.5t18.5 -37t28.5 -29.5t30 -19q18 -9 18 -20q0 -15 -19 -15h-232q-19 0 -19 15q0 13 19 20q15 6 33 18.5t34.5 30t30.5 38t21 41.5l155 470q-7 13 -15 23.5t-20 15.5
q-19 7 -19 18zM201 236l236 -1l-123 346zM363 716q15 0 25 10t15 25t5 33t-5 33t-15 25t-25 10q-16 0 -26.5 -10t-16 -25t-5.5 -33t5.5 -33t16 -25t26.5 -10z" />
    <glyph glyph-name="AE" unicode="&#xc6;" horiz-adv-x="1011" 
d="M978 14q-3 -14 -20 -14h-493q-20 0 -20 15q0 10 19 19q20 9 35.5 42t15.5 103v26l-267 1l-28 -44q-12 -20 -10.5 -40t11 -37t23.5 -30.5t28 -19.5q18 -8 18 -20q0 -15 -19 -15h-251q-20 0 -20 15q0 12 19 20q15 6 37 19.5t45 31t43.5 37.5t32.5 40l307 487q-10 12 -20 16
q-19 9 -19 19q0 15 20 15h468q17 0 19 -14l22 -158q1 -10 -13 -14q-15 -2 -18 10q-5 15 -19.5 38.5t-37.5 46.5t-55 39.5t-72 16.5h-63v-297h54q24 0 46.5 5.5t40 18t29 32.5t13.5 49q0 11 15 11q7 0 11.5 -3t3.5 -8q-6 -123 0 -244q1 -5 -3.5 -8.5t-11.5 -3.5q-15 0 -15 12
q-2 29 -13.5 49t-29 32t-40 17.5t-46.5 5.5h-54v-298h64q42 0 78 16.5t64.5 41t48.5 52.5t29 51q4 11 18 9q15 0 13 -12zM515 236v285q0 29 -3 50.5t-8 38.5l-237 -374h248z" />
    <glyph glyph-name="Ccedilla" unicode="&#xc7;" horiz-adv-x="691" 
d="M649 128q-14 -28 -38.5 -53t-55.5 -43.5t-66 -29.5t-69 -11q-30 0 -57 3l-19 -26q38 -2 57 -18t19 -34q0 -26 -25.5 -38t-55.5 -12q-27 0 -49.5 9.5t-22.5 26.5q0 16 8.5 24t18.5 8q8 0 15 -6.5t7 -19.5q0 -16 5 -22.5t13 -6.5q11 0 22.5 11.5t11.5 27.5q0 14 -8 25.5
t-25 11.5h-6q-11 0 -9 9l11 35q-73 13 -127.5 47.5t-91 82t-54.5 104.5t-18 116q0 67 23.5 131.5t71 115t119 81.5t166.5 31q51 0 93 -15.5t71.5 -41.5t45.5 -60t16 -71q0 -19 -5.5 -37t-17.5 -32t-30.5 -22.5t-44.5 -8.5q-36 0 -56 21.5t-20 53.5q0 20 3.5 41t6.5 41
t3.5 37t-5.5 30t-20 20.5t-40 7.5q-45 0 -80 -25t-59 -65.5t-37 -93t-13 -107.5q0 -58 15 -114t46 -100t79 -71t115 -27q24 0 47 6t42.5 16.5t34 24.5t22.5 30q5 10 13 1q9 -9 4 -19z" />
    <glyph glyph-name="Egrave" unicode="&#xc8;" horiz-adv-x="571" 
d="M357 760q3 -6 -2.5 -11t-11.5 0l-109 75q-16 10 -19.5 22.5t1.5 23.5t15.5 18t22.5 7q8 0 15.5 -4t12.5 -13zM538 14q-3 -14 -20 -14h-493q-20 0 -20 15q0 10 19 19q20 9 35.5 42t15.5 103v342q0 35 -4.5 60.5t-11.5 42.5t-16 27t-19 15q-19 9 -19 19q0 15 20 15h468
q17 0 19 -14l22 -158q1 -10 -13 -14q-15 -2 -18 10q-5 15 -19.5 38.5t-37.5 46.5t-55 39.5t-72 16.5h-63v-297h54q24 0 46.5 5.5t40 18t29 32.5t13.5 49q0 11 15 11q7 0 11.5 -3t3.5 -8q-6 -123 0 -244q1 -5 -3.5 -8.5t-11.5 -3.5q-15 0 -15 12q-2 29 -13.5 49t-29 32
t-40 17.5t-46.5 5.5h-54v-298h64q42 0 78 16.5t64.5 41t48.5 52.5t29 51q4 11 18 9q15 0 13 -12z" />
    <glyph glyph-name="Eacute" unicode="&#xc9;" horiz-adv-x="571" 
d="M289 878q5 9 12.5 13t15.5 4q12 0 22.5 -7t15.5 -18t1.5 -23.5t-19.5 -22.5l-108 -75q-7 -5 -12.5 0t-2.5 11zM538 14q-3 -14 -20 -14h-493q-20 0 -20 15q0 10 19 19q20 9 35.5 42t15.5 103v342q0 35 -4.5 60.5t-11.5 42.5t-16 27t-19 15q-19 9 -19 19q0 15 20 15h468
q17 0 19 -14l22 -158q1 -10 -13 -14q-15 -2 -18 10q-5 15 -19.5 38.5t-37.5 46.5t-55 39.5t-72 16.5h-63v-297h54q24 0 46.5 5.5t40 18t29 32.5t13.5 49q0 11 15 11q7 0 11.5 -3t3.5 -8q-6 -123 0 -244q1 -5 -3.5 -8.5t-11.5 -3.5q-15 0 -15 12q-2 29 -13.5 49t-29 32
t-40 17.5t-46.5 5.5h-54v-298h64q42 0 78 16.5t64.5 41t48.5 52.5t29 51q4 11 18 9q15 0 13 -12z" />
    <glyph glyph-name="Ecircumflex" unicode="&#xca;" horiz-adv-x="571" 
d="M391 770q5 -7 0 -10t-12 -3q-9 0 -12 3l-81 74l-82 -74q-3 -3 -11 -3q-7 0 -12.5 3t-0.5 10l71 104q2 4 10 4h50q6 0 10 -4zM538 14q-3 -14 -20 -14h-493q-20 0 -20 15q0 10 19 19q20 9 35.5 42t15.5 103v342q0 35 -4.5 60.5t-11.5 42.5t-16 27t-19 15q-19 9 -19 19
q0 15 20 15h468q17 0 19 -14l22 -158q1 -10 -13 -14q-15 -2 -18 10q-5 15 -19.5 38.5t-37.5 46.5t-55 39.5t-72 16.5h-63v-297h54q24 0 46.5 5.5t40 18t29 32.5t13.5 49q0 11 15 11q7 0 11.5 -3t3.5 -8q-6 -123 0 -244q1 -5 -3.5 -8.5t-11.5 -3.5q-15 0 -15 12
q-2 29 -13.5 49t-29 32t-40 17.5t-46.5 5.5h-54v-298h64q42 0 78 16.5t64.5 41t48.5 52.5t29 51q4 11 18 9q15 0 13 -12z" />
    <glyph glyph-name="Edieresis" unicode="&#xcb;" horiz-adv-x="571" 
d="M247 748q-25 0 -37.5 15t-12.5 32.5t12.5 32.5t37.5 15t37.5 -15t12.5 -32.5t-12.5 -32.5t-37.5 -15zM365 748q-24 0 -36.5 15t-12.5 32.5t12.5 32.5t36.5 15t36.5 -15t12.5 -32.5t-12.5 -32.5t-36.5 -15zM538 14q-3 -14 -20 -14h-493q-20 0 -20 15q0 10 19 19
q20 9 35.5 42t15.5 103v342q0 35 -4.5 60.5t-11.5 42.5t-16 27t-19 15q-19 9 -19 19q0 15 20 15h468q17 0 19 -14l22 -158q1 -10 -13 -14q-15 -2 -18 10q-5 15 -19.5 38.5t-37.5 46.5t-55 39.5t-72 16.5h-63v-297h54q24 0 46.5 5.5t40 18t29 32.5t13.5 49q0 11 15 11
q7 0 11.5 -3t3.5 -8q-6 -123 0 -244q1 -5 -3.5 -8.5t-11.5 -3.5q-15 0 -15 12q-2 29 -13.5 49t-29 32t-40 17.5t-46.5 5.5h-54v-298h64q42 0 78 16.5t64.5 41t48.5 52.5t29 51q4 11 18 9q15 0 13 -12z" />
    <glyph glyph-name="Igrave" unicode="&#xcc;" horiz-adv-x="332" 
d="M5 15q0 10 19 19q20 9 35.5 42t15.5 103v355q-2 63 -17.5 93t-33.5 39q-19 9 -19 19q0 15 20 15h281q20 0 20 -15q0 -10 -19 -19t-34 -39t-17 -93v-355q0 -70 15.5 -103t35.5 -42q19 -9 19 -19q0 -15 -20 -15h-281q-20 0 -20 15zM237 760q4 -6 -1.5 -11t-12.5 0l-109 74
q-21 15 -20 32t12.5 28t28.5 12t28 -17z" />
    <glyph glyph-name="Iacute" unicode="&#xcd;" horiz-adv-x="332" 
d="M5 15q0 10 19 19q20 9 35.5 42t15.5 103v355q-2 63 -17.5 93t-33.5 39q-19 9 -19 19q0 15 20 15h281q20 0 20 -15q0 -10 -19 -19t-34 -39t-17 -93v-355q0 -70 15.5 -103t35.5 -42q19 -9 19 -19q0 -15 -20 -15h-281q-20 0 -20 15zM169 878q11 18 28 17t28.5 -12t12.5 -28
t-20 -32l-109 -74q-7 -5 -12.5 0t-1.5 11z" />
    <glyph glyph-name="Icircumflex" unicode="&#xce;" horiz-adv-x="332" 
d="M5 15q0 10 19 19q20 9 35.5 42t15.5 103v355q-2 63 -17.5 93t-33.5 39q-19 9 -19 19q0 15 20 15h281q20 0 20 -15q0 -10 -19 -19q-20 -9 -35.5 -42t-15.5 -103v-342q0 -70 15.5 -103t35.5 -42q19 -9 19 -19q0 -15 -20 -15h-281q-20 0 -20 15zM131 874q4 4 10 4h1h50
q7 0 9 -4l70 -104q4 -5 1.5 -8.5t-7 -4.5t-10 -0.5t-7.5 3.5l-82 74l-82 -74q-2 -3 -7.5 -3.5t-10 0.5t-6.5 4.5t1 8.5z" />
    <glyph glyph-name="Idieresis" unicode="&#xcf;" horiz-adv-x="332" 
d="M5 15q0 10 19 19q20 9 35.5 42t15.5 103v342q0 70 -15.5 103t-35.5 42q-19 9 -19 19q0 15 20 15h281q20 0 20 -15q0 -10 -19 -19t-34 -39t-17 -93v-355q0 -70 15.5 -103t35.5 -42q19 -9 19 -19q0 -15 -20 -15h-281q-20 0 -20 15zM108 744q-25 0 -37.5 15t-12.5 32.5
t12.5 32.5t37.5 15t37.5 -15t12.5 -32.5t-12.5 -32.5t-37.5 -15zM226 744q-24 0 -36.5 15t-12.5 32.5t12.5 32.5t36.5 15t36.5 -15t12.5 -32.5t-12.5 -32.5t-36.5 -15z" />
    <glyph glyph-name="Eth" unicode="&#xd0;" horiz-adv-x="704" 
d="M5 685q0 15 20 15h262q94 0 165 -30t118.5 -79.5t71 -112t23.5 -128.5t-23.5 -128.5t-71 -112t-118.5 -79.5t-166 -30h-261q-20 0 -20 15q0 10 19 19q20 9 35.5 42t15.5 103v130h-36q-13 0 -13 10v17q0 10 13 10h36v175q0 35 -4.5 60.5t-11.5 42.5t-16 27t-19 15
q-19 9 -19 19zM287 30q48 0 84.5 27.5t60.5 72.5t36 102.5t12 117.5t-12 117.5t-36 102.5t-60.5 72.5t-84.5 27.5h-31v-324h52q13 0 13 -10v-17q0 -10 -13 -10h-52v-279h31z" />
    <glyph glyph-name="Ntilde" unicode="&#xd1;" horiz-adv-x="749" 
d="M251 779q-4 6 1 11q25 23 44 31.5t35 8.5q15 0 28 -6t24.5 -13t23 -13t24.5 -6q19 0 38 16q6 5 11 0q5 -4 0 -9q-28 -25 -50 -34.5t-40 -9.5q-17 0 -31 6t-26 12.5t-23 12.5t-22 6q-15 0 -29 -14q-5 -5 -8 1zM652 13q0 -13 -17 -13q-19 0 -27 11l-475 552v-368
q0 -30 8.5 -56.5t21 -47.5t27.5 -35.5t29 -20.5q19 -10 18 -20q0 -15 -19 -15h-195q-20 0 -20 15q0 13 19 19q30 13 53 57t23 105v325q0 35 -5.5 60.5t-15 42.5t-21.5 27t-25 15q-24 8 -24 19q0 15 25 15h214l371 -420v225q0 30 -8.5 56.5t-21 47.5t-28 35.5t-28.5 20.5
q-18 7 -18 20q0 15 19 15h194q20 0 20 -15q0 -12 -19 -20q-15 -6 -28.5 -20.5t-24 -36t-16.5 -48t-6 -56.5v-491z" />
    <glyph glyph-name="Ograve" unicode="&#xd2;" horiz-adv-x="785" 
d="M392 -12q-88 0 -153.5 31.5t-109.5 82.5t-66 116t-22 133t22 133.5t66 116.5t110 82.5t154 31.5t153.5 -31.5t109.5 -82.5t66 -116.5t22 -133.5t-22 -133.5t-66 -116.5t-110 -82t-154 -31zM393 23q42 0 74 28t53 74.5t31.5 105t10.5 120t-10.5 120.5t-32 105.5t-53 74.5
t-74.5 28q-42 0 -74 -28t-53 -74.5t-31.5 -105.5t-10.5 -120.5t10.5 -120t32 -105t53 -74.5t74.5 -28zM423 763q4 -5 -1.5 -10.5t-12.5 -0.5l-108 75q-21 15 -20.5 32t12 28t28.5 12t28 -17z" />
    <glyph glyph-name="Oacute" unicode="&#xd3;" horiz-adv-x="785" 
d="M392 -12q-88 0 -153.5 31.5t-109.5 82.5t-66 116t-22 133t22 133.5t66 116.5t110 82.5t154 31.5t153.5 -31.5t109.5 -82.5t66 -116.5t22 -133.5t-22 -133.5t-66 -116.5t-110 -82t-154 -31zM393 23q42 0 74 28t53 74.5t31.5 105t10.5 120t-10.5 120.5t-32 105.5t-53 74.5
t-74.5 28q-42 0 -74 -28t-53 -74.5t-31.5 -105.5t-10.5 -120.5t10.5 -120t32 -105t53 -74.5t74.5 -28zM419 884q11 18 28 17t29 -12t12.5 -28t-20.5 -32l-109 -75q-6 -5 -12 0.5t-2 10.5z" />
    <glyph glyph-name="Ocircumflex" unicode="&#xd4;" horiz-adv-x="785" 
d="M392 -12q-88 0 -153.5 31.5t-109.5 82.5t-66 116t-22 133t22 133.5t66 116.5t110 82.5t154 31.5t153.5 -31.5t109.5 -82.5t66 -116.5t22 -133.5t-22 -133.5t-66 -116.5t-110 -82t-154 -31zM393 23q42 0 74 28t53 74.5t31.5 105t10.5 120t-10.5 120.5t-32 105.5t-53 74.5
t-74.5 28q-42 0 -74 -28t-53 -74.5t-31.5 -105.5t-10.5 -120.5t10.5 -120t32 -105t53 -74.5t74.5 -28zM358 874q2 4 9 4h51q6 0 10 -4l70 -104q3 -5 1 -8.5t-7 -4.5t-10 -0.5t-8 3.5l-82 74l-81 -74q-2 -3 -7.5 -3.5t-10 0.5t-7 4.5t0.5 8.5z" />
    <glyph glyph-name="Otilde" unicode="&#xd5;" horiz-adv-x="785" 
d="M289 779q-3 6 2 11q25 23 44 31.5t35 8.5q15 0 28 -6t24.5 -13t23 -13t24.5 -6q19 0 38 16q6 5 11 0q5 -4 0 -9q-28 -25 -50 -34.5t-40 -9.5q-17 0 -31 6t-26 12.5t-23 12.5t-22 6q-15 0 -29 -14q-5 -5 -9 1zM392 -12q-88 0 -153.5 31.5t-109.5 82.5t-66 116t-22 133
t22 133.5t66 116.5t110 82.5t154 31.5t153.5 -31.5t109.5 -82.5t66 -116.5t22 -133.5t-22 -133t-66 -116t-110 -82.5t-154 -31.5zM393 23q42 0 74 28t53 74.5t31.5 105t10.5 120t-10.5 120.5t-32 105.5t-53 74.5t-74.5 28q-42 0 -74 -28t-53 -74.5t-31.5 -105.5
t-10.5 -120.5t10.5 -120t32 -105t53 -74.5t74.5 -28z" />
    <glyph glyph-name="Odieresis" unicode="&#xd6;" horiz-adv-x="785" 
d="M392 -12q-88 0 -153.5 31.5t-109.5 82.5t-66 116t-22 133t22 133.5t66 116.5t110 82.5t154 31.5t153.5 -31.5t109.5 -82.5t66 -116.5t22 -133.5t-22 -133.5t-66 -116.5t-110 -82t-154 -31zM393 23q42 0 74 28t53 74.5t31.5 105t10.5 120t-10.5 120.5t-32 105.5t-53 74.5
t-74.5 28q-42 0 -74 -28t-53 -74.5t-31.5 -105.5t-10.5 -120.5t10.5 -120t32 -105t53 -74.5t74.5 -28zM331 743q-25 0 -37.5 15t-12.5 32.5t12.5 32.5t37.5 15t37.5 -15t12.5 -32.5t-12.5 -32.5t-37.5 -15zM449 743q-24 0 -36.5 15t-12.5 32.5t12.5 32.5t36.5 15t36.5 -15
t12.5 -32.5t-12.5 -32.5t-36.5 -15z" />
    <glyph glyph-name="Oslash" unicode="&#xd8;" horiz-adv-x="785" 
d="M392 -12q-54 0 -99.5 12t-83.5 34l-18 -28q-5 -6 -11 -6h-22q-16 0 -7 12l28 42q-69 53 -103.5 132t-34.5 165q0 68 22 133.5t66 116.5t110 82.5t154 31.5q55 0 100.5 -12.5t83.5 -35.5l17 27q4 6 11 6h22q16 0 7 -12l-27 -41q69 -52 103 -131.5t34 -164.5
q0 -68 -22 -133t-66 -116t-110 -82.5t-154 -31.5zM519 578q-21 46 -53 73.5t-74 27.5q-39 0 -69.5 -24.5t-51.5 -66t-33 -94.5t-14.5 -110.5t4 -114.5t22.5 -105zM393 23q39 0 69.5 24.5t51.5 65.5t32.5 94t14.5 110t-3.5 114t-22.5 105l-268 -413q21 -45 52.5 -72.5
t73.5 -27.5z" />
    <glyph glyph-name="Ugrave" unicode="&#xd9;" horiz-adv-x="669" 
d="M450 665q-19 7 -19 20q0 15 20 15h195q19 0 19 -15q0 -13 -18 -20q-15 -6 -29 -20.5t-24.5 -36t-16.5 -48t-6 -56.5v-326q0 -68 -36.5 -111.5t-92 -64t-119.5 -19t-119.5 24t-92 64.5t-36.5 102v360q-2 63 -17.5 93t-33.5 39q-19 9 -19 19q0 15 20 15h281q20 0 20 -15
q0 -10 -19 -19t-34 -39t-17 -93v-360q0 -51 20.5 -83t52 -46.5t67.5 -12t67.5 20t52 49t20.5 76.5v327q0 30 -8.5 56.5t-21 47.5t-28 35.5t-28.5 20.5zM406 760q3 -6 -2.5 -11t-11.5 0l-109 74q-21 15 -20.5 32t12 28t28.5 12t28 -17z" />
    <glyph glyph-name="Uacute" unicode="&#xda;" horiz-adv-x="669" 
d="M450 665q-19 7 -19 20q0 15 20 15h195q19 0 19 -15q0 -13 -18 -20q-15 -6 -29 -20.5t-24.5 -36t-16.5 -48t-6 -56.5v-326q0 -68 -36.5 -111.5t-92 -64t-119.5 -19t-119.5 24t-92 64.5t-36.5 102v360q-2 63 -17.5 93t-33.5 39q-19 9 -19 19q0 15 20 15h281q20 0 20 -15
q0 -10 -19 -19t-34 -39t-17 -93v-360q0 -51 20.5 -83t52 -46.5t67.5 -12t67.5 20t52 49t20.5 76.5v327q0 30 -8.5 56.5t-21 47.5t-28 35.5t-28.5 20.5zM402 876q11 18 28 17t28.5 -12t12.5 -28t-20 -31l-109 -75q-7 -5 -12.5 0t-1.5 11z" />
    <glyph glyph-name="Ucircumflex" unicode="&#xdb;" horiz-adv-x="669" 
d="M450 665q-19 7 -19 20q0 15 20 15h195q19 0 19 -15q0 -13 -18 -20q-15 -6 -29 -20.5t-24.5 -36t-16.5 -48t-6 -56.5v-326q0 -68 -36.5 -111.5t-92 -64t-119.5 -19t-119.5 24t-92 64.5t-36.5 102v360q-2 63 -17.5 93t-33.5 39q-19 9 -19 19q0 15 20 15h281q20 0 20 -15
q0 -10 -19 -19q-20 -9 -35.5 -42t-15.5 -103v-347q0 -51 20.5 -83t52 -46.5t67.5 -12t67.5 20t52 49t20.5 76.5v327q0 30 -8.5 56.5t-21 47.5t-28 35.5t-28.5 20.5zM343 874q1 2 8 4h2h49h2l9 -4l70 -104q3 -5 1 -8.5t-7 -4.5t-10 -0.5t-8 3.5l-82 74l-81 -74
q-2 -3 -7.5 -3.5t-10 0.5t-7 4.5t0.5 8.5z" />
    <glyph glyph-name="Udieresis" unicode="&#xdc;" horiz-adv-x="669" 
d="M450 665q-19 7 -19 20q0 15 20 15h195q19 0 19 -15q0 -13 -18 -20q-15 -6 -29 -20.5t-24.5 -36t-16.5 -48t-6 -56.5v-326q0 -68 -36.5 -111.5t-92 -64t-119.5 -19t-119.5 24t-92 64.5t-36.5 102v360q-2 63 -17.5 93t-33.5 39q-19 9 -19 19q0 15 20 15h281q20 0 20 -15
q0 -10 -19 -19q-20 -9 -35.5 -42t-15.5 -103v-347q0 -51 20.5 -83t52 -46.5t67.5 -12t67.5 20t52 49t20.5 76.5v327q0 30 -8.5 56.5t-21 47.5t-28 35.5t-28.5 20.5zM313 745q-25 0 -37.5 15t-12.5 33t12.5 33t37.5 15t37.5 -15t12.5 -33t-12.5 -33t-37.5 -15zM431 745
q-24 0 -36.5 15t-12.5 33t12.5 33t36.5 15q25 0 37 -15t12 -33t-12 -33t-37 -15z" />
    <glyph glyph-name="Yacute" unicode="&#xdd;" horiz-adv-x="723" 
d="M203 15q0 10 19 19q17 8 31.5 33.5t18.5 78.5v136l-125 239q-39 75 -71.5 107t-56.5 39q-19 6 -19 18q0 15 19 15h322q19 0 19 -15q0 -11 -18 -19q-11 -6 -21 -18t-13.5 -30t0.5 -42.5t21 -54.5l105 -191l94 208q9 21 5.5 41t-14 37t-26 30t-28.5 19q-18 7 -18 20
q0 15 19 15h237q19 0 19 -15q0 -13 -18 -20q-15 -6 -35 -19t-39.5 -30.5t-36.5 -37.5t-26 -41l-113 -250v-122q2 -63 17 -93t34 -38q19 -9 19 -19q0 -15 -19 -15h-282q-20 0 -20 15zM427 878q11 18 28 17t28.5 -12t12 -28t-20.5 -32l-108 -74q-7 -5 -12.5 0t-2.5 11z" />
    <glyph glyph-name="Thorn" unicode="&#xde;" horiz-adv-x="646" 
d="M5 15q0 10 19 19q20 9 35.5 42t15.5 103v355q-2 63 -17.5 93t-33.5 39q-19 9 -19 19q0 15 20 15h281q20 0 20 -15q0 -10 -19 -19q-14 -7 -27 -26.5t-20 -56.5h56q94 0 151.5 -14.5t89 -37.5t42 -53t10.5 -60q0 -41 -31 -82t-81.5 -77t-113.5 -64t-127 -43q4 -56 18.5 -83
t32.5 -35q19 -9 19 -19q0 -15 -20 -15h-281q-20 0 -20 15zM256 548v-14v-344q34 15 63 38t50.5 51.5t33.5 59.5t12 63q0 30 -8.5 56.5t-26 46.5t-43 31.5t-58.5 11.5h-23z" />
    <glyph glyph-name="germandbls" unicode="&#xdf;" horiz-adv-x="742" 
d="M15 0q-16 2 -16 15q0 10 19 19q20 9 35.5 42t15.5 103v356q0 46 23 80.5t60 57t84 34t95 11.5q44 0 86 -9.5t74.5 -29t52 -48t19.5 -66.5q0 -28 -15 -49.5t-37.5 -37t-49 -26t-49 -18l-37.5 -12.5t-15 -10t24.5 -10t61 -13.5t79.5 -22t79.5 -37t61 -58.5t24.5 -85
t-24 -86.5t-60.5 -60.5t-81.5 -36t-87 -12q-28 0 -53 8.5t-44.5 23t-31 33.5t-11.5 39q0 18 5.5 32t15.5 23t22 14t25 5q23 0 42.5 -17.5t19.5 -55.5q0 -13 -7 -26.5t-11.5 -25t-2 -18.5t20.5 -7q11 0 23 6.5t22.5 24t17 48t6.5 77.5q0 40 -13 70.5t-32 53.5t-41.5 40
t-41.5 29.5t-32 22.5t-13 20q0 15 13 26.5t28.5 27t28.5 39t13 62.5q0 59 -22.5 88.5t-51.5 29.5q-30 0 -56 -35.5t-26 -106.5v-468q0 -34 -20 -54t-53 -20h-162z" />
    <glyph glyph-name="agrave" unicode="&#xe0;" horiz-adv-x="589" 
d="M580 28q-13 -12 -38.5 -23.5t-65.5 -11.5q-43 0 -68 9.5t-38 23t-17.5 28.5t-5.5 25l-1 9q-17 -37 -47 -60.5t-65.5 -34t-72.5 -8.5t-67 17t-49 42.5t-19 67.5q0 42 22.5 69t56 45t72 30.5t71 25.5t53 31t17.5 47q-2 12 -6.5 31t-15.5 37t-29 31.5t-46 13.5
q-31 0 -36.5 -11.5t0 -29.5t15.5 -39.5t10 -40.5q0 -29 -22.5 -46t-49.5 -18t-49.5 16t-22.5 56q0 27 12.5 53t34.5 46.5t53 33t67 12.5q55 0 101 -10.5t80 -34t55 -60t27 -87.5l24 -202q3 -26 6 -41t20 -15q11 0 23 6q8 5 12 4.5t6 -7.5q2 -8 0.5 -16.5t-7.5 -13.5z
M212 112q0 -26 17 -35.5t39.5 -4.5t43 24.5t28.5 52.5l-15 143q-13 -27 -32 -45t-37 -36t-31 -40.5t-13 -58.5zM344 572q3 -6 -2.5 -11t-11.5 -1l-109 75q-21 15 -20.5 32t12.5 28t29 12t28 -17z" />
    <glyph glyph-name="aacute" unicode="&#xe1;" horiz-adv-x="589" 
d="M580 28q-13 -12 -38.5 -23.5t-65.5 -11.5q-43 0 -68 9.5t-38 23t-17.5 28.5t-5.5 25l-1 9q-17 -37 -47 -60.5t-65.5 -34t-72.5 -8.5t-67 17t-49 42.5t-19 67.5q0 42 22.5 69t56 45t72 30.5t71 25.5t53 31t17.5 47q-2 12 -6.5 31t-15.5 37t-29 31.5t-46 13.5
q-31 0 -36.5 -11.5t0 -29.5t15.5 -39.5t10 -40.5q0 -29 -22.5 -46t-49.5 -18t-49.5 16t-22.5 56q0 27 12.5 53t34.5 46.5t53 33t67 12.5q55 0 101 -10.5t80 -34t55 -60t27 -87.5l24 -202q3 -26 6 -41t20 -15q11 0 23 6q8 5 12 4.5t6 -7.5q2 -8 0.5 -16.5t-7.5 -13.5z
M212 112q0 -26 17 -35.5t39.5 -4.5t43 24.5t28.5 52.5l-15 143q-13 -27 -32 -45t-37 -36t-31 -40.5t-13 -58.5zM291 684q11 18 28 17t29 -12t12.5 -28t-20.5 -32l-109 -75q-6 -5 -11.5 0.5t-2.5 10.5z" />
    <glyph glyph-name="acircumflex" unicode="&#xe2;" horiz-adv-x="589" 
d="M580 28q-13 -12 -38.5 -23.5t-65.5 -11.5q-43 0 -68 9.5t-38 23t-17.5 28.5t-5.5 25l-1 9q-17 -37 -47 -60.5t-65.5 -34t-72.5 -8.5t-67 17t-49 42.5t-19 67.5q0 42 22.5 69t56 45t72 30.5t71 25.5t53 31t17.5 47q-2 12 -6.5 31t-15.5 37t-29 31.5t-46 13.5
q-31 0 -36.5 -11.5t0 -29.5t15.5 -39.5t10 -40.5q0 -29 -22.5 -46t-49.5 -18t-49.5 16t-22.5 56q0 27 12.5 53t34.5 46.5t53 33t67 12.5q55 0 101 -10.5t80 -34t55 -60t27 -87.5l24 -202q3 -26 6 -41t20 -15q11 0 23 6q8 5 12 4.5t6 -7.5q2 -8 0.5 -16.5t-7.5 -13.5z
M212 112q0 -26 17 -35.5t39.5 -4.5t43 24.5t28.5 52.5l-15 143q-13 -27 -32 -45t-37 -36t-31 -40.5t-13 -58.5zM252 667l8 4h3h48h2q7 0 9 -4l70 -105q4 -5 1.5 -8t-7 -4t-10 -0.5t-7.5 2.5l-82 75l-82 -75q-2 -2 -7.5 -2.5t-10 0.5t-6.5 4t1 8z" />
    <glyph glyph-name="atilde" unicode="&#xe3;" horiz-adv-x="589" 
d="M580 28q-13 -12 -38.5 -23.5t-65.5 -11.5q-43 0 -68 9.5t-38 23t-17.5 28.5t-5.5 25l-1 9q-17 -37 -47 -60.5t-65.5 -34t-72.5 -8.5t-67 17t-49 42.5t-19 67.5q0 42 22.5 69t56 45t72 30.5t71 25.5t53 31t17.5 47q-2 12 -6.5 31t-15.5 37t-29 31.5t-46 13.5
q-31 0 -36.5 -11.5t0 -29.5t15.5 -39.5t10 -40.5q0 -29 -22.5 -46t-49.5 -18t-49.5 16t-22.5 56q0 27 12.5 53t34.5 46.5t53 33t67 12.5q55 0 101 -10.5t80 -34t55 -60t27 -87.5l24 -202q3 -26 6 -41t20 -15q11 0 23 6q8 5 12 4.5t6 -7.5q2 -8 0.5 -16.5t-7.5 -13.5z
M212 112q0 -26 17 -35.5t39.5 -4.5t43 24.5t28.5 52.5l-15 143q-13 -27 -32 -45t-37 -36t-31 -40.5t-13 -58.5zM176 585q-4 6 1 11q29 27 51.5 34.5t40 4t32 -12.5t29 -16t29.5 -7t35 16q7 3 11 -1q5 -4 0 -9q-31 -29 -56 -37.5t-44.5 -6t-35.5 11.5t-30 16.5t-27.5 8
t-27.5 -13.5q-5 -5 -8 1z" />
    <glyph glyph-name="adieresis" unicode="&#xe4;" horiz-adv-x="589" 
d="M580 28q-13 -12 -38.5 -23.5t-65.5 -11.5q-43 0 -68 9.5t-38 23t-17.5 28.5t-5.5 25l-1 9q-17 -37 -47 -60.5t-65.5 -34t-72.5 -8.5t-67 17t-49 42.5t-19 67.5q0 42 22.5 69t56 45t72 30.5t71 25.5t53 31t17.5 47q-2 12 -6.5 31t-15.5 37t-29 31.5t-46 13.5
q-31 0 -36.5 -11.5t0 -29.5t15.5 -39.5t10 -40.5q0 -29 -22.5 -46t-49.5 -18t-49.5 16t-22.5 56q0 27 12.5 53t34.5 46.5t53 33t67 12.5q55 0 101 -10.5t80 -34t55 -60t27 -87.5l24 -202q3 -26 6 -41t20 -15q11 0 23 6q8 5 12 4.5t6 -7.5q2 -8 0.5 -16.5t-7.5 -13.5z
M212 112q0 -26 17 -35.5t39.5 -4.5t43 24.5t28.5 52.5l-15 143q-13 -27 -32 -45t-37 -36t-31 -40.5t-13 -58.5zM236 553q-25 0 -37.5 15t-12.5 32.5t12.5 32.5t37.5 15t37.5 -15t12.5 -32.5t-12.5 -32.5t-37.5 -15zM354 553q-24 0 -36.5 15t-12.5 32.5t12.5 32.5t36.5 15
t36.5 -15t12.5 -32.5t-12.5 -32.5t-36.5 -15z" />
    <glyph glyph-name="aring" unicode="&#xe5;" horiz-adv-x="589" 
d="M580 28q-13 -12 -38.5 -23.5t-65.5 -11.5q-43 0 -68 9.5t-38 23t-17.5 28.5t-5.5 25l-1 9q-17 -37 -47 -60.5t-65.5 -34t-72.5 -8.5t-67 17t-49 42.5t-19 67.5q0 42 22.5 69t56 45t72 30.5t71 25.5t53 31t17.5 47q-2 12 -6.5 31t-15.5 37t-29 31.5t-46 13.5
q-31 0 -36.5 -11.5t0 -29.5t15.5 -39.5t10 -40.5q0 -29 -22.5 -46t-49.5 -18t-49.5 16t-22.5 56q0 27 12.5 53t34.5 46.5t53 33t67 12.5q55 0 101 -10.5t80 -34t55 -60t27 -87.5l24 -202q3 -26 6 -41t20 -15q11 0 23 6q8 5 12 4.5t6 -7.5q2 -8 0.5 -16.5t-7.5 -13.5z
M279 527q-26 0 -46 7.5t-33 20.5t-19.5 29.5t-6.5 33.5t6.5 33.5t19.5 29t33 20.5t46 8t45.5 -8t32 -20.5t19 -29t6.5 -33.5t-6.5 -33.5t-19 -29.5t-32 -20.5t-45.5 -7.5zM212 112q0 -26 17 -35.5t39.5 -4.5t43 24.5t28.5 52.5l-15 143q-13 -27 -32 -45t-37 -36t-31 -40.5
t-13 -58.5zM280 550q22 0 33.5 21t11.5 46.5t-11.5 46.5t-33.5 21q-24 0 -36 -21t-12 -46.5t12 -46.5t36 -21z" />
    <glyph glyph-name="ae" unicode="&#xe6;" horiz-adv-x="829" 
d="M513 253q4 -33 14 -64t28 -54t44.5 -37t61.5 -14q20 0 38 5t32.5 13.5t24.5 18.5t14 21q1 4 7 4h1q5 -2 5 -7q-6 -34 -24 -60.5t-44.5 -45t-60.5 -28t-72 -9.5q-86 0 -142 35.5t-84 89.5q-11 -45 -39.5 -75.5t-65 -45.5t-76.5 -15.5t-73.5 13.5t-55 42.5t-21.5 71.5
q0 42 22.5 69t56 45t72.5 30.5t71.5 25.5t52.5 31t17 47h1q-2 12 -7 31t-16 37t-29 31.5t-46 13.5q-31 0 -36.5 -11.5t0 -29.5t15.5 -39.5t10 -40.5q0 -29 -22.5 -46t-49.5 -18t-49.5 16t-22.5 56q0 27 12.5 53t34.5 46.5t53 33t67 12.5q60 0 109 -13t84 -41q34 27 79 43.5
t102 16.5q47 0 83 -20.5t60.5 -50.5t37 -65.5t12.5 -65.5v-1q0 -18 -14 -29t-37 -13zM605 482q-21 0 -38.5 -16t-30 -42.5t-19 -60.5t-6.5 -70l112 6q20 3 31.5 17.5t15 35t0.5 43.5t-11.5 42t-22.5 32t-31 13zM336 172q-11 42 -8 84l-4 38q-12 -27 -31.5 -45.5t-37.5 -37
t-31 -41t-13 -58.5q0 -26 17 -35.5t39.5 -4.5t43 24.5t28.5 52.5z" />
    <glyph glyph-name="ccedilla" unicode="&#xe7;" horiz-adv-x="526" 
d="M486 146q5 -2 5 -7q-7 -38 -27 -65.5t-48.5 -44.5t-63 -25t-69.5 -8l-21 -28q38 -2 56.5 -18t18.5 -34q0 -13 -7 -22.5t-18.5 -15.5t-25.5 -9t-29 -3q-28 0 -50 9.5t-22 26.5q0 16 8.5 24t17.5 8t15.5 -6.5t6.5 -19.5q0 -16 5 -22.5t13 -6.5q11 0 22.5 11.5t11.5 27.5
q0 14 -7.5 25.5t-24.5 11.5h-6q-13 0 -9 9l11 35q-78 10 -127 51.5t-70.5 98.5t-15 120.5t39.5 117t92.5 89t145.5 35.5q42 0 74.5 -13t54.5 -35t33.5 -50.5t11.5 -58.5q0 -38 -22.5 -55.5t-49.5 -17.5q-26 0 -48 16.5t-22 49.5q0 19 7.5 42.5t9.5 44t-7 34.5t-42 14
q-30 0 -51.5 -29.5t-32.5 -73.5t-10 -96t16.5 -96t48 -73.5t84.5 -29.5q20 0 38 5t32.5 13.5t24.5 18.5t14 21q2 6 7 4h1z" />
    <glyph glyph-name="egrave" unicode="&#xe8;" horiz-adv-x="537" 
d="M378 560q3 -6 -2.5 -11t-11.5 0l-109 75q-16 10 -19.5 22.5t1.5 23.5t15.5 18t22.5 7q8 0 15.5 -4t12.5 -13zM486 146q5 -2 5 -7q-6 -34 -24 -60.5t-44.5 -45t-60.5 -28t-72 -9.5q-89 0 -146 38t-84 95.5t-24 124t35 124t93 95.5t150 38q47 0 83 -20.5t60.5 -50.5
t37 -65.5t12.5 -65.5v-1q0 -17 -14 -28.5t-37 -13.5l-235 -12q4 -33 14 -64t28 -54.5t44.5 -37.5t61.5 -14q20 0 38 5t32.5 13.5t24.5 18.5t14 21q2 6 7 4h1zM330 299q20 3 31.5 17.5t15.5 35t1 43.5t-11.5 42t-22 32t-30.5 13q-21 0 -38.5 -16t-30 -42.5t-19.5 -60.5
t-7 -70z" />
    <glyph glyph-name="eacute" unicode="&#xe9;" horiz-adv-x="537" 
d="M328 680q11 17 28 17q12 0 22.5 -7t15.5 -18t2 -23.5t-19 -23.5l-109 -75q-7 -5 -12.5 0.5t-1.5 10.5zM486 146q5 -2 5 -7q-6 -34 -24 -60.5t-44.5 -45t-60.5 -28t-72 -9.5q-89 0 -146 38t-84 95.5t-24 124t35 124t93 95.5t150 38q47 0 83 -20.5t60.5 -50.5t37 -65.5
t12.5 -65.5v-1q0 -17 -14 -28.5t-37 -13.5l-235 -12q4 -33 14 -64t28 -54.5t44.5 -37.5t61.5 -14q20 0 38 5t32.5 13.5t24.5 18.5t14 21q2 6 7 4h1zM330 299q20 3 31.5 17.5t15.5 35t1 43.5t-11.5 42t-22 32t-30.5 13q-21 0 -38.5 -16t-30 -42.5t-19.5 -60.5t-7 -70z" />
    <glyph glyph-name="ecircumflex" unicode="&#xea;" horiz-adv-x="537" 
d="M366 570q5 -7 0 -10t-12 -3q-8 0 -11 3l-82 74l-82 -74q-3 -3 -11 -3q-7 0 -12 3t0 10l70 104q4 4 10 4h51q7 0 9 -4zM486 146q5 -2 5 -7q-6 -34 -24 -60.5t-44.5 -45t-60.5 -28t-72 -9.5q-89 0 -146 38t-84 95.5t-24 124t35 124t93 95.5t150 38q47 0 83 -20.5
t60.5 -50.5t37 -65.5t12.5 -65.5v-1q0 -17 -14 -28.5t-37 -13.5l-235 -12q4 -33 14 -64t28 -54.5t44.5 -37.5t61.5 -14q20 0 38 5t32.5 13.5t24.5 18.5t14 21q2 6 7 4h1zM330 299q20 3 31.5 17.5t15.5 35t1 43.5t-11.5 42t-22 32t-30.5 13q-21 0 -38.5 -16t-30 -42.5
t-19.5 -60.5t-7 -70z" />
    <glyph glyph-name="edieresis" unicode="&#xeb;" horiz-adv-x="537" 
d="M223 548q-25 0 -37.5 15t-12.5 32.5t12.5 32.5t37.5 15t37 -15t12 -32.5t-12 -32.5t-37 -15zM341 548q-25 0 -37.5 15t-12.5 32.5t12.5 32.5t37.5 15q24 0 36.5 -15t12.5 -32.5t-12.5 -32.5t-36.5 -15zM486 146q5 -2 5 -7q-6 -34 -24 -60.5t-44.5 -45t-60.5 -28t-72 -9.5
q-89 0 -146 38t-84 95.5t-24 124t35 124t93 95.5t150 38q47 0 83 -20.5t60.5 -50.5t37 -65.5t12.5 -65.5v-1q0 -17 -14 -28.5t-37 -13.5l-235 -12q4 -33 14 -64t28 -54.5t44.5 -37.5t61.5 -14q20 0 38 5t32.5 13.5t24.5 18.5t14 21q2 6 7 4h1zM330 299q20 3 31.5 17.5
t15.5 35t1 43.5t-11.5 42t-22 32t-30.5 13q-21 0 -38.5 -16t-30 -42.5t-19.5 -60.5t-7 -70z" />
    <glyph glyph-name="igrave" unicode="&#xec;" 
d="M5 15q0 10 19 19q18 8 33.5 38.5t17.5 92.5v209q-1 15 -5 30.5t-16 22.5q-14 7 -14 18q0 15 14 15q25 1 50.5 6.5t47.5 13t40 16.5t30 17q5 2 9.5 4t8.5 2q10 0 10 -10v-330q0 -70 15.5 -103t35.5 -42q19 -9 19 -19q0 -15 -20 -15h-275q-20 0 -20 15zM212 575
q3 -6 -2.5 -11t-11.5 0l-109 74q-21 15 -20.5 32t12.5 28t29 12t28 -17z" />
    <glyph glyph-name="iacute" unicode="&#xed;" 
d="M40 445q0 15 14 15q25 1 50.5 6.5t47.5 13t40 16.5t30 17q5 2 9.5 4t8.5 2q10 0 10 -10v-344q2 -63 17 -93t34 -38q19 -9 19 -19q0 -15 -20 -15h-275q-20 0 -20 15q0 10 19 19q20 9 35.5 42t15.5 103v176v18.5t-2 21t-6.5 19t-12.5 13.5q-14 7 -14 18zM192 693
q11 18 28 17t28.5 -12t12 -28t-20.5 -32l-109 -74q-6 -5 -11.5 0t-2.5 11z" />
    <glyph glyph-name="icircumflex" unicode="&#xee;" 
d="M40 445q0 15 14 15q25 1 50.5 6.5t47.5 13t40 16.5t30 17q5 2 9.5 4t8.5 2q10 0 10 -10v-330q0 -70 15.5 -103t35.5 -42q19 -9 19 -19q0 -15 -20 -15h-275q-20 0 -20 15q0 10 19 19q18 8 33.5 38.5t17.5 92.5v209q-1 15 -5 30.5t-16 22.5q-14 7 -14 18zM130 684q4 4 10 4
h1h50q7 0 9 -4l70 -104q4 -5 1.5 -8t-7 -4.5t-10 -0.5t-7.5 3l-82 74l-82 -74q-2 -2 -7.5 -3t-10 0.5t-6.5 4.5t1 8z" />
    <glyph glyph-name="idieresis" unicode="&#xef;" 
d="M40 445q0 15 14 15q25 1 50.5 6.5t47.5 13t40 16.5t30 17q5 2 9.5 4t8.5 2q10 0 10 -10v-330q0 -70 15.5 -103t35.5 -42q19 -9 19 -19q0 -15 -20 -15h-275q-20 0 -20 15q0 10 19 19q18 8 33.5 38.5t17.5 92.5v209q-1 15 -5 30.5t-16 22.5q-14 7 -14 18zM118 564
q-25 0 -37.5 15t-12.5 32.5t12.5 32.5t37.5 15t37 -15t12 -32.5t-12 -32.5t-37 -15zM236 564q-25 0 -37.5 15t-12.5 32.5t12.5 32.5t37.5 15q24 0 36.5 -15t12.5 -32.5t-12.5 -32.5t-36.5 -15z" />
    <glyph glyph-name="eth" unicode="&#xf0;" horiz-adv-x="598" 
d="M203 719q6 11 18 11q6 0 12 -3q43 -23 79 -49t68 -55l66 39q12 7 17 -3l8 -14q5 -10 -6 -16l-57 -33q41 -43 71 -88.5t49.5 -90.5t29 -88.5t9.5 -81.5q0 -53 -18 -99t-52.5 -80t-84.5 -53.5t-115 -19.5q-67 0 -117 19t-83 50t-49.5 71t-16.5 81q0 42 16.5 82t49.5 71.5
t82 50.5t114 19q23 0 40.5 -5.5t32.5 -15.5q-11 31 -25.5 61t-32.5 59l-75 -44q-11 -6 -17 2l-8 15q-5 9 6 15l73 42q-39 52 -93 93q-8 6 -10 15t3 17zM396 247q-2 27 -7.5 53t-17.5 46.5t-30.5 33t-46.5 12.5t-46.5 -26.5t-28.5 -65.5t-10 -85.5t9.5 -85.5t28.5 -65.5
t49 -26.5q25 0 45 16.5t33 45t19 67t5 82.5z" />
    <glyph glyph-name="ntilde" unicode="&#xf1;" horiz-adv-x="670" 
d="M225 591q-4 5 2 11q25 23 44 31.5t35 8.5q15 0 28 -6t24.5 -13t23 -13t24.5 -6q19 0 38 16q5 5 11 0q4 -5 0 -9q-28 -25 -50 -34.5t-41 -9.5q-17 0 -31 6t-26 12.5t-23 12.5t-22 6q-14 0 -28 -14q-6 -5 -9 1zM352 15q0 11 18 19q9 4 19.5 13t18.5 23t12.5 34.5t0.5 48.5
l-17 127q-5 33 -10 62t-14 50.5t-22 33.5t-33 12q-30 0 -51.5 -29.5t-22.5 -76.5v-153q0 -70 15.5 -103t35.5 -42q19 -9 19 -19q0 -15 -19 -15h-277q-20 0 -20 15q0 10 19 19q20 9 35.5 42t15.5 103v176v19t-2 21.5t-6.5 19t-12.5 12.5q-14 7 -14 18v1q0 13 14 15
q25 1 50.5 6.5t47.5 13t40 16t30 16.5q9 6 18 6q11 0 11 -10v-93q16 37 52 63.5t88 26.5q44 0 74.5 -10t51 -32t33 -57t21.5 -85l26 -143q12 -69 21.5 -102.5t29.5 -42.5q19 -9 19 -19q0 -15 -20 -15h-276q-19 0 -19 15z" />
    <glyph glyph-name="ograve" unicode="&#xf2;" horiz-adv-x="628" 
d="M314 -5q-69 0 -120.5 22t-86 58t-51.5 81.5t-17 93.5t17 94t51.5 81.5t86.5 57.5t121 22t120.5 -22t86 -58t51.5 -81.5t17 -93.5t-17.5 -94t-52 -81.5t-86 -57.5t-120.5 -22zM315 24q31 0 52.5 33.5t32 83.5t10.5 108t-10.5 108t-31.5 83.5t-53 33.5t-53 -33.5
t-31.5 -83.5t-10.5 -108t10.5 -108t31.5 -83.5t53 -33.5zM385 560q4 -6 -1.5 -11t-12.5 0l-109 74q-21 15 -20 32t12.5 28t28.5 12t28 -17z" />
    <glyph glyph-name="oacute" unicode="&#xf3;" horiz-adv-x="628" 
d="M322 667q11 17 28 17q12 0 22.5 -7t15.5 -18t2 -23.5t-19 -23.5l-109 -75q-7 -5 -12.5 0.5t-1.5 10.5zM314 -5q-69 0 -120.5 22t-86 58t-51.5 81.5t-17 93.5t17 94t51.5 81.5t86.5 57.5t121 22t120.5 -22t86 -58t51.5 -81.5t17 -93.5t-17.5 -94t-52 -81.5t-86 -57.5
t-120.5 -22zM315 24q31 0 52.5 33.5t32 83.5t10.5 108t-10.5 108t-31.5 83.5t-53 33.5t-53 -33.5t-31.5 -83.5t-10.5 -108t10.5 -108t31.5 -83.5t53 -33.5z" />
    <glyph glyph-name="ocircumflex" unicode="&#xf4;" horiz-adv-x="628" 
d="M314 -5q-69 0 -120.5 22t-86 58t-51.5 81.5t-17 93.5t17 94t51.5 81.5t86.5 57.5t121 22t120.5 -22t86 -58t51.5 -81.5t17 -93.5t-17.5 -94t-52 -81.5t-86 -57.5t-120.5 -22zM315 24q31 0 52.5 33.5t32 83.5t10.5 108t-10.5 108t-31.5 83.5t-53 33.5t-53 -33.5
t-31.5 -83.5t-10.5 -108t10.5 -108t31.5 -83.5t53 -33.5zM279 660q4 4 10 4h1h50q7 0 9 -4l70 -104q4 -5 1.5 -8.5t-7 -4.5t-10 -0.5t-7.5 3.5l-82 74l-82 -74q-2 -3 -7.5 -3.5t-10 0.5t-6.5 4.5t1 8.5z" />
    <glyph glyph-name="otilde" unicode="&#xf5;" horiz-adv-x="628" 
d="M211 579q-3 7 2 11q25 23 44 31.5t35 8.5q15 0 28 -6t24.5 -13t23 -13t24.5 -6q19 0 38 16q5 5 10 0q7 -3 1 -9q-28 -25 -50 -34.5t-41 -9.5q-17 0 -31 6t-26 12.5t-23 12.5t-22 6q-14 0 -28 -14q-6 -5 -9 1zM314 -5q-69 0 -120.5 22t-86 58t-51.5 81.5t-17 93.5t17 94
t51.5 81.5t86.5 57.5t121 22t120.5 -22t86 -58t51.5 -81.5t17 -93.5t-17.5 -94t-52 -81.5t-86 -57.5t-120.5 -22zM315 24q31 0 52.5 33.5t32 83.5t10.5 108t-10.5 108t-31.5 83.5t-53 33.5t-53 -33.5t-31.5 -83.5t-10.5 -108t10.5 -108t31.5 -83.5t53 -33.5z" />
    <glyph glyph-name="odieresis" unicode="&#xf6;" horiz-adv-x="628" 
d="M314 -5q-69 0 -120.5 22t-86 58t-51.5 81.5t-17 93.5t17 94t51.5 81.5t86.5 57.5t121 22t120.5 -22t86 -58t51.5 -81.5t17 -93.5t-17.5 -94t-52 -81.5t-86 -57.5t-120.5 -22zM315 24q31 0 52.5 33.5t32 83.5t10.5 108t-10.5 108t-31.5 83.5t-53 33.5t-53 -33.5
t-31.5 -83.5t-10.5 -108t10.5 -108t31.5 -83.5t53 -33.5zM276 548q-25 0 -37.5 15t-12.5 32.5t12.5 32.5t37.5 15t37 -15t12 -32.5t-12 -32.5t-37 -15zM394 548q-25 0 -37.5 15t-12.5 32.5t12.5 32.5t37.5 15q24 0 36.5 -15t12.5 -32.5t-12.5 -32.5t-36.5 -15z" />
    <glyph glyph-name="oslash" unicode="&#xf8;" horiz-adv-x="628" 
d="M314 -5q-34 0 -63 5.5t-55 15.5l-65 -99q-3 -6 -11 -6h-22q-14 0 -7 12l71 109q-31 18 -54 42t-38.5 52.5t-23 60t-7.5 63.5q0 48 17 94t51.5 81.5t86.5 57.5t121 22q40 0 73.5 -7.5t62.5 -21.5l84 129q3 6 11 6h22q6 0 8 -3.5t-2 -8.5l-91 -141q54 -37 80.5 -92.5
t26.5 -115.5q0 -48 -17.5 -94t-52 -81.5t-86 -57.5t-120.5 -22zM392 386q-11 39 -30.5 63.5t-46.5 24.5q-32 0 -53 -34t-31.5 -84.5t-10.5 -109t11 -108.5zM315 24q30 0 50.5 30t31.5 76t12.5 101t-6.5 105l-158 -244q11 -31 29 -49.5t41 -18.5z" />
    <glyph glyph-name="ugrave" unicode="&#xf9;" horiz-adv-x="598" 
d="M354 74q-20 -35 -55.5 -57t-82.5 -22q-39 0 -71.5 11t-56 32t-36.5 50.5t-13 66.5v215q-1 16 -5 33t-17 24q-14 8 -14 18v1q0 13 15 15q25 1 50 6.5t47 13t40.5 16t30.5 16.5q7 6 18 6q10 0 10 -10v-364q0 -41 10.5 -62.5t26 -28t33.5 0t33.5 21t26 34.5t10.5 40v223
q-1 16 -4.5 31.5t-16.5 22.5q-15 7 -15 18q0 15 15 15q25 1 50 6.5t47 13t40.5 16.5t30.5 17q4 2 8.5 4t9.5 2q10 0 10 -10v-385q0 -9 1 -19.5t6 -19.5t15 -13.5t28 -1.5q8 1 12.5 -3t6 -9.5t0 -11t-7.5 -6.5l-179 -42q-25 -3 -41 10t-16 33v33zM336 560q4 -6 -1.5 -11
t-12.5 0l-109 74q-21 15 -20 32t12.5 28t28.5 12t28 -17z" />
    <glyph glyph-name="uacute" unicode="&#xfa;" horiz-adv-x="598" 
d="M354 74q-20 -35 -55.5 -57t-82.5 -22q-39 0 -71.5 11t-56 32t-36.5 50.5t-13 66.5v215q-1 16 -5 33t-17 24q-14 8 -14 18v1q0 13 15 15q25 1 50 6.5t47 13t40.5 16t30.5 16.5q7 6 18 6q10 0 10 -10v-364q0 -41 10.5 -62.5t26 -28t33.5 0t33.5 21t26 34.5t10.5 40v205
v18.5t-2 21t-6.5 19t-12.5 13.5q-15 7 -15 18q0 15 15 15q25 1 50 6.5t47 13t40.5 16.5t30.5 17q4 2 8.5 4t9.5 2q10 0 10 -10v-385q0 -9 1 -19.5t6 -19.5t15 -13.5t28 -1.5q8 1 12.5 -3t6 -9.5t0 -11t-7.5 -6.5l-179 -42q-25 -3 -41 10t-16 33v33zM325 678q11 18 28 17
t29 -12t12.5 -28t-20.5 -32l-109 -74q-6 -5 -12 0t-2 11z" />
    <glyph glyph-name="ucircumflex" unicode="&#xfb;" horiz-adv-x="598" 
d="M354 74q-20 -35 -55.5 -57t-82.5 -22q-39 0 -71.5 11t-56 32t-36.5 50.5t-13 66.5v200q0 8 -0.5 19t-2.5 21.5t-6.5 19t-12.5 12.5q-14 8 -14 18v1q0 13 15 15q25 1 50 6.5t47 13t40.5 16t30.5 16.5q7 6 18 6q10 0 10 -10v-364q0 -41 10.5 -62.5t26 -28t33.5 0t33.5 21
t26 34.5t10.5 40v205v18.5t-2 21t-6.5 19t-12.5 13.5q-15 7 -15 18q0 15 15 15q25 1 50 6.5t47 13t40.5 16.5t30.5 17q4 2 8.5 4t9.5 2q10 0 10 -10v-385q0 -9 1 -19.5t6 -19.5t15 -13.5t28 -1.5q8 1 12.5 -3t6 -9.5t0 -11t-7.5 -6.5l-179 -42q-25 -3 -41 10t-16 33v33z
M273 671q2 4 9 4h2h48h1q6 0 10 -4l70 -104q3 -5 1 -8t-7 -4.5t-10 -0.5t-8 3l-82 74l-81 -74q-3 -2 -8 -3t-10 0.5t-7 4.5t1 8z" />
    <glyph glyph-name="udieresis" unicode="&#xfc;" horiz-adv-x="598" 
d="M354 74q-20 -35 -55.5 -57t-82.5 -22q-39 0 -71.5 11t-56 32t-36.5 50.5t-13 66.5v215q-1 16 -5 33t-17 24q-14 8 -14 18v1q0 13 15 15q25 1 50 6.5t47 13t40.5 16t30.5 16.5q7 6 18 6q10 0 10 -10v-364q0 -41 10.5 -62.5t26 -28t33.5 0t33.5 21t26 34.5t10.5 40v205
v18.5t-2 21t-6.5 19t-12.5 13.5q-15 7 -15 18q0 15 15 15q25 1 50 6.5t47 13t40.5 16.5t30.5 17q4 2 8.5 4t9.5 2q10 0 10 -10v-385q0 -9 1 -19.5t6 -19.5t15 -13.5t28 -1.5q8 1 12.5 -3t6 -9.5t0 -11t-7.5 -6.5l-179 -42q-25 -3 -41 10t-16 33v33zM236 549q-25 0 -37.5 15
t-12.5 32.5t12.5 32.5t37.5 15t37 -15t12 -32.5t-12 -32.5t-37 -15zM354 549q-25 0 -37.5 15t-12.5 32.5t12.5 32.5t37.5 15q24 0 36.5 -15t12.5 -32.5t-12.5 -32.5t-36.5 -15z" />
    <glyph glyph-name="yacute" unicode="&#xfd;" horiz-adv-x="609" 
d="M389 465q-19 7 -19 20q0 15 20 15h199q19 0 19 -15q0 -13 -18 -20q-15 -6 -32.5 -19t-33.5 -30.5t-30 -37.5t-23 -41l-128 -285q-4 -8 -8.5 -18.5t-10.5 -22.5l-4 -10h-1q-15 -31 -37 -67t-48.5 -67t-57 -52t-63.5 -21t-55 11.5t-34 28t-14 36.5t6 36.5t25.5 28
t44.5 11.5q15 0 27.5 -7.5t23.5 -17t22 -17t23 -7.5q28 0 52.5 26.5t47.5 76.5l-155 321l-10 20q-17 35 -30.5 57.5t-24.5 37t-21.5 21.5t-22.5 11q-19 6 -19 17q0 15 19 15h275q19 0 19 -15q0 -11 -18 -19q-11 -6 -16 -15t-3.5 -25t10.5 -40.5t25 -60.5l58 -131l65 144
q9 20 8.5 40t-8 37.5t-19.5 30.5t-25 19zM340 678q11 18 28 17t28.5 -12t12.5 -28t-20 -32l-109 -74q-7 -5 -12.5 0t-1.5 11z" />
    <glyph glyph-name="thorn" unicode="&#xfe;" horiz-adv-x="634" 
d="M40 583q0 15 15 15q25 1 50 6.5t47.5 13t40.5 16t30 16.5q10 7 18 7q5 0 8 -3t2 -8v-181q14 17 34 28.5t45 11.5q69 0 120 -21t84.5 -55t49.5 -78t16 -90q0 -49 -17.5 -97t-52 -85.5t-84.5 -60.5t-116 -23q-26 0 -45.5 8t-33.5 22v-22q1 -60 8.5 -88.5t25.5 -36.5t18 -19
q0 -15 -19 -15h-259q-19 0 -19 15q0 11 18 19q18 9 34 39t18 92v484q0 8 -0.5 18.5t-2.5 21t-6 19t-12 13.5q-15 7 -15 18zM331 470q-21 0 -35.5 -8t-24 -20.5t-14.5 -28.5t-6 -31v-235q1 -20 5 -41.5t13 -39t23.5 -29t37.5 -11.5q28 0 48 33t31 82t12.5 107t-7.5 107
t-29.5 82t-53.5 33z" />
    <glyph glyph-name="ydieresis" unicode="&#xff;" horiz-adv-x="609" 
d="M389 465q-19 7 -19 20q0 15 20 15h199q19 0 19 -15q0 -13 -18 -20q-15 -6 -32.5 -19t-33.5 -30.5t-30 -37.5t-23 -41l-128 -285q-4 -8 -8.5 -18.5t-10.5 -22.5l-4 -10h-1q-15 -31 -37 -67t-48.5 -67t-57 -52t-63.5 -21t-55 11.5t-34 28t-14 36.5t6 36.5t25.5 28
t44.5 11.5q15 0 27.5 -7.5t23.5 -17t22 -17t23 -7.5q28 0 52.5 26.5t47.5 76.5l-155 321l-10 20q-17 35 -30.5 57.5t-24.5 37t-21.5 21.5t-22.5 11q-19 6 -19 17q0 15 19 15h275q19 0 19 -15q0 -11 -18 -19q-11 -6 -16 -15t-3.5 -25t10.5 -40.5t25 -60.5l58 -131l65 144
q9 20 8.5 40t-8 37.5t-19.5 30.5t-25 19zM277 556q-25 0 -37.5 15t-12.5 32.5t12.5 32.5t37.5 15t37 -15t12 -32.5t-12 -32.5t-37 -15zM395 556q-25 0 -37.5 15t-12.5 32.5t12.5 32.5t37.5 15q24 0 36.5 -15t12.5 -32.5t-12.5 -32.5t-36.5 -15z" />
    <glyph glyph-name="Dcroat" unicode="&#x110;" horiz-adv-x="704" 
d="M5 685q0 15 20 15h262q94 0 165 -30t118.5 -79.5t71 -112t23.5 -128.5t-23.5 -128.5t-71 -112t-118.5 -79.5t-166 -30h-261q-20 0 -20 15q0 10 19 19q20 9 35.5 42t15.5 103v130h-33q-13 0 -13 10v17q0 10 13 10h33v175q0 35 -4.5 60.5t-11.5 42.5t-16 27t-19 15
q-19 9 -19 19zM287 30q48 0 84.5 27.5t60.5 72.5t36 102.5t12 117.5t-12 117.5t-36 102.5t-60.5 72.5t-84.5 27.5h-31v-324h55q13 0 13 -10v-17q0 -10 -13 -10h-55v-279h31z" />
    <glyph glyph-name="dcroat" unicode="&#x111;" horiz-adv-x="633" 
d="M353 651q0 14 15 16q25 1 50 6t47 12.5t40.5 16.5t30.5 17q4 2 8.5 4t9.5 2q10 0 10 -10v-125h70q13 0 13 -10v-18q0 -10 -13 -10h-70v-428q0 -9 1 -19.5t6 -19.5t15 -13.5t28 -1.5q8 1 12.5 -3t6 -9.5t0 -10.5t-7.5 -6l-179 -44q-23 -2 -39 10t-18 30q-16 -18 -36.5 -30
t-46.5 -12q-69 0 -120 20.5t-84.5 55t-49.5 78t-16 90.5q0 49 17.5 97t52 85.5t84.5 60.5t116 23q29 0 49 -9.5t34 -25.5v82h-24q-13 0 -13 10v18q0 10 13 10h23q-2 14 -5.5 26t-14.5 17q-15 7 -15 18zM389 313q-2 18 -4 45t-10 53t-24 44.5t-45 18.5q-28 0 -48 -33t-31 -82
t-12.5 -107t7.5 -107t29.5 -82t53.5 -33q23 0 39 9.5t25.5 24.5t14.5 32.5t5 33.5v183z" />
    <glyph glyph-name="dotlessi" unicode="&#x131;" 
d="M40 445q0 15 14 15q25 1 50.5 6.5t47.5 13t40 16.5t30 17q5 2 9.5 4t8.5 2q10 0 10 -10v-344q2 -63 17 -93t34 -38q19 -9 19 -19q0 -15 -20 -15h-275q-20 0 -20 15q0 10 19 19q20 9 35.5 42t15.5 103v176v18.5t-2 21t-6.5 19t-12.5 13.5q-14 7 -14 18z" />
    <glyph glyph-name="Lslash" unicode="&#x141;" horiz-adv-x="563" 
d="M537 14q-2 -14 -19 -14h-493q-20 0 -20 15q0 10 19 19q20 9 35.5 42t15.5 103v102l-38 -15q-12 -5 -16 4l-5 13q-2 4 0.5 8t7.5 6l51 20v204q0 35 -4.5 60.5t-11.5 42.5t-16 27t-19 15q-19 9 -19 19q0 15 20 15h282q19 0 19 -15q0 -10 -19 -19q-20 -9 -35.5 -42
t-15.5 -103v-132l63 26q13 4 16 -5l5 -13q4 -9 -8 -14l-76 -30v-318h64q42 0 78 22.5t63.5 54.5t45.5 67.5t26 61.5q3 10 17 8t12 -13z" />
    <glyph glyph-name="lslash" unicode="&#x142;" 
d="M-3 244q-2 11 10 14l68 22v281v18.5t-2 21t-6.5 19t-12.5 13.5q-14 7 -14 18q0 15 14 15q25 1 50.5 6.5t47.5 13t40 16.5t30 17q5 2 9.5 4t8.5 2q10 0 10 -10v-377l58 20q12 3 15 -5l5 -14q2 -10 -10 -13l-68 -23v-124q0 -70 15.5 -103t35.5 -42q19 -9 19 -19
q0 -15 -20 -15h-275q-20 0 -20 15q0 10 19 19q20 9 35.5 42t15.5 103v66l-58 -19q-5 -2 -9.5 -0.5t-5.5 5.5z" />
    <glyph glyph-name="OE" unicode="&#x152;" horiz-adv-x="979" 
d="M946 14q-3 -14 -20 -14h-498l-36 1q-88 0 -154 29.5t-110 78t-66 111.5t-22 131t22 131t66.5 111.5t110.5 77.5t154 29h508q17 0 19 -14l22 -158q1 -10 -13 -14q-15 -2 -18 10q-5 15 -19.5 38.5t-37.5 46.5t-55 39.5t-72 16.5h-63v-297h54q24 0 46.5 5.5t40 18t29 32.5
t13.5 49q0 11 15 11q7 0 11.5 -3t3.5 -8q-6 -123 0 -244q1 -5 -3.5 -8.5t-11.5 -3.5q-15 0 -15 12q-2 29 -13.5 49t-29 32t-40 17.5t-46.5 5.5h-54v-298h64q42 0 78 16.5t64.5 41t48.5 52.5t29 51q4 11 18 9q15 0 13 -12zM436 36q18 11 32.5 43.5t14.5 99.5v342
q0 68 -14.5 100.5t-33.5 42.5q-14 1 -27.5 1h-16.5q-42 0 -73.5 -27t-52.5 -71.5t-31.5 -101t-10.5 -115.5t10.5 -115.5t31.5 -100.5t53 -71t74 -27h44z" />
    <glyph glyph-name="oe" unicode="&#x153;" horiz-adv-x="911" 
d="M314 -5q-69 0 -120.5 22t-86 58t-51.5 81.5t-17 93.5t17 94t51.5 81.5t86 57.5t120.5 22q60 0 105.5 -16t79.5 -44q35 30 82 48t107 18q47 0 83 -20.5t60.5 -50.5t37 -65.5t12.5 -65.5v-1q0 -17 -14 -28.5t-37 -13.5l-235 -12q4 -33 14 -64t28 -54.5t44.5 -37.5t61.5 -14
q20 0 38 5t32.5 13.5t24.5 18.5t14 21q2 6 7 4h1q5 -2 5 -7q-6 -34 -24 -60.5t-44.5 -45t-60.5 -28t-72 -9.5q-54 0 -96 15t-74 40q-33 -26 -78 -41t-102 -15zM704 299q20 3 31.5 17.5t15.5 35t1 43.5t-11.5 42t-22 32t-30.5 13q-21 0 -38.5 -16t-30 -42.5t-19.5 -60.5
t-7 -70zM315 24q22 0 39.5 17.5t29 47t18 67t7.5 77.5v10.5t1 11.5q-1 41 -7 80.5t-18 70t-29.5 49.5t-40.5 19q-32 0 -53 -33.5t-31.5 -83.5t-10.5 -108t10.5 -108t31.5 -83.5t53 -33.5z" />
    <glyph glyph-name="Scaron" unicode="&#x160;" horiz-adv-x="626" 
d="M510 451q-14 65 -44 109.5t-67.5 71.5t-77 37t-72.5 6t-54 -21t-21 -45q0 -33 31.5 -60t78.5 -53t102 -53t102 -60.5t78.5 -75.5t31.5 -98q0 -57 -27.5 -98.5t-71.5 -69.5t-99 -41.5t-111 -13.5q-49 0 -95 11.5t-81 33.5t-56.5 53.5t-21.5 71.5q0 35 13 57.5t32.5 32.5
t42 9.5t42 -10t32.5 -28t13 -43.5q0 -15 -5.5 -28t-12.5 -25t-12.5 -22.5t-5.5 -21.5q0 -22 22.5 -36t56.5 -19.5t74 -2t74 16.5t56.5 36t22.5 56t-30.5 60t-76 52t-98.5 51t-98.5 57t-76 70t-30.5 91q0 54 21 92t54 62t73 34.5t78 10.5q33 0 58.5 -5.5t45.5 -12t35 -12
t27 -5.5q14 0 22.5 13.5t9.5 28.5q2 10 12 11q12 0 14 -9l24 -266q0 -12 -16 -12t-18 12zM208 865q-4 5 -1.5 8t7 4t10 0.5t7.5 -2.5l82 -76l82 76q2 2 7.5 2.5t10 -0.5t7 -4t-1.5 -8l-70 -105q-2 -4 -9 -4h-1h-49h-1q-6 0 -10 4z" />
    <glyph glyph-name="scaron" unicode="&#x161;" horiz-adv-x="518" 
d="M417 315q-11 48 -33.5 79.5t-50.5 50.5t-58 26t-54.5 5.5t-40 -10.5t-15.5 -23q0 -24 24.5 -43.5t61.5 -37.5t80 -36.5t80 -42t61.5 -54t24.5 -71.5q0 -44 -24 -76t-61.5 -53t-83.5 -31t-90 -10q-39 0 -77.5 10t-69.5 27.5t-50.5 42t-19.5 54.5q0 41 22.5 61t49.5 20.5
t49.5 -17.5t22.5 -53q0 -12 -4.5 -21.5t-10 -17t-10 -14t-4.5 -14.5q0 -15 17.5 -25.5t43 -16t56 -5.5t56 7.5t43 22t17.5 37.5t-24 41.5t-60.5 35.5t-79 35.5t-79 40.5t-60.5 50.5t-24 66.5q0 42 19 71t48.5 47t63.5 26t64 8q20 0 41 -4t39.5 -8.5t34 -8t24.5 -3.5
q11 0 18 9t8 20q0 6 9 8q10 0 10 -7l23 -199q0 -9 -12 -9q-14 0 -15 9zM154 665q-4 5 -1.5 8t7 4t10 0.5t7.5 -2.5l82 -76l82 76q2 2 7.5 2.5t10 -0.5t7 -4t-1.5 -8l-70 -105q-2 -4 -10 -4h-1h-49h-2q-6 0 -8 4z" />
    <glyph glyph-name="Ydieresis" unicode="&#x178;" horiz-adv-x="723" 
d="M203 15q0 10 19 19q17 8 31.5 33.5t18.5 78.5v136l-125 239q-39 75 -71.5 107t-56.5 39q-19 6 -19 18q0 15 19 15h322q19 0 19 -15q0 -11 -18 -19q-11 -6 -21 -18t-13.5 -30t0.5 -42.5t21 -54.5l105 -191l94 208q9 21 5.5 41t-14 37t-26 30t-28.5 19q-18 7 -18 20
q0 15 19 15h237q19 0 19 -15q0 -13 -18 -20q-15 -6 -35 -19t-39.5 -30.5t-36.5 -37.5t-26 -41l-113 -250v-122q2 -63 17 -93t34 -38q19 -9 19 -19q0 -15 -19 -15h-282q-20 0 -20 15zM347 748q-25 0 -37.5 15t-12.5 32.5t12.5 32.5t37.5 15t37.5 -15t12.5 -32.5t-12.5 -32.5
t-37.5 -15zM465 748q-24 0 -36.5 15t-12.5 32.5t12.5 32.5t36.5 15t36.5 -15t12.5 -32.5t-12.5 -32.5t-36.5 -15z" />
    <glyph glyph-name="Zcaron" unicode="&#x17d;" horiz-adv-x="612" 
d="M351 760q-4 -4 -10 -4h-51q-7 0 -9 4l-71 104q-5 7 0 10.5t12 3.5q8 0 12 -4l82 -74l81 74q4 4 12 4q7 0 12 -3.5t0 -10.5zM61 686q0 14 19 14h450q17 0 23 -7t0 -19l-341 -639h94q42 0 87 21.5t84 53t67.5 67.5t37.5 64q3 10 16 8q15 -2 13 -13l-43 -222q-3 -14 -20 -14
h-505q-17 0 -23 7.5t0 18.5l341 639h-71q-42 0 -80 -22.5t-67.5 -54.5t-50 -67.5t-28.5 -60.5q-3 -11 -16 -9q-15 3 -13 13z" />
    <glyph glyph-name="zcaron" unicode="&#x17e;" horiz-adv-x="510" 
d="M290 557q-4 -4 -10 -4h-50q-8 0 -10 4l-71 105q-3 5 -0.5 8t7 4t10 0.5t7.5 -2.5l82 -75l81 75q3 2 8 2.5t10 -0.5t7 -4t-1 -8zM51 486q2 14 20 14h377q17 0 23 -7t-1 -19l-250 -439h12q42 0 82.5 21t74 52t57.5 66t33 63q3 10 16 8q15 -2 13 -13l-52 -218
q-3 -14 -21 -14h-389q-17 0 -23 7t1 19l249 439h-17q-42 0 -77 -16t-61.5 -41t-44 -54t-25.5 -55q-3 -10 -16 -8q-6 1 -10 4.5t-3 8.5z" />
    <glyph glyph-name="circumflex" unicode="&#x2c6;" horiz-adv-x="223" 
d="M77 674q2 4 10 4h50h1l9 -4l70 -104q3 -5 1 -8.5t-7 -4.5t-10 -0.5t-8 3.5l-82 74l-81 -74q-2 -3 -7.5 -3.5t-10 0.5t-7 4.5t0.5 8.5z" />
    <glyph glyph-name="caron" unicode="&#x2c7;" horiz-adv-x="223" 
d="M6 665q-3 5 -1 8t7 4t10 0.5t8 -2.5l81 -75l82 75q3 2 8 2.5t10 -0.5t7 -4t-1 -8l-70 -105q-4 -4 -9 -4h-1h-49h-3q-6 0 -8 4l-71 105v0z" />
    <glyph glyph-name="ring" unicode="&#x2da;" horiz-adv-x="240" 
d="M121 517q-26 0 -46 7.5t-33 20.5t-19.5 29.5t-6.5 33.5t6.5 33.5t19.5 29t33 20.5t46 8t45.5 -8t32 -20.5t19 -29t6.5 -33.5t-6.5 -33.5t-19 -29.5t-32 -20.5t-45.5 -7.5zM122 540q15 0 25 10t15 25t5 33t-5 33t-15 25t-25 10q-16 0 -26.5 -10t-16 -25t-5.5 -33t5.5 -33
t16 -25t26.5 -10z" />
    <glyph glyph-name="tilde" unicode="&#x2dc;" horiz-adv-x="244" 
d="M6 579q-3 6 2 11q25 23 44 31.5t35 8.5q15 0 28 -6t24.5 -13t23 -13t24.5 -6q19 0 38 16q5 5 11 0q5 -4 0 -9q-28 -25 -50 -34.5t-40 -9.5q-17 0 -31 6t-26.5 12.5t-23.5 12.5t-22 6q-14 0 -28 -14q-5 -5 -9 1z" />
    <glyph glyph-name="endash" unicode="&#x2013;" horiz-adv-x="394" 
d="M25 299q0 10 13 10h318q13 0 13 -10v-14q0 -10 -13 -10h-318q-13 0 -13 10v14z" />
    <glyph glyph-name="emdash" unicode="&#x2014;" horiz-adv-x="632" 
d="M26 296q0 10 10 10h560q10 0 10 -10v-13q0 -10 -10 -10h-560q-10 0 -10 10v13z" />
    <glyph glyph-name="quoteleft" unicode="&#x2018;" horiz-adv-x="217" 
d="M194 574q0 -18 -6.5 -34t-18 -27.5t-27 -18.5t-33.5 -7t-33.5 7t-27 18.5t-18 27.5t-6.5 34v9l3 15q2 4 2 6q2 6 4 9q9 19 24 38t34.5 34.5t41.5 26.5t44 15q6 1 8 -5h1q1 -6 -5 -9q-18 -7 -33.5 -21.5t-26.5 -31.5q31 -5 52 -29t21 -57z" />
    <glyph glyph-name="quoteright" unicode="&#x2019;" horiz-adv-x="217" 
d="M24 622q0 18 6.5 34t18 27.5t27 18.5t33.5 7t33.5 -7t27 -18.5t18 -27.5t6.5 -34q0 -2 -0.5 -4t-0.5 -4q-1 -18 -11 -36q-9 -19 -24.5 -37t-34 -33t-40 -25t-42.5 -14q-7 0 -8 6q-1 4 4 8q18 6 33.5 20.5t26.5 31.5q-31 5 -52 29.5t-21 57.5z" />
    <glyph glyph-name="quotesinglbase" unicode="&#x201a;" horiz-adv-x="222" 
d="M24 72q0 18 6.5 34t18 27.5t27 18.5t33.5 7t33.5 -7t27 -18.5t18 -27.5t6.5 -34q0 -2 -0.5 -4t-0.5 -4q0 -9 -3 -16q0 -3 -2 -7t-3.5 -8t-3.5 -7q-9 -19 -24.5 -36.5t-34.5 -32t-39.5 -24.5t-41.5 -14q-6 -2 -8 5q-1 5 4 9q18 7 33.5 21.5t26.5 31.5q-31 4 -52 28.5
t-21 57.5z" />
    <glyph glyph-name="quotedblleft" unicode="&#x201c;" horiz-adv-x="425" 
d="M194 556q0 -18 -6.5 -34t-18 -27.5t-27 -18.5t-33.5 -7t-33.5 7t-27 18.5t-18 27.5t-6.5 34v3q0 25 14 45q20 37 59 66.5t80 37.5q6 2 8 -5h1q2 -6 -5 -8q-18 -7 -33.5 -21.5t-26.5 -31.5q31 -5 52 -29.5t21 -56.5zM397 556q0 -18 -6.5 -34t-18 -27.5t-27 -18.5t-33.5 -7
q-35 0 -60 25t-25 61v1v3v2q2 23 14 43q20 37 59 66.5t80 37.5q6 2 8 -5q2 -6 -4 -8q-18 -7 -33.5 -21.5t-26.5 -31.5q31 -5 52 -29t21 -57z" />
    <glyph glyph-name="quotedblright" unicode="&#x201d;" horiz-adv-x="426" 
d="M227 622q0 18 6.5 34t18 27.5t27 18.5t33.5 7t33.5 -7t27 -18.5t18 -27.5t6.5 -34q0 -11 -3.5 -22t-8.5 -22q-11 -20 -30.5 -31.5t-42.5 -11.5h-12q15 25 16.5 49t-16.5 35l97 3q0 -25 -12 -44q-9 -19 -24.5 -37t-34 -33t-40 -25t-42.5 -14q-7 0 -8 6h-1q-2 5 5 8
q18 6 33.5 20.5t26.5 31.5q-32 5 -52.5 29.5t-20.5 57.5zM24 622q0 18 6.5 34t18 27.5t27 18.5t33.5 7t33.5 -7t27 -18.5t18 -27.5t6.5 -34v-4q-2 -21 -12 -40q-11 -20 -30.5 -31.5t-42.5 -11.5h-12q15 25 17 49t-16 35l96 3v-4q-2 -22 -12 -40q-9 -19 -24.5 -37t-34 -33
t-40 -25t-42.5 -14q-7 0 -8 6q-1 4 4 8q18 6 33.5 20.5t26.5 31.5q-31 5 -52 29.5t-21 57.5z" />
    <glyph glyph-name="quotedblbase" unicode="&#x201e;" horiz-adv-x="420" 
d="M24 72q0 18 6.5 34t18 27.5t27 18.5t33.5 7t33.5 -7t27 -18.5t18 -27.5t6.5 -34q0 -13 -4 -24q0 -3 -2 -7l-3 -8q-11 -22 -31 -35t-45 -13q-8 0 -12 1q15 24 17 48t-16 35l96 3q0 -7 -1 -13t-3 -11q0 -3 -2 -7l-3 -8q-9 -20 -24.5 -38.5t-35 -34t-41.5 -26.5t-43 -15
q-6 -2 -8 5q-1 5 4 9q18 7 33.5 21.5t26.5 31.5q-31 4 -52 28.5t-21 57.5zM220 72q0 18 6.5 34t18 27.5t27 18.5t32.5 7q18 0 33.5 -7t27 -18.5t18 -27.5t6.5 -34v-4q0 -1 -0.5 -1.5t-0.5 -2.5q0 -9 -3 -16q0 -3 -2 -7t-3.5 -8t-3.5 -7q-9 -19 -24.5 -36.5t-34.5 -32
t-39.5 -24.5t-41.5 -14q-6 -2 -8 5q-1 6 5 9q18 7 33 21.5t26 31.5q-30 5 -51 29t-21 57z" />
    <glyph glyph-name="bullet" unicode="&#x2022;" horiz-adv-x="292" 
d="M33 350q0 22 9 42t24.5 35t36 23.5t43.5 8.5q24 0 44.5 -8.5t36 -23.5t24.5 -35t9 -42q0 -23 -9 -42.5t-24.5 -34.5t-36 -23.5t-44.5 -8.5q-23 0 -43.5 8.5t-36 23.5t-24.5 34.5t-9 42.5z" />
    <glyph glyph-name="perthousand" unicode="&#x2030;" horiz-adv-x="1095" 
d="M824 700l-745 -700h-51l745 700h51zM264 683q-25 0 -41 -17.5t-24.5 -44t-8.5 -57t8.5 -57t24.5 -44t41 -17.5q24 0 40.5 17.5t25 44t8 57t-8.5 57t-24.5 44t-40.5 17.5zM264 424q-54 0 -90 21t-54 52t-18 67.5t18 67.5t54 52t91 21q54 0 90 -21t54 -52t18 -67.5
t-18 -67.5t-54.5 -52t-90.5 -21zM511 244q-25 0 -41 -17.5t-24.5 -44t-8.5 -57t8.5 -57t24.5 -44t41 -17.5t41 17.5t24.5 44t8.5 57t-8 57t-24.5 44t-41.5 17.5zM511 -15q-54 0 -90 21t-54 52t-18 67.5t18 67.5t54 52t91 21q54 0 90 -21t54 -52t18 -67.5t-18 -67.5
t-54.5 -52t-90.5 -21zM888 244q-25 0 -41 -17.5t-24.5 -44t-8 -57t8.5 -57t24 -44t41 -17.5q24 0 40.5 17.5t24.5 44t8 57t-8 57t-24.5 44t-40.5 17.5zM888 -15q-54 0 -90.5 21t-54.5 52t-18 67.5t18 67.5t54.5 52t90.5 21t90.5 -21t54.5 -52t18 -67.5t-18 -67.5t-54.5 -52
t-90.5 -21z" />
    <glyph glyph-name="Euro" unicode="&#x20ac;" horiz-adv-x="642" 
d="M438 -7q-77 0 -136.5 25t-101.5 67t-67 97t-32 115h-76q-9 0 -9 8v14q0 8 9 8h74q-2 23 0 47h-74q-9 0 -9 8v13q0 9 9 9h77q8 59 33 113t67 95.5t101 66t135 24.5q53 0 86 -13t50 -33t19.5 -42.5t-6.5 -42.5t-27.5 -33t-42.5 -13q-25 0 -40 19t-4 61q9 32 3.5 51
t-38.5 17q-35 -2 -61 -25t-44.5 -60t-29.5 -85t-14 -100h107q8 0 8 -9v-13q0 -8 -8 -8h-108v-47h108q8 0 8 -8v-14q0 -8 -8 -8h-106q4 -54 15.5 -103t30 -85.5t44 -58t58.5 -19.5q25 1 35 12t12 26t-0.5 32t-2.5 31q0 29 16.5 44t37.5 15q24 0 44.5 -18.5t20.5 -56.5
q0 -23 -12 -45t-33.5 -39.5t-51.5 -28t-66 -10.5z" />
    <glyph glyph-name="trademark" unicode="&#x2122;" horiz-adv-x="454" 
d="M437 535q5 -2 5 -6q0 -5 -5 -5h-54q-5 0 -5 5q0 4 5 6q5 0 7 3.5t4 7.5t2 10v122l-60 -127q0 -1 -1.5 -1.5t-2.5 -1.5l-5 3l-62 125v-120q0 -6 2 -10t4 -7.5t7 -3.5q5 -2 5 -6q0 -5 -6 -5h-40q-6 0 -6 5q0 4 5 6q5 0 6.5 3.5t3.5 7.5l2 10v116l-2 10l-3.5 7t-6.5 4
q-4 2 -5 6q2 5 6 5h39q6 0 9 -5l56 -107l49 106q3 6 10 6h37q5 0 5 -5q0 -4 -5 -6q-8 -1 -10 -11q-1 -4 -1 -10v-116q-1 -6 0 -10q2 -10 11 -11zM23 667q-2 -1 -5 -1h-1q-3 1 -3 5l19 28q5 5 10 5h144q7 0 10 -5l19 -28q0 -4 -3 -5h-1q-3 0 -5 1q-5 4 -24 14.5t-39 10.5
q-8 0 -11 -5t-3 -13v-118q0 -6 2 -10t4 -7.5t7 -3.5q4 -2 5 -6q-2 -5 -5 -5h-55q-6 0 -6 5q0 4 5 6q5 0 7 3.5t4 7.5t2 10v118q0 8 -3 13t-11 5q-10 0 -20.5 -3t-19 -7.5t-15 -8.5t-8.5 -6z" />
    <glyph glyph-name="A.ss01" unicode="&#xe000;" horiz-adv-x="780" 
d="M284 650q-21 24 -58 24q-24 0 -42.5 -11.5t-27.5 -26t-4.5 -26t27.5 -11.5q30 0 46 -21.5t15 -48t-20.5 -48t-59.5 -21.5q-31 0 -57 21t-26 65q0 26 10 54t31 51.5t52.5 38.5t74.5 15h10h4h135q26 0 45 -11.5t26 -30.5l175 -484q16 -39 32 -65.5t31.5 -43.5t30 -25.5
t26.5 -12.5q19 -4 19 -17q0 -15 -19 -15h-322q-19 0 -19 15q0 10 18 19q10 5 18.5 14.5t13 24.5t5 34.5t-6.5 44.5l-19 53l-257 1l-14 -44q-7 -21 -1 -41.5t18.5 -37t28.5 -29.5t30 -19q18 -9 18 -20q0 -15 -19 -15h-232q-19 0 -19 15q0 13 19 20q15 6 33 18.5t34.5 30
t30.5 38t21 41.5l155 470zM201 236l236 -1l-123 346z" />
    <glyph glyph-name="B.ss01" unicode="&#xe001;" horiz-adv-x="684" 
d="M5 15q0 10 19 19q20 9 35.5 42t15.5 103v355l-3 36l-2 13q-1 8 -2.5 14.5t-3.5 12.5q-9 27 -24.5 43t-31.5 16q-24 0 -42.5 -11t-27.5 -24t-4.5 -24t27.5 -11q30 0 46 -21.5t15 -48t-20.5 -48t-59.5 -21.5q-31 0 -57 21t-26 65q0 26 10 53.5t31 50t52.5 36.5t74.5 14h268
q66 0 115 -9.5t81.5 -26t48 -38.5t15.5 -47q0 -39 -39 -80t-120 -74q55 -4 101.5 -21.5t80 -44.5t52 -61.5t18.5 -72.5t-20.5 -78t-64.5 -72.5t-114 -53.5t-170 -21h-254q-20 0 -20 15zM256 384v-354h24q60 0 99 29.5t57.5 72.5t17 92.5t-22 89.5t-58.5 62.5t-93 12.5z
M256 415q38 9 64.5 31t39.5 49.5t13.5 57.5t-12.5 55t-39 42t-66 19v-254z" />
    <glyph glyph-name="D.ss01" unicode="&#xe002;" horiz-adv-x="704" 
d="M5 15q0 10 19 19q20 9 35.5 42t15.5 103v342q0 28 -3 49l-2 13q-1 8 -2.5 14.5t-3.5 12.5q-9 27 -24.5 43t-31.5 16q-24 0 -42.5 -11t-27.5 -24t-4.5 -24t27.5 -11q30 0 46 -21.5t15 -48t-20.5 -48t-59.5 -21.5q-31 0 -57 21t-26 65q0 26 9.5 53t29.5 49t50.5 36.5
t72.5 15.5h4h2h260q94 0 165 -30t118.5 -79.5t71 -112t23.5 -128.5t-23.5 -128.5t-71 -112t-118.5 -79.5t-166 -30h-261q-20 0 -20 15zM256 670v-640h31q48 0 84.5 27.5t60.5 72.5t36 102.5t12 117.5t-12 117.5t-36 102.5t-60.5 72.5t-84.5 27.5h-31z" />
    <glyph glyph-name="E.ss01" unicode="&#xe003;" horiz-adv-x="571" 
d="M538 14q-3 -14 -20 -14h-493q-20 0 -20 15q0 10 19 19q20 9 35.5 42t15.5 103v342q0 55 -11 88q-9 27 -24.5 43.5t-31.5 16.5q-24 0 -42.5 -11t-27.5 -24t-4.5 -24t27.5 -11q30 0 46 -21.5t15 -48t-20.5 -48t-59.5 -21.5q-15 0 -30 5.5t-27 16t-19 26.5t-7 38q0 26 10 53
t30.5 49t51.5 36.5t74 15.5h468q17 0 19 -14l22 -158q1 -10 -13 -14q-15 -2 -18 10q-5 15 -19.5 38.5t-37.5 46.5t-55 39.5t-72 16.5h-63v-297h54q24 0 46.5 5.5t40 18t29 32.5t13.5 49q0 11 15 11q7 0 11.5 -3t3.5 -8q-6 -123 0 -244q1 -5 -3.5 -8.5t-11.5 -3.5
q-15 0 -15 12q-2 29 -13.5 49t-29 32t-40 17.5t-46.5 5.5h-54v-298h64q42 0 78 16.5t64.5 41t48.5 52.5t29 51q4 11 18 9q15 0 13 -12z" />
    <glyph glyph-name="F.ss01" unicode="&#xe004;" horiz-adv-x="551" 
d="M5 15q0 10 19 19q18 8 33.5 38.5t17.5 92.5v369l-3 36l-2 13q-1 8 -2.5 14.5t-3.5 12.5q-9 27 -24.5 43t-31.5 16q-24 0 -42.5 -11t-27.5 -24t-4.5 -24t27.5 -11q30 0 46 -21.5t15 -48t-20.5 -48t-59.5 -21.5q-31 0 -57 21t-26 65q0 26 10 53.5t31 50t52.5 36.5t74.5 14
h478q17 0 19 -14l22 -158q1 -5 -3 -9t-10 -5q-15 -3 -18 8q-5 15 -19.5 39t-38 47.5t-55.5 40t-71 16.5h-75v-326h52q23 1 44 7t37 18.5t26.5 32t12.5 46.5q2 12 15 12q7 0 11.5 -3.5t3.5 -8.5q-3 -58 -4 -121.5t4 -122.5q1 -5 -3.5 -8t-10.5 -3h-1q-13 0 -15 11
q-4 55 -39 79t-81 26h-52v-139q2 -63 17 -93t34 -38q19 -9 19 -19q0 -15 -20 -15h-281q-20 0 -20 15z" />
    <glyph glyph-name="G.ss01" unicode="&#xe005;" horiz-adv-x="737" 
d="M712 369q20 0 20 -15q0 -12 -19 -19q-20 -9 -35.5 -42t-15.5 -103v-131q0 -81 -25 -135.5t-65.5 -87.5t-91 -47t-101.5 -14q-70 0 -116.5 13.5t-73 34t-34.5 44.5t-0.5 44.5t28 34t51.5 13.5q12 0 27 -6t28.5 -18t22.5 -29.5t9 -41.5q0 -19 12.5 -37.5t48.5 -18.5
t58.5 17t35.5 45t18 63.5t7 72.5q-20 -7 -40.5 -11t-40.5 -4q-95 0 -166 31t-118.5 81t-71 114.5t-23.5 131.5t23.5 131.5t71 114.5t119 81t166.5 31q51 0 93 -15.5t71.5 -41.5t45.5 -59.5t16 -70.5q0 -19 -5.5 -37t-17.5 -32t-30.5 -22.5t-44.5 -8.5q-36 0 -56 21.5
t-20 53.5q0 30 6.5 61.5t6.5 57t-13 42t-53 16.5q-44 0 -79 -25t-59 -65.5t-37 -93t-13 -107.5q0 -58 15 -114t46 -100.5t79 -71.5t115 -27h15v122q0 70 -15.5 103t-35.5 42q-19 7 -19 19q0 15 19 15h261v0z" />
    <glyph glyph-name="H.ss01" unicode="&#xe006;" horiz-adv-x="746" 
d="M5 15q0 10 19 19q18 8 33.5 38.5t17.5 92.5v356q0 28 -3 49l-2 13q-1 8 -2.5 14.5t-3.5 12.5q-9 27 -24.5 43t-31.5 16q-24 0 -42.5 -11t-27.5 -24t-4.5 -24t27.5 -11q30 0 46 -21.5t15 -48t-20.5 -48t-59.5 -21.5q-31 0 -57 21t-26 65q0 26 9.5 53t29.5 49t50.5 36.5
t72.5 15.5h4h2h279q20 0 20 -15q0 -10 -19 -19q-20 -9 -35.5 -42t-15.5 -103v-153h234v153q0 70 -15.5 103t-35.5 42q-19 9 -19 19q0 15 19 15h282q20 0 20 -15q0 -10 -19 -19t-34 -39t-17 -93v-355q0 -70 15.5 -103t35.5 -42q19 -9 19 -19q0 -15 -20 -15h-282q-19 0 -19 15
q0 10 19 19q20 9 35.5 42t15.5 103v154h-234v-154q0 -70 15.5 -103t35.5 -42q19 -9 19 -19q0 -15 -20 -15h-281q-20 0 -20 15z" />
    <glyph glyph-name="I.ss01" unicode="&#xe007;" horiz-adv-x="332" 
d="M5 15q0 10 19 19q18 8 33.5 38.5t17.5 92.5v369l-3 36l-2 13q-1 8 -2.5 14.5t-3.5 12.5q-9 27 -24.5 43t-31.5 16q-24 0 -42.5 -11t-27.5 -24t-4.5 -24t27.5 -11q30 0 46 -21.5t15 -48t-20.5 -48t-59.5 -21.5q-31 0 -57 21t-26 65q0 26 9.5 53t29.5 49t50.5 36.5
t72.5 15.5h4h281q20 0 20 -15q0 -10 -19 -19q-20 -9 -35.5 -42t-15.5 -103v-342q0 -70 15.5 -103t35.5 -42q19 -9 19 -19q0 -15 -20 -15h-281q-20 0 -20 15z" />
    <glyph glyph-name="J.ss01" unicode="&#xe008;" horiz-adv-x="552" 
d="M207 22q25 0 42 8t27.5 29t15 56.5t4.5 89.5v329l-3 36l-2 13q-1 7 -2.5 13t-3.5 12q-9 27 -24.5 44t-32.5 17q-23 0 -42 -11t-27.5 -24t-4.5 -24t27 -11q31 0 47 -21.5t15 -48t-21 -48t-60 -21.5q-31 0 -56.5 21t-25.5 65q0 25 9.5 52t29.5 49.5t50.5 37t71.5 15.5h4h3
h279q20 0 20 -15q0 -10 -19 -19q-20 -9 -35.5 -42t-15.5 -103v-319q0 -67 -28.5 -109.5t-70.5 -66.5t-88.5 -32.5t-82.5 -8.5q-55 0 -93 18.5t-59.5 47t-27.5 61t3 61t32 47t59 18.5q33 0 50.5 -17t20 -39t-8.5 -42.5t-33 -27.5q-9 -3 -12 -17.5t3 -30.5t21.5 -29t44.5 -13z
" />
    <glyph glyph-name="K.ss01" unicode="&#xe009;" horiz-adv-x="705" 
d="M5 15q0 10 19 19q20 9 35.5 42t15.5 103v342q0 28 -3 49l-2 13q-1 8 -2.5 14.5t-3.5 12.5q-9 27 -24.5 43t-31.5 16q-24 0 -42.5 -11t-27.5 -24t-4.5 -24t27.5 -11q30 0 46 -21.5t15 -48t-20.5 -48t-59.5 -21.5q-31 0 -57 21t-26 65q0 26 9.5 53t29.5 49t50.5 36.5
t72.5 15.5h4h281q20 0 20 -15q0 -10 -19 -19t-34 -39t-17 -93v-170l173 179q17 17 18.5 36t-5.5 35.5t-20.5 30t-26.5 19.5q-18 10 -18 21q0 15 20 15h236q19 0 19 -15q0 -12 -18 -21q-18 -8 -43 -25t-50 -35.5t-45 -36t-28 -25.5l-137 -141q53 10 92 1.5t68 -30.5t49.5 -53
t36 -66t27.5 -71t24 -66.5t25.5 -52.5t32.5 -30q19 -7 19 -18q0 -15 -20 -15h-153q-48 0 -81.5 22.5t-39.5 58.5q-6 39 -15 83.5t-23.5 83.5t-37 66.5t-55.5 32.5l-24 -25v-157q2 -63 17 -93t34 -38q19 -9 19 -19q0 -15 -20 -15h-281q-20 0 -20 15z" />
    <glyph glyph-name="L.ss01" unicode="&#xe00a;" horiz-adv-x="563" 
d="M537 14q-2 -14 -19 -14h-493q-20 0 -20 15q0 10 19 19q20 9 35.5 42t15.5 103v342q0 55 -11 88q-9 27 -24.5 43.5t-31.5 16.5q-24 0 -42.5 -11t-27.5 -24t-4.5 -24t27.5 -11q30 0 46 -21.5t15 -48t-20.5 -48t-59.5 -21.5q-15 0 -30 5.5t-27 16t-19 26.5t-7 38q0 26 10 53
t30.5 49t51.5 36.5t74 15.5h282q19 0 19 -15q0 -10 -19 -19q-20 -9 -35.5 -42t-15.5 -103v-486h64q42 0 78 22.5t63.5 54.5t45.5 67.5t26 61.5q3 10 17 8t12 -13z" />
    <glyph glyph-name="M.ss01" unicode="&#xe00b;" horiz-adv-x="912" 
d="M419 57q-8 0 -14.5 3.5t-8.5 9.5l-239 519l-24 -394q-2 -30 6 -56.5t21.5 -47.5t29 -35.5t29.5 -20.5q19 -10 18 -20q0 -15 -19 -15h-195q-20 0 -20 15q0 13 19 19q30 13 51 57t25 105l19 325q0 19 -2.5 41t-10 43t-20.5 37.5t-34 23.5q-3 0 -5 2q-2 0 -4 0.5t-4 0.5
q-23 0 -42 -11t-27.5 -24t-4.5 -24t27 -11q31 0 47 -21.5t14.5 -48t-21 -48t-59.5 -21.5q-31 0 -56.5 21t-25.5 65q0 34 13 62t35.5 48.5t51.5 32t62 11.5h226q8 0 14.5 -3.5t8.5 -9.5l176 -403l138 416h236q26 0 26 -15q0 -10 -25 -19q-24 -9 -38.5 -40t-10.5 -96l26 -381
q4 -32 11.5 -52t15.5 -33t17 -19.5t18 -10.5q19 -9 19 -19q0 -15 -20 -15h-281q-18 0 -20 12.5t19 21.5q16 8 28 33t13 78l-29 462l-177 -537q-3 -13 -22 -13h-1z" />
    <glyph glyph-name="N.ss01" unicode="&#xe00c;" horiz-adv-x="749" 
d="M652 13q0 -13 -17 -13q-19 0 -27 11l-475 552v-368q0 -30 8.5 -56.5t21 -47.5t27.5 -35.5t29 -20.5q19 -10 18 -20q0 -15 -19 -15h-195q-20 0 -20 15q0 13 19 19q30 13 53 57t23 105v325q0 19 -2.5 41.5t-10 43t-20.5 37t-34 23.5q-1 0 -1.5 0.5t-1.5 0.5q-10 2 -12 2
q-24 0 -42.5 -11t-26.5 -24t-4 -24t27 -11q31 0 47 -21.5t14.5 -48t-21 -48t-59.5 -21.5q-31 0 -56.5 21t-25.5 65q0 34 13 62t35.5 48.5t52 32t62.5 11.5h214l371 -420v225q0 30 -8.5 56.5t-21 47.5t-28 35.5t-28.5 20.5q-18 7 -18 20q0 15 19 15h194q20 0 20 -15
q0 -12 -19 -20q-15 -6 -28.5 -20.5t-24 -36t-16.5 -48t-6 -56.5v-491z" />
    <glyph glyph-name="P.ss01" unicode="&#xe00d;" horiz-adv-x="639" 
d="M5 15q0 10 19 19q18 8 33.5 38.5t17.5 92.5v369l-3 36l-2 13q-1 8 -2.5 14.5t-3.5 12.5q-9 27 -24.5 43t-31.5 16q-24 0 -42.5 -11t-27.5 -24t-4.5 -24t27.5 -11q30 0 46 -21.5t15 -48t-20.5 -48t-59.5 -21.5q-31 0 -57 21t-26 65q0 26 10 53.5t31 50t52.5 36.5t74.5 14
h289q94 0 151.5 -14.5t89 -37.5t42 -53t10.5 -60q0 -41 -31 -82t-81.5 -77t-113.5 -64t-127 -43v-90q0 -70 15.5 -103t35.5 -42q19 -9 19 -19q0 -15 -20 -15h-281q-20 0 -20 15zM256 665v-358q34 15 63 38t50.5 51.5t33.5 59.5t12 63q0 30 -8.5 56.5t-26 46.5t-43 31.5
t-58.5 11.5h-23z" />
    <glyph glyph-name="Q.ss01" unicode="&#xe00e;" horiz-adv-x="787" 
d="M162 -60q30 23 59.5 38.5t58.5 24.5q-60 18 -104.5 53.5t-74 82.5t-44.5 101.5t-15 110.5q0 68 22 133.5t66 116.5t110 82.5t154 31.5t153.5 -31.5t109.5 -82.5t66 -116.5t22 -133.5q0 -58 -15.5 -113.5t-47 -102.5t-78 -82.5t-109.5 -51.5q64 -19 125 -51.5t118.5 -63.5
t112.5 -54t106 -23q35 0 47.5 18.5t12.5 37.5q0 24 9 41.5t22.5 29t29 17.5t27.5 6q30 0 51 -13.5t28 -34t-1 -44.5t-34.5 -44.5t-73 -34t-116.5 -13.5q-114 0 -201 18t-156 43t-124 51.5t-104.5 44t-98.5 19.5t-106 -21q-5 -2 -8.5 2.5t1.5 7.5zM394 23q42 0 74 28t53 74.5
t31.5 105t10.5 120t-10.5 120.5t-32 105.5t-53 74.5t-74.5 28q-42 0 -74 -28t-53 -74.5t-31.5 -105.5t-10.5 -120.5t10.5 -120t32 -105t53 -74.5t74.5 -28z" />
    <glyph glyph-name="R.ss01" unicode="&#xe00f;" horiz-adv-x="683" 
d="M510 0q-48 0 -81.5 22.5t-40.5 58.5q-6 36 -15 75.5t-23.5 73.5t-36 57.5t-53.5 27.5q-2 0 -4 -1v-145q2 -65 17 -95.5t34 -39.5t19 -19q0 -15 -19 -15h-282q-20 0 -20 15q0 10 19 19q20 9 35.5 42t15.5 103v342q0 55 -11 88q-9 27 -24.5 43.5t-31.5 16.5
q-24 0 -42.5 -11t-27.5 -24t-4.5 -24t27.5 -11q30 0 46 -21.5t15 -48t-20.5 -48t-59.5 -21.5q-15 0 -30 5.5t-27 16t-19 26.5t-7 38q0 26 10 53t30.5 49t51.5 36.5t74 15.5h291q94 0 151.5 -14.5t89 -37.5t42 -53t10.5 -60q0 -32 -19.5 -60.5t-53 -53t-78 -45t-93.5 -35.5
q57 2 94.5 -18t63 -51.5t42 -69.5t31 -73t30 -61.5t38.5 -34.5q19 -7 19 -18q0 -15 -19 -15h-154zM256 665v-315q34 11 63 27.5t50.5 37.5t33.5 47t12 57q0 30 -8.5 56.5t-26 46.5t-43 31.5t-58.5 11.5h-23z" />
    <glyph glyph-name="U.ss01" unicode="&#xe010;" horiz-adv-x="669" 
d="M75 534l-3 36l-2 13q-1 8 -2.5 14.5t-3.5 12.5q-9 27 -24.5 43t-31.5 16q-24 0 -42.5 -11t-27.5 -24t-4.5 -24t27.5 -11q30 0 46 -21.5t15 -48t-20.5 -48t-59.5 -21.5q-31 0 -57 21t-26 65q0 26 10 53t30.5 49.5t52 37t73.5 14.5h281q20 0 20 -15q0 -10 -19 -19
q-20 -9 -35.5 -42t-15.5 -103v-347q0 -51 20.5 -83t52 -46.5t67.5 -12t67.5 20t52 49t20.5 76.5v327q0 30 -8.5 56.5t-21 47.5t-28 35.5t-28.5 20.5q-19 7 -19 20q0 15 20 15h195q19 0 19 -15q0 -13 -18 -20q-15 -6 -29 -20.5t-24.5 -36t-16.5 -48t-6 -56.5v-326
q0 -68 -36.5 -111.5t-92 -64t-119.5 -19t-119.5 24t-92 64.5t-36.5 102v360z" />
    <glyph glyph-name="V.ss01" unicode="&#xe011;" horiz-adv-x="702" 
d="M122 563q-8 18 -18.5 36.5t-23.5 34t-28 25t-33 9.5q-23 0 -37 -11t-18.5 -23.5t1 -23.5t22.5 -11q31 0 47 -21.5t15 -48t-21 -48t-60 -21.5q-42 0 -62.5 27.5t-20.5 64.5q0 25 10 51.5t30 48t50.5 35t71.5 13.5h294q19 0 19 -15q0 -11 -18 -19q-11 -6 -20.5 -17
t-15 -27.5t-4.5 -38.5t10 -50l5 -12l112 -278l97 295q7 21 1 41.5t-18.5 37t-29 29.5t-29.5 19q-19 7 -19 20q0 15 20 15h231q19 0 19 -15q1 -12 -18 -20q-15 -6 -33 -18.5t-34.5 -30t-30.5 -38t-21 -41.5l-180 -542h-33l-212 526l-2 6l-8 18z" />
    <glyph glyph-name="W.ss01" unicode="&#xe012;" horiz-adv-x="1020" 
d="M767 665q-18 7 -18 20q0 15 19 15h232q19 0 19 -15q0 -13 -18 -20q-15 -6 -33.5 -18.5t-35.5 -29.5t-30.5 -37.5t-20.5 -42.5l-163 -523l-5 -19h-32l-175 526l-2 5l-166 -531h-31l-178 533q-7 16 -15 35t-19 38q-20 32 -40 46.5t-36 19.5q-2 0 -3 1h-5q-23 0 -37 -11
t-18.5 -23.5t1 -23.5t23.5 -11q31 0 47 -21.5t14.5 -48t-21 -48t-59.5 -21.5q-42 0 -62.5 27.5t-20.5 64.5q0 23 8 46.5t24 43.5t40.5 35t57.5 20q4 3 11 3h13h8h294h3h4q19 0 19 -15q0 -11 -18 -19q-11 -6 -22 -16t-17 -27t-5 -42t13 -60h-1l80 -238l79 255q7 21 1 41.5
t-18.5 37t-29 29.5t-29.5 19q-19 8 -19 20q0 8 7 12q4 3 13 3h322q19 0 19 -15q0 -10 -18 -19q-11 -6 -21.5 -15.5t-16.5 -25t-6 -38t9 -54.5l4 -12l79 -237l78 254q7 21 1 41.5t-18.5 37t-29 29.5t-29.5 19z" />
    <glyph glyph-name="X.ss01" unicode="&#xe013;" horiz-adv-x="735" 
d="M442 665q-18 7 -18 20q0 15 19 15h231q20 0 20 -15q0 -12 -19 -20q-15 -6 -37.5 -20t-46 -32t-45.5 -38t-35 -38l-81 -108l159 -276q18 -31 36 -52.5t34.5 -35.5t31 -22t25.5 -11q19 -5 19 -17q0 -15 -19 -15h-322q-19 0 -19 15q0 11 18 19q20 11 25 43.5t-24 82.5
l-72 126l-94 -125q-14 -18 -16.5 -37.5t2.5 -37t15.5 -31.5t24.5 -20q18 -8 18 -20q0 -15 -19 -15h-233q-20 0 -20 15q0 12 19 20q15 6 37.5 20t46 32t45.5 38t36 38l119 156l-113 197l-19 28.5t-24 34t-27.5 34t-29.5 29.5q-12 10 -23 15.5t-20 8.5q-8 2 -11 2
q-23 0 -37 -11t-18.5 -23.5t1 -23.5t23.5 -11q31 0 47 -21.5t14.5 -48t-21 -48t-59.5 -21.5q-42 0 -62.5 27.5t-20.5 64.5q0 23 8 46.5t24 44t41 35t58 19.5q4 3 11 3h12h8h302q19 0 19 -15q0 -10 -18 -19q-21 -11 -25.5 -43.5t23.5 -82.5l45 -79l59 77q13 18 15.5 37.5
t-2.5 37.5t-16.5 32t-24.5 20z" />
    <glyph glyph-name="Y.ss01" unicode="&#xe014;" horiz-adv-x="723" 
d="M203 15q0 10 19 19q17 8 31.5 33.5t18.5 78.5v136l-125 239q-31 60 -57.5 91.5t-48.5 44.5q-16 7 -29 7q-23 0 -36.5 -10t-17.5 -22.5t2 -22.5t24 -10q31 0 47 -21.5t14.5 -48t-21 -48t-59.5 -21.5q-42 0 -62.5 27.5t-20.5 64.5q0 22 7.5 45t23 43t38.5 35t55 21
q4 4 13 4h322q19 0 19 -15q0 -11 -18 -19q-11 -6 -21 -18t-13.5 -30t0.5 -42.5t21 -54.5l105 -191l94 208q9 21 5.5 41t-14 37t-26 30t-28.5 19q-18 7 -18 20q0 15 19 15h237q19 0 19 -15q0 -13 -18 -20q-15 -6 -35 -19t-39.5 -30.5t-36.5 -37.5t-26 -41l-113 -250v-122
q2 -63 17 -93t34 -38q19 -9 19 -19q0 -15 -19 -15h-282q-20 0 -20 15z" />
    <glyph glyph-name="a.ss01" unicode="&#xe015;" horiz-adv-x="589" 
d="M346 88q-17 -37 -47 -60.5t-65.5 -34t-72.5 -8.5t-67 17t-49 42.5t-19 67.5q0 42 22.5 69t56 45t72 30.5t71 25.5t53 31t17.5 47q-2 12 -6.5 31t-15.5 37t-29 31.5t-46 13.5q-31 0 -36.5 -11.5t0 -29.5t15.5 -39.5t10 -40.5q0 -29 -22.5 -46t-49.5 -18t-49.5 16t-22.5 56
q0 27 12.5 53t34.5 46.5t53 33t67 12.5q55 0 101 -10.5t80 -34t55 -60t27 -87.5l20 -168l9 -75q5 -42 16 -88t31.5 -84.5t51 -63.5t74.5 -25q35 0 47.5 18.5t12.5 36.5q0 24 9.5 42t23 29.5t28.5 17.5t27 6q30 0 51 -13.5t28 -34t-1 -44.5t-34 -44.5t-72.5 -34t-116.5 -13.5
q-51 0 -109.5 17.5t-110 54.5t-89 94.5t-45.5 137.5zM212 112q0 -26 17 -35.5t39.5 -4.5t43 24.5t28.5 52.5l-15 143q-13 -27 -32 -45t-37 -36t-31 -40.5t-13 -58.5z" />
    <glyph glyph-name="f.ss01" unicode="&#xe016;" horiz-adv-x="376" 
d="M263 687q-38 0 -59.5 -23.5t-24 -54.5t14.5 -62.5t56 -46.5h133q10 0 10 -10v-13q0 -10 -10 -10h-133v-408q0 -81 -27.5 -135.5t-71 -87.5t-96 -47t-103.5 -14q-70 0 -116.5 13.5t-73 34t-34.5 44.5t-0.5 44.5t28 34t51.5 13.5q12 0 27 -6t28.5 -18t22.5 -29.5t9 -41.5
q0 -19 12.5 -37.5t48.5 -18.5q44 0 68 25t35.5 63t14 84t2.5 88v399h-60q-10 0 -10 10v13q0 10 10 10h108q-41 11 -65.5 35t-24.5 56q0 24 11 47t35.5 41t63.5 29t94 11q49 0 83 -10t55.5 -25.5t31 -34.5t9.5 -37q0 -24 -10 -39.5t-25 -23t-33 -8t-33 5.5t-25 17t-10 26
q0 16 7 33.5t10 31.5t-3 23t-31 9z" />
    <glyph glyph-name="g.ss01" unicode="&#xe017;" horiz-adv-x="594" 
d="M294 48q-45 0 -81 9t-65 26q-23 -3 -35.5 -14.5t-12.5 -22.5t17.5 -15.5t47 -5t68 0.5t80.5 1q49 0 98 -4t88 -17t63.5 -38t24.5 -67q0 -46 -26.5 -85t-69 -67t-95.5 -44t-105 -16q-74 0 -136.5 14.5t-114.5 36.5t-94.5 47.5t-77 47.5t-61.5 36.5t-49 14.5q-20 0 -29 -9
t-7 -20t14.5 -20t35.5 -9q32 0 48.5 -20.5t15 -45t-20.5 -45t-58 -20.5q-27 0 -48 17.5t-31.5 43.5t-9.5 56t18.5 56t53.5 43.5t94 17.5q41 0 89 -9.5t99 -24t103 -31t102.5 -31t96.5 -24t86 -9.5q36 0 61 12.5t25 42.5q0 20 -20 29.5t-53 13.5t-75.5 4.5t-86.5 1t-86.5 4.5
t-75.5 14.5t-53 30.5t-20 53q0 22 8.5 38t22 27t31 17.5t34.5 9.5q-39 30 -60 72t-24.5 87t10.5 89t46.5 79t82.5 56.5t118 21.5q46 0 83.5 -10t67.5 -28q8 5 13 13.5t5 16.5q0 16 -10 23t-22.5 13t-22.5 14.5t-10 27.5q0 34 24.5 51t54.5 17t55.5 -18t25.5 -54
q0 -32 -26 -66t-65 -53q39 -30 60 -72t24.5 -86.5t-11 -88.5t-47 -79t-82.5 -56.5t-118 -21.5zM295 81q31 0 51.5 29t30.5 72.5t10 94t-10 94t-30.5 72.5t-51.5 29t-51.5 -29t-31 -72.5t-10.5 -94t10.5 -94t31 -72.5t51.5 -29z" />
    <glyph glyph-name="h.ss01" unicode="&#xe018;" horiz-adv-x="670" 
d="M404 280q-6 33 -11.5 62t-14 50.5t-21 33.5t-32.5 12q-30 0 -51.5 -25.5t-22.5 -72.5v-161q0 -70 15.5 -103t35.5 -42q19 -9 19 -19q0 -15 -19 -15h-277q-20 0 -20 15q0 10 19 19q20 9 35.5 42t15.5 103v382v19t-2 21.5t-6.5 19t-12.5 12.5q-14 7 -14 18q0 14 14 16
q25 1 50.5 6t47.5 12.5t40 16.5t30 17q5 2 9.5 4t8.5 2q11 0 11 -10v-299q16 37 52 63.5t88 26.5q44 0 74.5 -10t51 -32t33 -57t21.5 -85l46 -252q7 -41 19.5 -87t33 -84.5t51 -64t74.5 -25.5q35 0 47.5 18.5t12.5 36.5q0 24 9 42t22.5 29.5t29 17.5t27.5 6q31 0 51.5 -13.5
t27.5 -34t-1 -44.5t-34.5 -44.5t-73 -34t-116.5 -13.5q-50 0 -107 15t-108.5 51.5t-91.5 98.5t-55 156z" />
    <glyph glyph-name="i.ss01" unicode="&#xe019;" 
d="M40 445q0 15 14 15q25 1 50.5 6.5t47.5 13t40 16.5t30 17q5 2 9.5 4t8.5 2q10 0 10 -10v-441q0 -42 2.5 -88t13.5 -84t35 -63t68 -25q36 0 48.5 18.5t12.5 37.5q0 24 9 41.5t22.5 29.5t28.5 18t27 6q31 0 51.5 -13.5t28 -34t-0.5 -44.5t-34.5 -44.5t-73 -34t-116.5 -13.5
q-51 0 -103.5 14.5t-95.5 47.5t-70.5 87.5t-27.5 134.5v315q-1 15 -5 30.5t-16 22.5q-14 7 -14 18zM142 536q-24 0 -43 7t-32 19.5t-18.5 29t-2.5 35.5t15 35.5t30 29t40 19.5t45 7t42.5 -7t32 -19.5t18.5 -29t2 -35.5q-3 -19 -15 -35.5t-29.5 -29t-39.5 -19.5t-45 -7z" />
    <glyph glyph-name="j.ss01" unicode="&#xe01a;" horiz-adv-x="303" 
d="M253 59q0 -81 -27.5 -135.5t-70.5 -87.5t-96 -47t-103 -14q-70 0 -116.5 13.5t-73 34t-34.5 44.5t-1 44.5t27.5 34t51.5 13.5q12 0 27 -6t28.5 -18t23 -29.5t9.5 -41.5q0 -19 12.5 -37.5t47.5 -18.5q43 0 67 24.5t35.5 62t14 82.5t2.5 87v310q-1 15 -5 30.5t-16 22.5
q-15 7 -15 18q0 15 15 15q25 1 50.5 6.5t47.5 13t40 16.5t30 17q4 2 8.5 4t9.5 2q11 0 11 -10v-450zM142 536q-24 0 -43 7t-32 19.5t-18.5 29t-2.5 35.5t15 35.5t30 29t40 19.5t45 7t42.5 -7t32 -19.5t18.5 -29t2 -35.5q-3 -19 -15 -35.5t-29.5 -29t-39.5 -19.5t-45 -7z" />
    <glyph glyph-name="k.ss01" unicode="&#xe01b;" horiz-adv-x="679" 
d="M337 472q-18 9 -18 20q0 15 20 15h236q18 0 20 -15q0 -12 -19 -20q-18 -8 -39 -21.5t-43.5 -29.5t-44 -34.5t-39.5 -37.5l-35 -36q49 7 85 -11t63.5 -52t48.5 -80t39.5 -95t36.5 -96.5t40 -85.5t50 -61t66 -23q35 0 47.5 18.5t12.5 36.5q0 24 9.5 42t23 29.5t28.5 17.5
t27 6q30 0 51 -13.5t28 -34t-1 -44.5t-34 -44.5t-72.5 -34t-116.5 -13.5q-91 0 -155 31t-110 78.5t-78 104.5t-56.5 109.5t-46.5 93.5t-48 56l-63 -65v-4q0 -70 15.5 -103t35.5 -42q19 -9 19 -19q0 -15 -20 -15h-275q-20 0 -20 15q0 10 19 19q20 9 35.5 42t15.5 103v400
q-1 16 -5 31.5t-16 22.5q-14 7 -14 18q0 15 14 15q25 1 50.5 6.5t47.5 13t40 16t30 16.5q9 6 18 6q10 0 10 -10v-484l116 120q17 17 19.5 36t-4 35.5t-19 30t-25.5 20.5z" />
    <glyph glyph-name="l.ss01" unicode="&#xe01c;" 
d="M250 68q0 -42 2.5 -88t13.5 -84t35 -63t68 -25q36 0 48.5 18.5t12.5 37.5q0 24 9 41.5t22.5 29.5t28.5 18t27 6q31 0 51.5 -13.5t28 -34t-0.5 -44.5t-34.5 -44.5t-73 -34t-116.5 -13.5q-51 0 -103.5 14.5t-95.5 47.5t-70.5 87.5t-27.5 134.5v520q-1 16 -4.5 31.5
t-16.5 22.5q-14 7 -14 18q0 15 14 15q25 1 50.5 6.5t47.5 13t40 16.5t30 17q5 2 9.5 4t8.5 2q10 0 10 -10v-647v0z" />
    <glyph glyph-name="m.ss01" unicode="&#xe01d;" horiz-adv-x="976" 
d="M40 445q0 14 14 16q25 1 50.5 6.5t47.5 13t40 16t30 16.5q9 6 18 6q11 0 11 -10v-72q15 29 44.5 48.5t74.5 19.5q36 0 63 -6.5t46.5 -21t33 -37.5t23.5 -55q7 22 21.5 44t35.5 38.5t47.5 27t56.5 10.5q44 0 74.5 -10t51 -31.5t33 -56.5t21.5 -85l46 -252q7 -41 19.5 -87
t33 -84.5t51 -64t74.5 -25.5q35 0 47.5 18.5t12.5 36.5q0 24 9 42t22.5 29.5t29 17.5t27.5 6q30 0 51 -13.5t28 -34t-1 -44.5t-34.5 -44.5t-73 -34t-116.5 -13.5q-50 0 -107 15t-108.5 51.5t-91.5 98.5t-55 156l-31 184q-6 33 -11.5 62t-14 50.5t-21 33.5t-32.5 12
q-15 0 -29.5 -8.5t-25.5 -23.5t-18.5 -35t-7.5 -43q0 -4 1 -6l25 -143q12 -69 21.5 -102.5t29.5 -42.5q19 -9 19 -19q0 -15 -20 -15h-276q-19 0 -19 15q0 10 19 19q9 4 19 13t18.5 23t12.5 34.5t0 48.5l-17 127q-4 33 -9.5 62t-14.5 50.5t-22 33.5t-33 12q-44 0 -53 -61
v-212q2 -63 17 -93t34 -38q19 -9 19 -19q0 -15 -19 -15h-277q-20 0 -20 15q0 10 19 19q20 9 35.5 42t15.5 103v195q-1 16 -5 31t-16 22q-14 7 -14 18z" />
    <glyph glyph-name="n.ss01" unicode="&#xe01e;" horiz-adv-x="670" 
d="M404 280q-6 33 -11.5 62t-14 50.5t-21 33.5t-32.5 12q-30 0 -51.5 -25.5t-22.5 -72.5v-161q0 -70 15.5 -103t35.5 -42q19 -9 19 -19q0 -15 -19 -15h-277q-20 0 -20 15q0 10 19 19q20 9 35.5 42t15.5 103v176v19t-2 21.5t-6.5 19t-12.5 12.5q-14 7 -14 18v1q0 13 14 15
q25 1 50.5 6.5t47.5 13t40 16t30 16.5q9 6 18 6q11 0 11 -10v-93q16 37 52 63.5t88 26.5q44 0 74.5 -10t51 -32t33 -57t21.5 -85l46 -252q7 -41 19.5 -87t33 -84.5t51 -64t74.5 -25.5q35 0 47.5 18.5t12.5 36.5q0 24 9 42t22.5 29.5t29 17.5t27.5 6q31 0 51.5 -13.5
t27.5 -34t-1 -44.5t-34.5 -44.5t-73 -34t-116.5 -13.5q-50 0 -107 15t-108.5 51.5t-91.5 98.5t-55 156z" />
    <glyph glyph-name="p.ss01" unicode="&#xe01f;" horiz-adv-x="636" 
d="M40 445q0 15 15 15q51 3 89 19.5t62 33.5q4 2 8.5 4t9.5 2q8 0 10 -10l8 -55q15 21 37 36t51 15q69 0 120 -21t84.5 -55t49.5 -78t16 -90q0 -49 -17.5 -97t-52 -85.5t-84.5 -60.5t-116 -23q-27 0 -46.5 8.5t-33.5 22.5q-6 -71 -35 -119t-71.5 -77.5t-92.5 -42t-98 -12.5
q-70 0 -116.5 13.5t-73 34t-34.5 44.5t-0.5 44.5t28 34t51.5 13.5q12 0 27 -6t28.5 -18t22.5 -29.5t9 -41.5q0 -19 12.5 -37.5t48.5 -18.5q44 0 68 25t35.5 63t14 84t2.5 88v287q0 8 -0.5 18.5t-2.5 21t-6 19t-12 13.5q-15 7 -15 18zM331 470q-21 0 -35.5 -8t-24 -20.5
t-14.5 -28.5t-6 -31v-235q1 -20 5 -41.5t13 -39t23.5 -29t37.5 -11.5q28 0 48 33t31 82t12.5 107t-7.5 107t-29.5 82t-53.5 33z" />
    <glyph glyph-name="r.ss01" unicode="&#xe020;" horiz-adv-x="383" 
d="M251 157q2 -59 17 -87t33 -36q19 -9 19 -19q0 -15 -19 -15h-276q-20 0 -20 15q0 10 19 19q20 9 35.5 42t15.5 103v176v18.5t-2 21t-6.5 19t-12.5 13.5q-14 7 -14 18q0 15 14 15q25 1 50.5 6.5t47.5 13t40 16.5t30 17q5 2 9.5 4t8.5 2q11 0 11 -10v-77q15 42 39.5 90.5
t59 89.5t78 68t95.5 27q40 0 65 -12.5t36.5 -31.5t11 -41.5t-13 -41.5t-35 -31.5t-54.5 -12.5q-25 0 -39.5 13t-23.5 28.5t-16 28.5t-17 13q-22 0 -43 -17t-40.5 -44t-36.5 -60t-30.5 -65.5t-22.5 -61t-13 -45.5v-169z" />
    <glyph glyph-name="t.ss01" unicode="&#xe021;" horiz-adv-x="367" 
d="M31 500q12 0 35.5 6.5t50.5 20.5t53.5 37.5t45.5 58.5h20v-36q0 -11 0.5 -25.5t3 -28t8.5 -23t18 -10.5h65q10 0 10 -10v-13q0 -10 -10 -10h-95v-399q0 -42 2.5 -88t13.5 -84t35 -63t68 -25q35 0 47.5 18.5t12.5 37.5q0 24 9.5 41.5t23 29.5t28.5 18t27 6q30 0 51 -13.5
t28 -34t-1 -44.5t-34 -44.5t-72.5 -34t-116.5 -13.5q-51 0 -103.5 14.5t-95.5 47.5t-70.5 87.5t-27.5 134.5v357q-1 19 -6.5 35t-23.5 16h-21q-10 0 -10 10v13q0 10 10 10h21z" />
    <glyph glyph-name="u.ss01" unicode="&#xe022;" horiz-adv-x="599" 
d="M318 445q0 15 15 15q25 1 50 6.5t47 13t40.5 16.5t30.5 17q4 2 8.5 4t9.5 2q10 0 10 -10v-369l1 -72q0 -42 2 -87.5t13 -83.5t35 -63t68 -25q36 0 48.5 18.5t12.5 36.5q0 24 9 42t22.5 29.5t28.5 17.5t27 6q31 0 51.5 -13.5t28 -34t-0.5 -44.5t-34.5 -44.5t-73 -34
t-116.5 -13.5q-50 0 -103 14.5t-96 47.5t-70.5 87.5t-27.5 134.5v15q-20 -35 -55.5 -57t-82.5 -22q-39 0 -71.5 11t-56 32t-36.5 50.5t-13 66.5v215q-1 16 -5 33t-17 24q-14 8 -14 18v1q0 13 15 15q25 1 50 6.5t47 13t40.5 16t30.5 16.5q7 6 18 6q10 0 10 -10v-364
q0 -41 10.5 -62.5t26 -28t33.5 0t33.5 21t26 34.5t10.5 40v223q-1 16 -4.5 31.5t-16.5 22.5q-15 7 -15 18z" />
    <glyph glyph-name="v.ss01" unicode="&#xe023;" horiz-adv-x="610" 
d="M390 465q-19 7 -19 20q0 15 20 15h199q19 0 19 -15q0 -13 -18 -20q-15 -6 -32.5 -19t-33.5 -30.5t-30 -37.5t-23 -41l-151 -336l-38 -1l-168 348l-34 70q-18 37 -42.5 85t-54.5 90t-64.5 71t-73.5 29q-18 0 -28 -5t-15 -13.5t-6 -18.5t-1 -19q0 -24 -9.5 -41.5t-23 -29
t-28.5 -17.5t-27 -6q-31 0 -51.5 13.5t-27.5 34t1 44t34.5 44t73 34t116.5 13.5q49 0 103.5 -13.5t108.5 -47t105 -90.5t92 -144h1l40 -90l65 -147l65 144q9 20 8.5 40t-8 37.5t-19.5 30.5t-25 19z" />
    <glyph glyph-name="w.ss01" unicode="&#xe024;" horiz-adv-x="879" 
d="M81 418q-18 37 -42.5 85t-54.5 90t-64.5 71t-73.5 29q-18 0 -28 -5t-15 -13.5t-6 -18.5t-1 -19q0 -24 -9.5 -41.5t-23 -29t-28.5 -17.5t-27 -6q-31 0 -51.5 13.5t-27.5 34t1 44t34.5 44t73 34t116.5 13.5q50 0 104.5 -14.5t108.5 -50.5t104.5 -96.5t92.5 -152.5l33 -71
l63 -134l52 123q5 13 2.5 33.5t-10.5 41t-20 37.5t-25 23q-18 7 -18 20q0 15 19 15h222q19 0 19 -15q0 -11 -18 -19q-11 -6 -17.5 -14.5t-6.5 -24t7.5 -39.5t24.5 -60l57 -121l55 131q9 21 8 41t-8 37t-19 30t-25 19q-19 8 -18 20q0 15 19 15h199q20 0 20 -15q0 -12 -19 -20
q-15 -6 -32.5 -19t-34 -30.5t-30 -37.5t-22.5 -41l-142 -336l-38 -1l-130 285l-120 -284l-38 -1l-162 356z" />
    <glyph glyph-name="x.ss01" unicode="&#xe025;" horiz-adv-x="600" 
d="M382 464q-8 6 -13 10.5t-5 9.5q0 16 19 16h175q19 0 19 -15q0 -12 -18 -20q-15 -6 -36 -18t-44 -28t-44 -33.5t-36 -34.5l-37 -42l93 -140l50 -73q16 -23 36 -53.5t42.5 -62.5t47.5 -62.5t50.5 -54.5t51 -39t49.5 -15q18 0 28 5t15 13t6 18t1 19q0 24 9 42t22.5 29.5
t28.5 17.5t27 6q31 0 51.5 -13.5t28 -34t-0.5 -44.5t-34.5 -44.5t-73 -34t-116.5 -13.5q-50 0 -106.5 13t-114 46t-115 89.5t-109.5 143.5l-55 91l-19 28l-35 -39q-14 -17 -20.5 -34.5t-6.5 -33t6 -27.5t17 -17q18 -8 18 -20q0 -15 -19 -15h-196q-18 0 -18 15q0 12 17 20
q15 6 35.5 18t43 28t43 33.5t35.5 34.5l60 67l-75 113q-47 70 -78.5 100.5t-54.5 37.5q-18 6 -18 18q0 15 19 15h285q18 0 18 -15q0 -10 -17 -20q-20 -10 -15.5 -37.5t42.5 -85.5l2 -4l13 14q29 33 38.5 64.5t-12.5 47.5z" />
    <glyph glyph-name="y.ss01" unicode="&#xe026;" horiz-adv-x="610" 
d="M390 465q-19 7 -19 20q0 15 20 15h199q19 0 19 -15q0 -13 -18 -20q-15 -6 -32.5 -19t-33.5 -30.5t-30 -37.5t-23 -41l-128 -285q-4 -8 -8.5 -18.5t-10.5 -22.5l-4 -10h-1q-15 -31 -37 -67t-48.5 -67t-57 -52t-63.5 -21t-55 11.5t-34 28t-14 36.5t6 36.5t25.5 28
t44.5 11.5q15 0 27.5 -7.5t23.5 -17t22 -17t23 -7.5q28 0 52.5 26.5t47.5 76.5l-168 348l-34 70q-18 37 -42.5 85t-54.5 90t-64.5 71t-73.5 29q-18 0 -28 -5t-15 -13.5t-6 -18.5t-1 -19q0 -24 -9.5 -41.5t-23 -29t-28.5 -17.5t-27 -6q-31 0 -51.5 13.5t-27.5 34t1 44
t34.5 44t73 34t116.5 13.5q50 0 106 -14t111.5 -49.5t107.5 -96t93 -153.5l32 -72l65 -147l65 144q9 20 8.5 40t-8 37.5t-19.5 30.5t-25 19z" />
    <glyph glyph-name="A.ss02" unicode="&#xe027;" horiz-adv-x="780" 
d="M240 690q0 15 19 15h135q26 0 45 -11.5t26 -30.5l206 -571l9 -23q14 -40 32.5 -85.5t43.5 -84.5t58 -64.5t77 -25.5q35 0 47.5 18.5t12.5 36.5q0 24 9.5 42t23 29.5t28.5 17.5t27 6q31 0 51.5 -13.5t27.5 -34t-1 -44.5t-34 -44.5t-72.5 -34t-116.5 -13.5q-51 0 -109 17
t-112.5 52.5t-101 90.5t-73.5 131l-3 8l-25 70l-22 61l-257 1l-14 -44q-7 -21 -1 -41.5t18.5 -37t28.5 -29.5t30 -19q18 -9 18 -20q0 -15 -19 -15h-232q-19 0 -19 15q0 13 19 20q15 6 33 18.5t34.5 30t30.5 38t21 41.5l155 470q-7 13 -15 23.5t-20 15.5q-19 7 -19 18z
M201 236l236 -1l-123 346z" />
    <glyph glyph-name="B.ss02" unicode="&#xe028;" horiz-adv-x="689" 
d="M4 685q0 15 20 15h270q66 0 115 -9.5t81.5 -26t48 -38.5t15.5 -47q0 -40 -40 -81t-122 -74q65 -6 116.5 -31t87.5 -63t55.5 -85t19.5 -95q0 -53 -24 -104t-75.5 -90.5t-131.5 -64t-192 -24.5q-92 0 -155 27.5t-99 70t-47 94t0.5 100.5t44 89.5t82.5 59.5v213
q0 70 -15.5 103t-35.5 42q-19 9 -19 19zM255 384v-81q51 -23 77 -62t26 -81q0 -44 -14 -72.5t-35 -43t-45.5 -17t-45.5 5.5t-35 24.5t-14 40.5q0 26 12 41t26 27.5t26 26t12 37.5q0 12 -7.5 23.5t-20 20.5t-29.5 14.5t-36 5.5q-54 0 -93.5 -28.5t-59.5 -71.5t-17.5 -93
t31.5 -93t86.5 -71.5t149.5 -28.5q57 0 99 22t69.5 58t40.5 81t13 92t-13.5 90.5t-38.5 76t-62.5 50t-85.5 10.5zM255 415q38 9 64.5 31t39.5 49.5t13.5 57.5t-12.5 55t-39 42t-66 19v-254z" />
    <glyph glyph-name="D.ss02" unicode="&#xe029;" horiz-adv-x="777" 
d="M5 685q0 15 20 15h262q114 0 199 -36t142 -94.5t85.5 -133t28.5 -152.5q0 -95 -34.5 -168t-90.5 -125t-128 -82.5t-147 -40.5t-147 0.5t-128 40.5t-90.5 80t-34.5 119q0 32 9 62.5t26 57t41.5 47.5t56.5 33v226q-2 63 -17.5 93t-33.5 39q-19 9 -19 19zM256 670v-367
q51 -23 77 -62t26 -81q0 -44 -14 -72.5t-35 -43t-45.5 -17t-45.5 5.5t-35 24.5t-14 40.5q0 26 12 41t26 27.5t26 26t12 37.5q0 12 -7.5 23.5t-20 20.5t-29.5 14.5t-36 5.5q-39 0 -71 -15.5t-54 -41t-34 -58t-12 -67.5q0 -46 24.5 -85t65 -66.5t91.5 -42.5t105 -12.5t105 24
t91.5 66t65 114.5t24.5 169q0 73 -18 143t-54.5 125t-91 89t-126.5 34h-8z" />
    <glyph glyph-name="H.ss02" unicode="&#xe02a;" horiz-adv-x="746" 
d="M420 685q0 15 19 15h282q20 0 20 -15q0 -10 -19 -19t-34 -39t-17 -93v-466q0 -42 2.5 -88t13.5 -84t35 -63t68 -25q36 0 48.5 18.5t12.5 37.5q0 24 9 41.5t22.5 29.5t28.5 18t27 6q31 0 51.5 -13.5t28 -34t-0.5 -44.5t-34.5 -44.5t-73 -34t-116.5 -13.5
q-51 0 -104.5 14.5t-97.5 47.5t-72.5 87.5t-28.5 134.5v274h-234v-154q0 -70 15.5 -103t35.5 -42q19 -9 19 -19q0 -15 -20 -15h-281q-20 0 -20 15q0 10 19 19q20 9 35.5 42t15.5 103v355q-2 63 -17.5 93t-33.5 39q-19 9 -19 19q0 15 20 15h281q20 0 20 -15q0 -10 -19 -19
t-34 -39t-17 -93v-166h234v166q-2 63 -17.5 93t-33.5 39q-19 9 -19 19z" />
    <glyph glyph-name="K.ss02" unicode="&#xe02b;" horiz-adv-x="705" 
d="M395 664q-18 10 -18 21q0 15 20 15h236q19 0 19 -15q0 -12 -18 -21q-18 -8 -43 -25t-50 -35.5t-45 -36t-28 -25.5l-137 -142q73 15 122 -3t81 -56.5t51.5 -93.5t34 -114t27.5 -117t32 -104.5t49 -75t77 -28.5q35 0 47.5 18.5t12.5 37.5q0 24 9.5 41.5t23 29.5t28.5 18
t27 6q30 0 51 -13.5t28 -34t-1 -44.5t-34 -44.5t-72.5 -34t-116.5 -13.5q-89 0 -150.5 24t-103 63.5t-67.5 90t-44 103t-31.5 104t-30 92.5t-40 67t-61.5 29l-24 -26v-157q2 -63 17 -93t34 -38q19 -9 19 -19q0 -15 -20 -15h-281q-20 0 -20 15q0 10 19 19q20 9 35.5 42
t15.5 103v355q-2 63 -17.5 93t-33.5 39q-19 9 -19 19q0 15 20 15h281q20 0 20 -15q0 -10 -19 -19t-34 -39t-17 -93v-170l173 179q17 17 18.5 36t-5.5 35.5t-20.5 30t-26.5 19.5z" />
    <glyph glyph-name="M.ss02" unicode="&#xe02c;" horiz-adv-x="912" 
d="M653 69l-34 538l-177 -537q-3 -13 -22 -13h-1q-8 0 -14.5 3.5t-8.5 9.5l-239 519l-24 -394q-2 -30 6 -56.5t21.5 -47.5t29 -35.5t29.5 -20.5q19 -10 18 -20q0 -15 -19 -15h-195q-20 0 -20 15q0 13 19 19q30 13 51 57t25 105l19 325q0 35 -5.5 60.5t-15 42.5t-21.5 27
t-25 15q-24 8 -24 19q0 15 25 15h226q8 0 14.5 -3.5t8.5 -9.5l176 -403l138 416h236q26 0 26 -15q0 -10 -25 -19q-24 -9 -38.5 -40t-10.5 -96l32 -461q2 -42 6.5 -87.5t17.5 -84t38 -63t69 -24.5q35 0 47.5 18.5t12.5 37.5q0 24 9 42t22.5 29.5t29 17.5t27.5 6
q30 0 51 -13.5t28 -34t-1 -44.5t-34.5 -44.5t-73 -34t-116.5 -13.5q-50 0 -104 14.5t-99 48t-76 88t-35 134.5v7z" />
    <glyph glyph-name="N.ss02" unicode="&#xe02d;" horiz-adv-x="749" 
d="M652 13q0 -13 -17 -13q-19 0 -27 11l-475 552v-368q0 -59 -13.5 -100t-35 -67t-50 -38t-59.5 -12q-64 0 -104 25.5t-60 63.5t-20.5 82.5t15 82.5t46 63.5t72.5 25.5q44 0 70.5 -26t26.5 -72q0 -22 -10.5 -34t-26.5 -20t-35 -13.5t-35 -13.5t-26.5 -21t-10.5 -36
q0 -35 27.5 -55.5t64.5 -20.5q22 0 45 9t42 28.5t30.5 51t11.5 75.5v348q0 35 -5.5 60.5t-15 42.5t-21.5 27t-25 15q-24 8 -24 19q0 15 25 15h214l371 -420v225q0 30 -8.5 56.5t-21 47.5t-28 35.5t-28.5 20.5q-18 7 -18 20q0 15 19 15h194q20 0 20 -15q0 -12 -19 -20
q-15 -6 -28.5 -20.5t-24 -36t-16.5 -48t-6 -56.5v-491z" />
    <glyph glyph-name="P.ss02" unicode="&#xe02e;" horiz-adv-x="639" 
d="M5 685q0 15 20 15h291q94 0 151.5 -14.5t89 -37.5t42 -53t10.5 -60q0 -41 -31 -82t-81.5 -77t-113.5 -64t-127 -43v-36q-1 -88 -25 -144.5t-61.5 -89.5t-83.5 -46t-92 -13q-63 0 -106.5 17t-71 45t-40 63.5t-12.5 72.5q0 34 10 67t28.5 59t44 41.5t55.5 15.5q43 0 70 -26
t27 -72q0 -22 -10.5 -34t-27 -20t-35 -13.5t-35 -13.5t-27 -21t-10.5 -36q0 -21 8 -39.5t21.5 -32.5t32.5 -22t41 -8q19 0 40 7.5t38.5 28.5t28.5 58t11 96v361q-2 63 -17.5 93t-33.5 39q-19 9 -19 19zM256 665v-358q34 15 63 38t50.5 51.5t33.5 59.5t12 63q0 30 -8.5 56.5
t-26 46.5t-43 31.5t-58.5 11.5h-23z" />
    <glyph glyph-name="R.ss02" unicode="&#xe02f;" horiz-adv-x="683" 
d="M5 685q0 15 20 15h291q94 0 151.5 -14.5t89 -37.5t42 -53t10.5 -60q0 -31 -18 -58.5t-49 -51t-72.5 -43.5t-87.5 -35q56 -3 94.5 -28.5t65.5 -65.5t45.5 -90t34 -102t30.5 -101.5t36.5 -88t51 -62t73.5 -23.5q35 0 47.5 18.5t12.5 37.5q0 24 9 41.5t22.5 29.5t29 18
t27.5 6q31 0 51.5 -13.5t27.5 -34t-1 -44.5t-34.5 -44.5t-73 -34t-116.5 -13.5q-89 0 -151.5 23.5t-106.5 62t-72.5 88t-49 101.5t-36.5 102t-34.5 89.5t-44 64.5t-64.5 27v-132q0 -70 15.5 -103t35.5 -42q19 -9 19 -19q0 -15 -20 -15h-281q-20 0 -20 15q0 10 19 19
q18 8 33.5 38.5t17.5 92.5v369q-2 63 -17.5 93t-33.5 39q-19 9 -19 19zM256 665v-315q34 11 63 27t50.5 37t33.5 47t12 58q0 30 -8.5 56.5t-26 46.5t-43 31.5t-58.5 11.5h-23z" />
    <glyph glyph-name="b.ss02" unicode="&#xe030;" horiz-adv-x="635" 
d="M5 15q0 10 19 19q20 9 35.5 42t15.5 103v280q0 42 -2.5 88t-13.5 84t-35.5 63t-68.5 25q-35 0 -47.5 -18.5t-12.5 -37.5q0 -24 -9.5 -41.5t-23 -29.5t-28.5 -18t-27 -6q-30 0 -51 13.5t-28 34t1 44.5t34.5 44.5t73 34t116.5 13.5q50 0 102.5 -14t95.5 -47t70.5 -87
t28.5 -133q15 15 34.5 24.5t45.5 9.5q69 0 120 -20.5t84.5 -55t49.5 -78.5t16 -90q0 -49 -17.5 -97t-52 -85.5t-84.5 -60.5t-116 -23q-34 0 -56.5 13.5t-36.5 33.5q-23 -40 -78 -42h-134q-20 0 -20 15zM330 27q28 0 48 33t31 82t12.5 106.5t-7.5 106.5t-29.5 82t-53.5 33
q-23 0 -38 -9.5t-24 -24t-13.5 -31.5t-4.5 -33v-210q0 -20 3.5 -44t12 -44t23.5 -33.5t40 -13.5z" />
    <glyph glyph-name="d.ss02" unicode="&#xe031;" horiz-adv-x="634" 
d="M683 719q-42 0 -65.5 -22.5t-35.5 -58t-15 -78.5t-3 -84v-352q0 -9 1 -19.5t6 -19.5t15 -13.5t28 -1.5q8 1 12.5 -3t6 -9.5t0 -11t-7.5 -6.5l-179 -42q-24 -3 -39.5 9t-17.5 30q-16 -18 -36.5 -30t-46.5 -12q-69 0 -120 20.5t-84.5 55t-49.5 78t-16 90.5q0 49 17.5 97
t52 85.5t84.5 60.5t116 23q29 0 49 -10t34 -25q0 80 27.5 134t70.5 87t95.5 47t103.5 14q70 0 116.5 -13.5t73 -34t34.5 -44.5t0.5 -44.5t-28 -34t-51.5 -13.5q-12 0 -27 6t-28.5 18t-22.5 29.5t-9 41.5q0 19 -12.5 37.5t-48.5 18.5zM305 30q22 0 38 9.5t26 23.5t14.5 31.5
t5.5 33.5v185q-2 18 -4 45t-10 53t-24 44.5t-45 18.5q-28 0 -48 -33t-31 -82t-12.5 -107t7.5 -107t29.5 -82t53.5 -33z" />
    <glyph glyph-name="g.ss02" unicode="&#xe032;" horiz-adv-x="594" 
d="M294 47q-45 0 -82 9.5t-66 26.5q-22 -3 -34.5 -14.5t-12.5 -22.5q0 -16 36 -18.5t90.5 -1.5t117.5 1t117.5 -11t90.5 -37.5t36 -77.5q0 -37 -16 -64t-42 -46t-58 -31t-63.5 -18.5t-59.5 -9t-45 -2.5q-74 0 -125.5 9.5t-83.5 25t-47 35.5t-15 40q0 27 25.5 49t59.5 30
q-41 10 -66 30.5t-25 58.5q0 22 8.5 37.5t22 26.5t30.5 18t34 10q-38 30 -59 72t-24.5 87t11 89t46.5 79t82 56.5t118 21.5q38 0 70.5 -7.5t59.5 -20.5q18 39 46 81t64.5 77t81 58t95.5 23q40 0 65 -13.5t37 -33.5t11 -43.5t-13 -43.5t-35 -33.5t-55 -13.5q-24 0 -38.5 14.5
t-24 32t-16.5 32t-16 14.5q-26 0 -51 -15t-47 -39t-40.5 -54t-33.5 -60q42 -29 66 -70.5t29.5 -87.5t-8 -91.5t-45.5 -82t-83 -59t-120 -22.5zM295 81q31 0 51.5 29t30.5 72.5t10 94t-10 94t-30.5 72.5t-51.5 29t-51.5 -29t-31 -72.5t-10.5 -94t10.5 -94t31 -72.5t51.5 -29z
M496 -146q0 24 -25.5 34t-65.5 13.5t-89.5 3.5t-98.5 2q-8 0 -16.5 -6t-15.5 -15.5t-11.5 -21t-4.5 -23.5q0 -29 24 -45.5t60.5 -22.5t79 -2.5t79 14.5t60.5 29t24 40z" />
    <glyph glyph-name="h.ss02" unicode="&#xe033;" horiz-adv-x="670" 
d="M5 15q0 10 19 19q20 9 35.5 42t15.5 103v208l-1 72q0 42 -2 88t-13 84t-35 63t-68 25q-36 0 -48.5 -18.5t-12.5 -37.5q0 -24 -9 -41.5t-22.5 -29.5t-28.5 -18t-27 -6q-31 0 -51.5 13.5t-28 34t0.5 44.5t34.5 44.5t73 34t116.5 13.5q50 0 103 -14t96 -47t70.5 -87.5
t27.5 -135.5v-54q16 38 52 64.5t89 26.5q44 0 74.5 -10t51 -31.5t33 -56.5t21.5 -85l26 -143q12 -69 21.5 -102.5t29.5 -42.5q19 -9 18 -19q0 -15 -19 -15h-276q-19 0 -19 15q0 11 18 19q9 4 19.5 13t18.5 23t12.5 34.5t0.5 48.5l-17 127q-5 33 -10 62t-14 50.5t-22 33.5
t-33 12q-29 0 -51 -24.5t-24 -69.5v-165h1q0 -70 15.5 -103t35.5 -42q19 -9 19 -19q0 -15 -19 -15h-277q-20 0 -20 15z" />
    <glyph glyph-name="k.ss02" unicode="&#xe034;" horiz-adv-x="679" 
d="M5 15q0 10 19 19q20 9 35.5 42t15.5 103v208l-1 72q0 42 -2 88t-13 84t-35 63t-68 25q-36 0 -48.5 -18.5t-12.5 -37.5q0 -24 -9 -41.5t-22.5 -29.5t-28.5 -18t-27 -6q-31 0 -51.5 13.5t-28 34t0.5 44.5t34.5 44.5t73 34t116.5 13.5q50 0 103 -14t96 -47t70.5 -87.5
t27.5 -135.5v-238l116 120q17 17 19.5 36t-4 35.5t-19 30t-25.5 20.5q-18 9 -18 20q0 15 20 15h236q18 0 20 -15q0 -12 -19 -20q-18 -8 -39 -21.5t-43.5 -29.5t-44 -34.5t-39.5 -37.5l-34 -35q50 8 83.5 -8t56.5 -45.5t39 -66.5t31.5 -71t33 -60t44.5 -32q14 -3 14 -16
q0 -15 -15 -15h-177q-38 0 -64.5 22.5t-31.5 58.5q-4 25 -9 52t-13.5 50t-21 41t-31.5 26l-65 -67v-18q2 -63 17 -93t34 -38q19 -9 19 -19q0 -15 -20 -15h-275q-20 0 -20 15z" />
    <glyph glyph-name="l.ss02" unicode="&#xe035;" 
d="M5 15q0 10 19 19q20 9 35.5 42t15.5 103v208l-1 72q0 42 -2 88t-13 84t-35 63t-68 25q-36 0 -48.5 -18.5t-12.5 -37.5q0 -24 -9 -41.5t-22.5 -29.5t-28.5 -18t-27 -6q-31 0 -51.5 13.5t-28 34t0.5 44.5t34.5 44.5t73 34t116.5 13.5q50 0 103 -14t96 -47t70.5 -87.5
t27.5 -135.5v-303q2 -63 17 -93t34 -38q19 -9 19 -19q0 -15 -20 -15h-275q-20 0 -20 15z" />
    <glyph glyph-name="t.ss02" unicode="&#xe036;" horiz-adv-x="367" 
d="M10 467q-10 0 -10 10v13q0 10 10 10h21q12 0 35.5 6.5t50.5 20.5t53.5 37.5t45.5 58.5h20v-36q0 -11 0.5 -24t3.5 -24t8 -17.5t14 -3.5v-2q63 19 115 49t102.5 58t105 48t123.5 20q34 0 56.5 -11t34.5 -27t13.5 -35t-6.5 -35t-25.5 -27t-43.5 -11q-25 0 -42 9t-31.5 19.5
t-29.5 19.5t-35 9q-44 0 -81.5 -15t-78 -35t-89 -41.5t-114.5 -33.5v-353q0 -32 9 -44.5t23 -12.5q10 0 21 5t21.5 12.5t19.5 16.5t15 17q7 9 13 1q9 -9 3 -18q-15 -29 -35 -50t-43.5 -34.5t-48.5 -20.5t-49 -7q-25 0 -47.5 7.5t-40 22t-27 35.5t-9.5 49v304q-1 20 -5 39
t-21 21h-25v0z" />
    <glyph glyph-name="v.ss02" unicode="&#xe037;" horiz-adv-x="610" 
d="M294 500q19 0 19 -15q0 -11 -18 -19q-11 -6 -16 -15t-3.5 -25t10.5 -40.5t25 -60.5l58 -131l65 144q24 54 57.5 119.5t77 122.5t98 95.5t121.5 38.5q40 0 66.5 -12.5t40.5 -31t15.5 -40.5t-8.5 -40.5t-31.5 -31t-53.5 -12.5q-25 0 -42.5 12.5t-30 27.5t-22.5 27.5
t-20 12.5q-32 0 -64 -27.5t-61.5 -69.5t-56.5 -93t-48 -99l-151 -336l-38 -1l-155 321l-10 20q-17 35 -30.5 57.5t-24.5 37t-21.5 21.5t-22.5 11q-19 6 -19 17q0 15 19 15h275z" />
    <glyph glyph-name="w.ss02" unicode="&#xe038;" horiz-adv-x="879" 
d="M359 465q-18 7 -18 20q0 15 19 15h222q19 0 19 -15q0 -11 -18 -19q-11 -6 -17.5 -14.5t-6.5 -24t7.5 -39.5t24.5 -60l57 -121l55 131q15 36 35 78t44.5 84t53.5 80.5t63.5 68t73.5 47.5t84 18q40 0 66.5 -12.5t40.5 -31t15.5 -40.5t-8.5 -40.5t-31.5 -31t-53.5 -12.5
q-25 0 -42.5 12.5t-30 27.5t-22.5 27.5t-19 12.5q-32 0 -64.5 -27t-63 -69.5t-57 -93.5t-46.5 -99l-142 -336l-38 -1l-130 285l-120 -284l-38 -1l-162 356q-14 31 -26 51t-23 32.5t-21.5 19t-21.5 9.5q-19 6 -19 17q0 17 19 15h275q19 0 19 -15q0 -11 -18 -19
q-11 -6 -17.5 -14.5t-6.5 -24t7.5 -39.5t24.5 -60l57 -121l52 123q5 13 2.5 33.5t-10.5 41t-20 37.5t-25 23z" />
    <glyph glyph-name="y.ss02" unicode="&#xe039;" horiz-adv-x="610" 
d="M294 500q19 0 19 -15q0 -11 -18 -19q-11 -6 -16 -15t-3.5 -25t10.5 -40.5t25 -60.5l58 -131l65 144q16 36 36 77.5t44.5 83.5t53.5 80.5t63 68.5t73 48t84 18q40 0 66.5 -12.5t40.5 -31t15.5 -40.5t-8.5 -40.5t-31.5 -31t-53.5 -12.5q-25 0 -42.5 12.5t-30 27.5
t-22.5 27.5t-20 12.5q-32 0 -64 -27.5t-61.5 -69.5t-56.5 -93t-48 -99q-16 -35 -33.5 -75t-36 -81.5t-37.5 -84t-38 -81.5l-7 -14q-15 -31 -37 -67.5t-48.5 -67.5t-57 -51.5t-63.5 -20.5t-55 11.5t-34 28t-14 36.5t6 36.5t25.5 28t44.5 11.5q15 0 27.5 -7.5t23.5 -17t22 -17
t23 -7.5q28 0 52.5 26.5t47.5 76.5l-155 321l-10 20q-17 35 -30.5 57.5t-24.5 37t-21.5 21.5t-22.5 11q-19 6 -19 17q0 15 19 15h275z" />
    <glyph glyph-name="A.ss03" unicode="&#xe03a;" horiz-adv-x="780" 
d="M394 705q26 0 45 -11.5t26 -30.5l206 -571l9 -23q14 -40 32.5 -85.5t43.5 -84.5t58 -64.5t77 -25.5q35 0 47.5 18.5t12.5 36.5q0 24 9.5 42t23 29.5t28.5 17.5t27 6q31 0 51.5 -13.5t27.5 -34t-1 -44.5t-34 -44.5t-72.5 -34t-116.5 -13.5q-51 0 -109 17t-112.5 52.5
t-101 90.5t-73.5 131l-3 8l-25 70l-22 61l-257 1l-14 -44q-7 -21 -1 -41.5t18.5 -37t28.5 -29.5t30 -19q18 -9 18 -20q0 -15 -19 -15h-232q-19 0 -19 15q0 13 19 20q15 6 33 18.5t34.5 30t30.5 38t21 41.5l155 470l-10 17q-21 24 -58 24q-24 0 -42.5 -11.5t-27.5 -26
t-4.5 -26t27.5 -11.5q30 0 46 -21.5t15 -48t-20.5 -48t-59.5 -21.5q-31 0 -57 21t-26 65q0 26 10 54t31 51.5t52.5 38.5t74.5 15h149zM201 236l236 -1l-123 346z" />
    <glyph glyph-name="B.ss03" unicode="&#xe03b;" horiz-adv-x="689" 
d="M294 700q66 0 115 -9.5t81.5 -26t48 -38.5t15.5 -47q0 -40 -40 -81t-122 -74q65 -6 116.5 -31t87.5 -63t55.5 -85t19.5 -95q0 -53 -24 -104t-75.5 -90.5t-131.5 -64t-192 -24.5q-92 0 -155 27.5t-99 70t-47 94t0.5 100.5t44 89.5t82.5 59.5v213q0 38 -5 64.5t-13 43.5
q-10 19 -22.5 29.5t-25.5 10.5q-24 0 -42.5 -11t-27.5 -24t-4.5 -24t27.5 -11q30 0 46 -21.5t15 -48t-20.5 -48t-59.5 -21.5q-31 0 -57 21t-26 65q0 25 9.5 52t29.5 49t50.5 36.5t71.5 16.5h4h270zM255 384v-81q51 -23 77 -62t26 -81q0 -44 -14 -72.5t-35 -43t-45.5 -17
t-45.5 5.5t-35 24.5t-14 40.5q0 26 12 41t26 27.5t26 26t12 37.5q0 12 -7.5 23.5t-20 20.5t-29.5 14.5t-36 5.5q-54 0 -93.5 -28.5t-59.5 -71.5t-17.5 -93t31.5 -93t86.5 -71.5t149.5 -28.5q57 0 99 22t69.5 58t40.5 81t13 92t-13.5 90.5t-38.5 76t-62.5 50t-85.5 10.5z
M255 415q38 9 64.5 31t39.5 49.5t13.5 57.5t-12.5 55t-39 42t-66 19v-254z" />
    <glyph glyph-name="D.ss03" unicode="&#xe03c;" horiz-adv-x="781" 
d="M75 521q0 55 -11 88q-9 27 -24.5 43.5t-31.5 16.5q-24 0 -42.5 -11t-27.5 -24t-4.5 -24t27.5 -11q30 0 46 -21.5t15 -48t-20.5 -48t-59.5 -21.5q-15 0 -30 5.5t-27 16t-19 26.5t-7 38q0 26 10 53t30.5 49t51.5 36.5t74 15.5h262q114 0 199 -36t142 -94.5t85.5 -133
t28.5 -152.5q0 -107 -43 -186t-111 -131t-152 -78t-167 -26q-65 0 -124 15.5t-104 46t-72 76.5t-27 107q0 32 9 63t26 57.5t41.5 47t56.5 32.5v213zM256 670v-367q52 -23 77.5 -62t25.5 -81q0 -36 -9.5 -61t-24.5 -41t-33.5 -23.5t-37.5 -7.5q-33 0 -58.5 19.5t-25.5 51.5
q0 27 12 42t26 27t26 25.5t12 37.5q0 12 -7.5 23.5t-20 20.5t-29 14.5t-35.5 5.5q-40 0 -71.5 -15.5t-54 -41t-34.5 -58t-12 -67.5q0 -44 23 -82t61 -66t87 -43.5t101 -15.5q55 0 109 20t96.5 64.5t68.5 116t26 173.5q0 73 -18 143t-54.5 125t-91 89t-126.5 34h-8z" />
    <glyph glyph-name="H.ss03" unicode="&#xe03d;" horiz-adv-x="746" 
d="M420 685q0 15 19 15h282q20 0 20 -15q0 -10 -19 -19q-20 -9 -35.5 -42t-15.5 -103v-453q0 -42 2.5 -88t13.5 -84t35 -63t68 -25q36 0 48.5 18.5t12.5 37.5q0 24 9 41.5t22.5 29.5t28.5 18t27 6q31 0 51.5 -13.5t28 -34t-0.5 -44.5t-34.5 -44.5t-73 -34t-116.5 -13.5
q-51 0 -104.5 14.5t-97.5 47.5t-72.5 87.5t-28.5 134.5v274h-234v-168q2 -63 17 -93t34 -38q19 -9 19 -19q0 -15 -20 -15h-281q-20 0 -20 15q0 10 19 19q18 8 33.5 38.5t17.5 92.5v369l-3 36l-2 13q-1 8 -2.5 14.5t-3.5 12.5q-9 27 -24.5 43t-31.5 16q-24 0 -42.5 -11
t-27.5 -24t-4.5 -24t27.5 -11q30 0 46 -21.5t15 -48t-20.5 -48t-59.5 -21.5q-31 0 -57 21t-26 65q0 26 10 53.5t31 50t52.5 36.5t74.5 14h279q20 0 20 -15q0 -10 -19 -19q-20 -9 -35.5 -42t-15.5 -103v-153h234v153q0 70 -15.5 103t-35.5 42q-19 9 -19 19z" />
    <glyph glyph-name="K.ss03" unicode="&#xe03e;" horiz-adv-x="705" 
d="M395 664q-18 10 -18 21q0 15 20 15h236q19 0 19 -15q0 -12 -18 -21q-18 -8 -43 -25t-50 -35.5t-45 -36t-28 -25.5l-137 -142q73 15 122 -3t81 -56.5t51.5 -93.5t34 -114t27.5 -117t32 -104.5t49 -75t77 -28.5q35 0 47.5 18.5t12.5 37.5q0 24 9.5 41.5t23 29.5t28.5 18
t27 6q30 0 51 -13.5t28 -34t-1 -44.5t-34 -44.5t-72.5 -34t-116.5 -13.5q-89 0 -150.5 24t-103 63.5t-67.5 90t-44 103t-31.5 104t-30 92.5t-40 67t-61.5 29l-24 -26v-143q0 -70 15.5 -103t35.5 -42q19 -9 19 -19q0 -15 -20 -15h-281q-20 0 -20 15q0 10 19 19q20 9 35.5 42
t15.5 103v342q0 28 -3 49l-2 13q-1 8 -2.5 14.5t-3.5 12.5q-9 27 -24.5 43t-31.5 16q-24 0 -42.5 -11t-27.5 -24t-4.5 -24t27.5 -11q30 0 46 -21.5t15 -48t-20.5 -48t-59.5 -21.5q-31 0 -57 21t-26 65q0 26 9.5 53t29.5 49t50.5 36.5t72.5 15.5h4h281q20 0 20 -15
q0 -10 -19 -19q-20 -9 -35.5 -42t-15.5 -103v-157l173 179q17 17 18.5 36t-5.5 35.5t-20.5 30t-26.5 19.5z" />
    <glyph glyph-name="M.ss03" unicode="&#xe03f;" horiz-adv-x="912" 
d="M117 521q-1 17 -4 42.5t-11.5 49t-24 40t-40.5 16.5q-23 0 -42 -11t-27.5 -24t-4.5 -24t27 -11q31 0 47 -21.5t14.5 -48t-21 -48t-59.5 -21.5q-31 0 -56.5 21t-25.5 65q0 33 13 61.5t35 48.5t51 32t61 12h228q8 0 14.5 -3.5t8.5 -9.5l176 -403l138 416h236q26 0 26 -15
q0 -10 -25 -19q-24 -9 -38.5 -40t-10.5 -96l32 -461q2 -42 6.5 -87.5t17.5 -84t38 -63t69 -24.5q35 0 47.5 18.5t12.5 37.5q0 24 9 42t22.5 29.5t29 17.5t27.5 6q30 0 51 -13.5t28 -34t-1 -44.5t-34.5 -44.5t-73 -34t-116.5 -13.5q-50 0 -104 14.5t-99 48t-76 88t-35 134.5
v7l-34 538l-177 -537q-3 -13 -22 -13h-1q-8 0 -14.5 3.5t-8.5 9.5l-239 519l-24 -394q-2 -30 6 -56.5t21.5 -47.5t29 -35.5t29.5 -20.5q19 -10 18 -20q0 -15 -19 -15h-195q-20 0 -20 15q0 13 19 19q30 13 51 57t25 105l19 325v0z" />
    <glyph glyph-name="N.ss03" unicode="&#xe040;" horiz-adv-x="749" 
d="M652 13q0 -13 -17 -13q-19 0 -27 11l-475 552v-368q0 -59 -13.5 -100t-35 -67t-50 -38t-59.5 -12q-64 0 -104 25.5t-60 63.5t-20.5 82.5t15 82.5t46 63.5t72.5 25.5q44 0 70.5 -26t26.5 -72q0 -22 -10.5 -34t-26.5 -20t-35 -13.5t-35 -13.5t-26.5 -21t-10.5 -36
q0 -35 27.5 -55.5t64.5 -20.5q22 0 45 9t42 28.5t30.5 51t11.5 75.5v348q0 19 -2.5 41.5t-10 43t-20.5 37t-34 23.5q-1 0 -1.5 0.5t-1.5 0.5q-10 2 -12 2q-24 0 -42.5 -11t-26.5 -24t-4 -24t27 -11q31 0 47 -21.5t14.5 -48t-21 -48t-59.5 -21.5q-31 0 -56.5 21t-25.5 65
q0 34 13 62t35.5 48.5t52 32t62.5 11.5h214l371 -420v225q0 30 -8.5 56.5t-21 47.5t-28 35.5t-28.5 20.5q-18 7 -18 20q0 15 19 15h194q20 0 20 -15q0 -12 -19 -20q-15 -6 -28.5 -20.5t-24 -36t-16.5 -48t-6 -56.5v-491z" />
    <glyph glyph-name="P.ss03" unicode="&#xe041;" horiz-adv-x="639" 
d="M75 534l-3 36l-2 13q-1 8 -2.5 14.5t-3.5 12.5q-9 27 -24.5 43t-31.5 16q-24 0 -42.5 -11t-27.5 -24t-4.5 -24t27.5 -11q30 0 46 -21.5t15 -48t-20.5 -48t-59.5 -21.5q-31 0 -57 21t-26 65q0 26 9.5 53t29.5 49t50.5 36.5t72.5 15.5h4h291q94 0 151.5 -14.5t89 -37.5
t42 -53t10.5 -60q0 -41 -31 -82t-81.5 -77t-113.5 -64t-127 -43v-36q-1 -88 -25 -144.5t-61.5 -89.5t-83.5 -46t-92 -13q-63 0 -106.5 17t-71 45t-40 63.5t-12.5 72.5q0 34 10 67t28.5 59t44 41.5t55.5 15.5q43 0 70 -26t27 -72q0 -22 -10.5 -34t-27 -20t-35 -13.5
t-35 -13.5t-27 -21t-10.5 -36q0 -21 8 -39.5t21.5 -32.5t32.5 -22t41 -8q19 0 40 7.5t38.5 28.5t28.5 58t11 96v361zM256 665v-358q34 15 63 38t50.5 51.5t33.5 59.5t12 63q0 30 -8.5 56.5t-26 46.5t-43 31.5t-58.5 11.5h-23z" />
    <glyph glyph-name="R.ss03" unicode="&#xe042;" horiz-adv-x="683" 
d="M5 15q0 10 19 19q20 9 35.5 42t15.5 103v342q0 55 -11 88q-9 27 -24.5 43.5t-31.5 16.5q-24 0 -42.5 -11t-27.5 -24t-4.5 -24t27.5 -11q30 0 46 -21.5t15 -48t-20.5 -48t-59.5 -21.5q-15 0 -30 5.5t-27 16t-19 26.5t-7 38q0 26 10 53t30.5 49t51.5 36.5t74 15.5h291
q94 0 151.5 -14.5t89 -37.5t42 -53t10.5 -60q0 -31 -18 -58.5t-49 -51t-72.5 -43.5t-87.5 -35q56 -3 94.5 -28.5t65.5 -65.5t45.5 -90t34 -102t30.5 -101.5t36.5 -88t51 -62t73.5 -23.5q35 0 47.5 18.5t12.5 37.5q0 24 9 41.5t22.5 29.5t29 18t27.5 6q31 0 51.5 -13.5
t27.5 -34t-1 -44.5t-34.5 -44.5t-73 -34t-116.5 -13.5q-89 0 -151.5 23.5t-106 62.5t-72 88.5t-49 101.5t-37 101.5t-35 89.5t-44 64.5t-64.5 26.5v-142q2 -65 17 -95.5t34 -39.5t19 -19q0 -15 -19 -15h-282q-20 0 -20 15zM256 665v-315q34 11 63 27.5t50.5 37.5t33.5 47
t12 57q0 30 -8.5 56.5t-26 46.5t-43 31.5t-58.5 11.5h-23z" />
    <glyph glyph-name="a.ss03" unicode="&#xe043;" horiz-adv-x="589" 
d="M525 70q5 -42 16.5 -71.5t27.5 -47.5t35 -26t39 -8q22 0 41 8t32.5 22t21.5 32.5t8 39.5q0 23 -10.5 36t-27 21t-35 13.5t-35 13.5t-27 20t-10.5 34q0 46 27 72t70 26q30 0 55.5 -15.5t44 -41.5t28.5 -59t10 -67q0 -37 -12.5 -72.5t-40.5 -63.5t-71.5 -45t-106.5 -17
q-45 0 -89 12t-79.5 36t-59.5 61t-29 87l-2 18q-17 -37 -47 -60.5t-65.5 -34t-72.5 -8.5t-67 17t-49 42.5t-19 67.5q0 42 22.5 69t56 45t72 30.5t71 25.5t53 31t17.5 47q-2 12 -6.5 31t-15.5 37t-29 31.5t-46 13.5q-31 0 -36.5 -11.5t0 -29.5t15.5 -39.5t10 -40.5
q0 -29 -22.5 -46t-49.5 -18t-49.5 16t-22.5 56q0 27 12.5 53t34.5 46.5t53 33t67 12.5q55 0 101 -10.5t80 -34t55 -60t27 -87.5l20 -168l4 -34zM212 112q0 -26 17 -35.5t39.5 -4.5t43 24.5t28.5 52.5l-15 143q-13 -27 -32 -45t-37 -36t-31 -40.5t-13 -58.5z" />
    <glyph glyph-name="d.ss03" unicode="&#xe044;" horiz-adv-x="634" 
d="M353 651q0 15 15 15q25 1 50 6.5t47 13t40.5 16.5t30.5 17q4 2 8.5 4t9.5 2q10 0 10 -10v-608q0 -59 11 -96t28.5 -58t38.5 -28.5t41 -7.5q22 0 41 8t32.5 22t21 32.5t7.5 39.5q0 23 -10.5 36t-27 21t-35 13.5t-35 13.5t-27 20t-10.5 34q0 46 27 72t71 26q30 0 55 -15.5
t43.5 -41.5t28.5 -59t10 -67q0 -37 -12.5 -72.5t-40 -63.5t-71 -45t-106.5 -17q-40 0 -80 8.5t-74.5 29t-60 53.5t-35.5 81q-16 -21 -38.5 -36t-50.5 -15q-69 0 -120 20.5t-84.5 55t-49.5 78t-16 90.5q0 49 17.5 97t52 85.5t84.5 60.5t116 23q29 0 49 -10t34 -25v109
q-1 16 -4.5 31.5t-16.5 22.5q-15 7 -15 18zM389 150v163q-2 18 -4 45t-10 53t-24 44.5t-45 18.5q-28 0 -48 -33t-31 -82t-12.5 -107t7.5 -107t29.5 -82t53.5 -33q22 0 37 8.5t25 22t15 30t6 32.5v27h1z" />
    <glyph glyph-name="e.ss03" unicode="&#xe045;" horiz-adv-x="556" 
d="M224 252q2 -57 16 -114.5t38 -104t58 -75.5t76 -29q22 0 43 8t37 22t25.5 32.5t9.5 39.5q0 20 -10.5 29t-27 13.5t-35 6.5t-35 8t-27 18.5t-10.5 38.5q0 38 27 61t70 23q35 0 60 -25.5t37 -63.5t8.5 -82.5t-27 -82.5t-68.5 -63.5t-115 -25.5q-78 0 -138.5 27t-103.5 71
t-67 100t-28.5 114.5t10.5 114.5t51.5 100t95 71t139.5 27q47 0 83 -20.5t60.5 -50.5t37 -65.5t12.5 -65.5v-1q0 -18 -14 -29t-37 -13zM333 482q-27 0 -47 -15t-33.5 -41t-20.5 -60.5t-8 -73.5l125 7q20 2 31.5 17t15.5 35t1 43t-11.5 42.5t-22 32.5t-30.5 13z" />
    <glyph glyph-name="g.ss03" unicode="&#xe046;" horiz-adv-x="594" 
d="M294 47q-45 0 -82 9.5t-66 26.5q-22 -3 -34.5 -14.5t-12.5 -22.5q0 -16 36 -18.5t90.5 -1.5t117.5 1t117.5 -11t90.5 -37.5t36 -77.5q0 -46 -26.5 -85t-69 -67t-95.5 -44t-105 -16q-74 0 -136.5 14.5t-114.5 36.5t-94 47.5t-76.5 47.5t-62 36.5t-49.5 14.5q-20 0 -29 -9
t-7 -20t14.5 -20t35.5 -9q32 0 48.5 -20.5t15 -45t-20.5 -45t-58 -20.5q-26 0 -47 17.5t-32 43.5t-9.5 56t18.5 56t53 43.5t94 17.5q41 0 89 -9.5t99 -24t103 -31t102 -31t96.5 -24t85.5 -9.5q36 0 61.5 12.5t25.5 42.5q0 20 -20 29.5t-53 13.5t-75.5 4.5t-86.5 1t-86.5 4.5
t-75.5 14.5t-53 30.5t-20 53q0 22 8.5 37.5t22 26.5t30.5 18t34 10q-38 30 -59 72t-24.5 87t11 89t46.5 79t82 56.5t118 21.5q38 0 70.5 -7.5t59.5 -20.5q18 39 46 81t64.5 77t81 58t95.5 23q40 0 65 -13.5t37 -33.5t11 -43.5t-13 -43.5t-35 -33.5t-55 -13.5
q-24 0 -38.5 14.5t-24 32t-16.5 32t-16 14.5q-26 0 -51 -15t-47 -39t-40.5 -54t-33.5 -60q42 -29 66 -70.5t29.5 -87.5t-8 -91.5t-45.5 -82t-83 -59t-120 -22.5zM295 81q31 0 51.5 29t30.5 72.5t10 94t-10 94t-30.5 72.5t-51.5 29t-51.5 -29t-31 -72.5t-10.5 -94t10.5 -94
t31 -72.5t51.5 -29z" />
    <glyph glyph-name="h.ss03" unicode="&#xe047;" horiz-adv-x="670" 
d="M5 15q0 10 19 19q18 8 33.5 38.5t17.5 92.5v222l-1 72q0 42 -2 88t-13 84t-35 63t-68 25q-36 0 -48.5 -18.5t-12.5 -37.5q0 -24 -9 -41.5t-22.5 -29.5t-28.5 -18t-27 -6q-31 0 -51.5 13.5t-28 34t0.5 44.5t34.5 44.5t73 34t116.5 13.5q50 0 103 -14t96 -47t70.5 -87.5
t27.5 -135.5v-54q16 38 52 64.5t89 26.5q44 0 74.5 -10t51 -31.5t33 -56.5t21.5 -85l46 -252q7 -41 19.5 -87t33 -84.5t51 -64t74.5 -25.5q35 0 47.5 18.5t12.5 37.5q0 24 9 41.5t22.5 29t29 17.5t27.5 6q31 0 51.5 -13.5t27.5 -34t-1 -44.5t-34.5 -44.5t-73 -34
t-116.5 -13.5q-50 0 -107 15t-108.5 51.5t-91.5 98.5t-55 156l-31 184q-6 33 -11.5 62t-14 50.5t-21 33.5t-32.5 12q-29 0 -51 -24.5t-24 -69.5v-165h1q0 -70 15.5 -103t35.5 -42q19 -9 19 -19q0 -15 -19 -15h-277q-20 0 -20 15z" />
    <glyph glyph-name="i.ss03" unicode="&#xe048;" 
d="M40 445q0 15 14 15q25 1 50.5 6.5t47.5 13t40 16.5t30 17q5 2 9.5 4t8.5 2q10 0 10 -10v-402q0 -59 11 -96t28.5 -58t38.5 -28.5t41 -7.5q22 0 41 8t32.5 22t21 32.5t7.5 39.5q0 23 -10.5 36t-26.5 21t-35 13.5t-35 13.5t-26.5 20t-10.5 34q0 46 26.5 72t70.5 26
q30 0 55.5 -15.5t43.5 -41.5t28.5 -59t10.5 -67q0 -37 -12.5 -72.5t-40.5 -63.5t-71.5 -45t-106.5 -17q-45 0 -90.5 11.5t-82.5 38.5t-60 72t-23 111v267q-1 15 -5 30.5t-16 22.5q-14 7 -14 18zM142 536q-24 0 -43 7t-32 19.5t-18.5 29t-2.5 35.5t15 35.5t30 29t40 19.5
t45 7t42.5 -7t32 -19.5t18.5 -29t2 -35.5q-3 -19 -15 -35.5t-29.5 -29t-39.5 -19.5t-45 -7z" />
    <glyph glyph-name="k.ss03" unicode="&#xe049;" horiz-adv-x="679" 
d="M250 466h1v-235l115 119q17 18 19.5 36.5t-4 35.5t-19 30t-25.5 20q-18 9 -18 20q0 15 20 15h236q20 0 20 -15q0 -12 -19 -20q-18 -8 -39 -21.5t-43.5 -29.5t-44 -34.5t-39.5 -37.5l-35 -36q49 7 85 -11t63.5 -52t48.5 -80t39.5 -95t36.5 -96.5t40 -85.5t50 -61t66 -23
q35 0 47.5 18.5t12.5 36.5q0 24 9.5 42t23 29.5t28.5 17.5t27 6q30 0 51 -13.5t28 -34t-1 -44.5t-34 -44.5t-72.5 -34t-116.5 -13.5q-91 0 -155.5 31t-110.5 78.5t-77.5 104.5t-56 110t-46.5 94t-48 56l-62 -65v-27q2 -59 17 -87t33 -36q19 -9 19 -19q0 -15 -19 -15h-276
q-20 0 -20 15q0 10 19 19q20 9 35.5 42t15.5 103v280q0 42 -2.5 88t-13.5 84t-35.5 63t-68.5 25q-35 0 -47.5 -18.5t-12.5 -37.5q0 -24 -9.5 -41.5t-23 -29.5t-28.5 -18t-27 -6q-30 0 -51 13.5t-28 34t1 44.5t34.5 44.5t73 34t116.5 13.5q51 0 103.5 -14t95.5 -47
t70.5 -87.5t27.5 -135.5v-2z" />
    <glyph glyph-name="l.ss03" unicode="&#xe04a;" 
d="M75 387l-1 72q0 42 -2 88t-13 84t-35 63t-68 25q-36 0 -48.5 -18.5t-12.5 -37.5q0 -24 -9 -41.5t-22.5 -29.5t-28.5 -18t-27 -6q-31 0 -51.5 13.5t-28 34t0.5 44.5t34.5 44.5t73 34t116.5 13.5q50 0 103 -14t96 -47t70.5 -87.5t27.5 -135.5v-400q0 -42 2.5 -88t13.5 -84
t35 -63t68 -25q36 0 48.5 18.5t12.5 37.5q0 24 9 41.5t22.5 29.5t28.5 18t27 6q31 0 51.5 -13.5t28 -34t-0.5 -44.5t-34.5 -44.5t-73 -34t-116.5 -13.5q-51 0 -103.5 14.5t-95.5 47.5t-70.5 87.5t-27.5 134.5v328z" />
    <glyph glyph-name="m.ss03" unicode="&#xe04b;" horiz-adv-x="976" 
d="M40 445q0 14 14 16q25 1 50.5 6.5t47.5 13t40 16t30 16.5q9 6 18 6q11 0 11 -10v-72q15 29 44.5 48.5t74.5 19.5q36 0 63 -6.5t46.5 -21t33 -37.5t23.5 -55q7 22 21.5 44t35.5 38.5t47.5 27t56.5 10.5q44 0 74.5 -10t50.5 -31.5t33 -56.5t22 -85l49 -252
q16 -84 47.5 -118.5t71.5 -34.5q22 0 41 8t32.5 22t21 32.5t7.5 39.5q0 23 -10.5 36t-27 21t-35 13.5t-35 13.5t-27 20t-10.5 34q0 46 27 72t71 26q30 0 55 -15.5t43.5 -41.5t28.5 -59t10 -67q0 -37 -12.5 -72.5t-40 -63.5t-71 -45t-106.5 -17q-45 0 -91 10t-84 34.5
t-64.5 64.5t-33.5 100l-24 197q-4 33 -9.5 62t-14.5 50.5t-22 33.5t-33 12q-15 0 -29.5 -8.5t-25.5 -23.5t-18.5 -35t-7.5 -43q0 -4 1 -6l25 -143q12 -69 21.5 -102.5t29.5 -42.5q19 -9 19 -19q0 -15 -20 -15h-276q-19 0 -19 15q0 10 19 19q9 4 19 13t18.5 23t12.5 34.5
t0 48.5l-17 127q-4 33 -9.5 62t-14.5 50.5t-22 33.5t-33 12q-44 0 -53 -61v-198q0 -70 15.5 -103t35.5 -42q19 -9 19 -19q0 -15 -19 -15h-277q-20 0 -20 15q0 10 19 19q20 9 35.5 42t15.5 103v195q-1 16 -5 31t-16 22q-14 7 -14 18z" />
    <glyph glyph-name="n.ss03" unicode="&#xe04c;" horiz-adv-x="670" 
d="M40 445q0 14 14 16q25 1 50.5 6.5t47.5 13t40 16t30 16.5q9 6 18 6q11 0 11 -10v-92q16 36 52 62t88 26q44 0 74 -10t50.5 -31.5t33 -56.5t22.5 -85l49 -252q16 -84 47.5 -118.5t71.5 -34.5q22 0 41 8t32.5 22t21 32.5t7.5 39.5q0 23 -10.5 36t-27 21.5t-35 15t-35 14.5
t-27 20.5t-10.5 34.5q0 40 27 67t71 27q30 0 55 -15.5t43.5 -41.5t28.5 -59t10 -67q0 -37 -12.5 -72.5t-40 -63.5t-71 -45t-106.5 -17q-45 0 -91 10t-84 34.5t-64.5 64.5t-33.5 100l-24 197q-4 33 -9.5 62t-14.5 50.5t-22 33.5t-33 12q-28 0 -48.5 -25.5t-25.5 -67.5v-166
q0 -70 15.5 -103t35.5 -42q19 -9 19 -19q0 -15 -19 -15h-277q-20 0 -20 15q0 10 19 19q18 8 33.5 38.5t17.5 92.5v209q-1 16 -5 31t-16 22q-14 7 -14 18z" />
    <glyph glyph-name="t.ss03" unicode="&#xe04d;" horiz-adv-x="367" 
d="M31 500q12 0 35.5 6.5t50.5 20.5t53.5 37.5t45.5 58.5h20v-36q0 -11 0.5 -23.5t2.5 -23t7 -17.5t13 -6q64 20 116 51.5t103 61t106 51t124 21.5q36 0 60 -11t36 -27t13.5 -35t-7 -35t-27.5 -27t-46 -11q-25 0 -42 9t-31.5 19.5t-29.5 19.5t-35 9q-42 0 -78.5 -16
t-77.5 -38t-90.5 -45t-116.5 -36v-410q0 -42 2.5 -88t13.5 -84t35 -63t68 -25q35 0 47.5 18.5t12.5 37.5q0 24 9.5 41.5t23 29.5t28.5 18t27 6q30 0 51 -13.5t28 -34t-1 -44.5t-34 -44.5t-72.5 -34t-116.5 -13.5q-51 0 -103.5 14.5t-95.5 47.5t-70.5 87.5t-27.5 134.5v357
q-1 17 -5 32t-18 18q-2 0 -3.5 0.5t-3.5 0.5h-21q-10 0 -10 10v13q0 10 10 10h21z" />
    <glyph glyph-name="u.ss03" unicode="&#xe04e;" horiz-adv-x="599" 
d="M318 445q0 15 15 15q25 1 50 6.5t47 13t40.5 16.5t30.5 17q4 2 8.5 4t9.5 2q10 0 10 -10v-402q0 -59 11 -96t28.5 -58t38.5 -28.5t41 -7.5q22 0 41 8t32.5 22t21 32.5t7.5 39.5q0 23 -10.5 36t-27 21t-35 13.5t-35 13.5t-27 20t-10.5 34q0 46 27 72t71 26q30 0 55 -15.5
t43.5 -41.5t28.5 -59t10 -67q0 -37 -12.5 -72.5t-40 -63.5t-71 -45t-106.5 -17q-43 0 -86 10t-78.5 34t-60 63t-30.5 96q-19 -35 -55 -58.5t-84 -23.5q-39 0 -71.5 11t-56 32t-36.5 50.5t-13 66.5v215q-1 16 -5 33t-17 24q-14 8 -14 18v1q0 13 15 15q25 1 50 6.5t47 13
t40.5 16t30.5 16.5q7 6 18 6q10 0 10 -10v-364q0 -40 9.5 -61t24 -28t32 -2t33 17.5t26.5 30.5t14 38v10h1v223q-1 16 -4.5 31.5t-16.5 22.5q-15 7 -15 18z" />
    <glyph glyph-name="y.ss03" unicode="&#xe04f;" horiz-adv-x="610" 
d="M390 465q-19 7 -19 20q0 15 20 15h199q19 0 19 -15q0 -13 -18 -20q-15 -6 -32.5 -19t-33.5 -30.5t-30 -37.5t-23 -41l-128 -285q-51 -125 -112 -198.5t-127 -107.5t-135.5 -35.5t-136.5 15.5t-129.5 47t-115.5 58.5t-94.5 49.5t-66.5 21q-14 0 -19.5 -9.5t-2 -20.5
t16 -20.5t35.5 -9.5q36 0 52 -20.5t13 -45t-25 -45t-64 -20.5q-28 0 -49 17.5t-31.5 43.5t-9 56.5t19 56.5t52 43.5t89.5 17.5q79 0 154 -21t145.5 -45t136 -42t125.5 -12t114.5 45t103.5 129l-155 321l-10 20q-17 35 -30.5 57.5t-24.5 37t-21.5 21.5t-22.5 11q-19 6 -19 17
q0 15 19 15h275q19 0 19 -15q0 -11 -18 -19q-11 -6 -16 -15t-3.5 -25t10.5 -40.5t25 -60.5l58 -131l65 144q9 20 8.5 40t-8 37.5t-19.5 30.5t-25 19z" />
    </font>
</defs>
</svg>
