<?xml version="1.0" standalone="no"?>
<!DOCTYPE svg PUBLIC "-//W3C//DTD SVG 1.1//EN" "http://www.w3.org/Graphics/SVG/1.1/DTD/svg11.dtd" >
<svg xmlns="http://www.w3.org/2000/svg" xmlns:xlink="http://www.w3.org/1999/xlink" version="1.1">
<metadata>
Created by FontForge 20170731 at Sun Mar 29 23:55:39 2020
 By Aleksey,,,
</metadata>
<defs>
<font id="OlivaSerifFont-Regular" horiz-adv-x="600" >
  <font-face 
    font-family="Oliva Serif Font"
    font-weight="400"
    font-stretch="normal"
    units-per-em="1000"
    panose-1="0 0 5 0 0 0 0 0 0 0"
    ascent="800"
    descent="-200"
    cap-height="700"
    bbox="10 -200 1437 854"
    underline-thickness="50"
    underline-position="-150"
    unicode-range="U+0020-25CA"
  />
<missing-glyph horiz-adv-x="500" 
d="M410 -200h-317v1000h317v-1000zM168 733v-33h65v-37h-66v-33h166v33h-66v37h66v33h-165zM167 604v-104h166v34h-66v70h-100zM233 534h-33v36h33v-36zM167 473v-33h66v-37h-66v-33h100v70h66v33h-166zM300 413v-66h-133v-34h166v100h-33zM233 291v-56h34v23h33v-47h-100
v80h-33v-113h166v113h-100zM167 118v-113h166v113h-166zM300 38h-100v47h100v-47zM167 -18v-33h70l-70 -47v-33h166v33h-102l70 47h32v33h-166z" />
    <glyph glyph-name=".notdef" horiz-adv-x="500" 
d="M410 -200h-317v1000h317v-1000zM168 733v-33h65v-37h-66v-33h166v33h-66v37h66v33h-165zM167 604v-104h166v34h-66v70h-100zM233 534h-33v36h33v-36zM167 473v-33h66v-37h-66v-33h100v70h66v33h-166zM300 413v-66h-133v-34h166v100h-33zM233 291v-56h34v23h33v-47h-100
v80h-33v-113h166v113h-100zM167 118v-113h166v113h-166zM300 38h-100v47h100v-47zM167 -18v-33h70l-70 -47v-33h166v33h-102l70 47h32v33h-166z" />
    <glyph glyph-name=".null" horiz-adv-x="0" 
 />
    <glyph glyph-name="nonmarkingreturn" horiz-adv-x="333" 
 />
    <glyph glyph-name="space" unicode=" " horiz-adv-x="300" 
 />
    <glyph glyph-name="exclam" unicode="!" horiz-adv-x="115" 
d="M47 219q-2 54 -9.5 116t-9.5 74q-9 73 -13.5 119t-4.5 89q0 100 47 100q48 0 48 -100q0 -41 -4.5 -85.5t-13.5 -115.5q-1 -12 -9 -76t-10 -121h-21zM24.5 84q-12.5 -14 -12.5 -35q0 -20 12.5 -34.5t32.5 -14.5q21 0 34.5 14t13.5 35t-13.5 35t-34.5 14q-20 0 -32.5 -14z
" />
    <glyph glyph-name="quotedbl" unicode="&#x22;" horiz-adv-x="342" 
d="M30 600q45 36 72 81q31 53 31 109q0 32 -20 50q-17 14 -40 14q-20 0 -34 -14t-14 -35q0 -23 12 -38q12 -14 23 -14q15 0 21 -13q4 -8 4 -20q0 -8 -1 -12q-8 -25 -25 -51q-16 -25 -39 -45zM221 600q45 38 70 81q31 52 31 109q0 32 -19 50q-19 14 -42 14q-18 0 -32 -14
q-15 -15 -15 -35q0 -23 12 -38q11 -14 23 -14q15 0 22 -13q4 -10 4 -18q0 -4 -2 -14q-7 -26 -24 -51q-16 -25 -39 -45z" />
    <glyph glyph-name="numbersign" unicode="#" horiz-adv-x="553" 
d="M130 497h-110v-68h110v-159h-110v-67h110v-203h67v203h159v-203h67v203h110v67h-110v159h110v68h-110v203h-67v-203h-159v203h-67v-203zM197 270v159h159v-159h-159z" />
    <glyph glyph-name="dollar" unicode="$" horiz-adv-x="440" 
d="M25 221h-15v-217h15v94q21 -34 69 -61t104 -32v-107h39v106q57 3 100 31q49 28 75 85q18 43 18 84q0 64 -40 116q-38 48 -113 81l-40 21v252q41 -4 66.5 -27.5t38.5 -54.5t27 -82l6 -23h14v191h-14v-49q-24 26 -60.5 41.5t-77.5 17.5v106h-39v-107q-67 -9 -104 -44
q-25 -21 -46 -63q-15 -36 -15 -77q0 -64 40 -110q16 -16 40 -31q54 -32 70 -40l15 -6v-296q-78 2 -128 80q-25 38 -45 106v15zM198 441q-91 47 -91 123q0 42 25 72t66 37v-232zM237 293q20 -11 24 -14q27 -19 38 -36q13 -18 21 -44q8 -23 8 -49q0 -58 -36 -94
q-23 -23 -55 -32v269z" />
    <glyph glyph-name="percent" unicode="%" 
 />
    <glyph glyph-name="ampersand" unicode="&#x26;" horiz-adv-x="659" 
d="M429 558q0 -9 1 -12t5 -3q3 0 20 7q36 15 36 57q0 21 -9 42t-22 33q-19 18 -45.5 27.5t-54.5 9.5q-30 0 -57 -10.5t-47 -31.5q-38 -38 -38 -95q0 -26 10 -56q1 -4 8 -20q-97 -24 -156.5 -97t-59.5 -177q0 -75 37.5 -137.5t100.5 -100.5t138 -43q67 -4 129.5 24
t101.5 80.5t39 118.5q0 9 -2 27q-4 40 -26 72q46 12 73.5 40.5t27.5 72.5q0 22 -5 39q-8 32 -15 32t-18 -31q-16 -47 -39 -65.5t-53 -18.5q-13 0 -31 3.5t-26 4.5q-25 5 -53 5q-47 0 -67 -18.5t-20 -47.5q0 -16 5 -33q6 -19 10 -29.5t7 -10.5q2 0 8.5 16t15.5 27.5t27 11.5
q24 0 61 -29q48 -38 48 -100q0 -40 -23 -77t-67 -59.5t-104 -20.5q-55 1 -100.5 37.5t-72 93.5t-26.5 117q0 78 48 135t147 70q8 -6 15.5 -10.5l12.5 -7.5q6 -2 10 -2q17 0 42 13t37 28q8 10 8 15q0 8 -15 11q-44 11 -69 23t-50 41q-25 28 -25 60q0 34 27.5 58.5t61.5 24.5
q32 0 54 -25t24 -76v-33z" />
    <glyph glyph-name="quotesingle" unicode="'" horiz-adv-x="152" 
d="M30 600q45 36 72 81q30 51 30 109q0 32 -19 50q-17 14 -41 14q-19 0 -33 -14t-14 -35q0 -23 12 -38q11 -14 23 -14q14 0 21 -13q4 -8 4 -20q0 -8 -1 -12q-8 -25 -25 -51q-16 -25 -39 -45z" />
    <glyph glyph-name="parenleft" unicode="(" horiz-adv-x="280" 
d="M127 589q-49 -108 -49 -237q0 -130 49 -237q47 -101 133 -174v-16q-125 70 -184 181q-56 106 -56 246q0 138 56 244q62 113 184 183v-17q-85 -70 -133 -173z" />
    <glyph glyph-name="parenright" unicode=")" horiz-adv-x="280" 
d="M20 779q122 -70 183 -183q57 -105 57 -244q0 -141 -57 -246q-60 -112 -183 -181v16q86 74 132 174q51 108 51 237q0 127 -51 237q-48 104 -132 173v17z" />
    <glyph glyph-name="asterisk" unicode="*" 
 />
    <glyph glyph-name="plus" unicode="+" 
 />
    <glyph glyph-name="comma" unicode="," horiz-adv-x="152" 
d="M36 -95l23 23q19 22 23 36q3 12 3 19q0 5 -2 13q-3 14 -17 14q-12 0 -24 13q-11 14 -11 33q0 21 14 35t33 14q23 0 37 -14q17 -19 17 -50q0 -52 -31 -95q-20 -28 -70 -69l-11 12z" />
    <glyph glyph-name="hyphen" unicode="-" 
 />
    <glyph glyph-name="period" unicode="." horiz-adv-x="146" 
d="M113 95q13 -16 13 -39q0 -22 -13 -38q-15 -18 -41 -18q-25 0 -40 18q-12 15 -12 38q0 24 12 39q16 16 40 16q25 0 41 -16z" />
    <glyph glyph-name="slash" unicode="/" 
 />
    <glyph glyph-name="zero" unicode="0" horiz-adv-x="500" 
d="M44 544q34 81 89 122t117 41t117 -41t89 -122.5t34 -195.5q0 -113 -34 -193.5t-89 -121.5t-117 -41t-117 41t-89 121.5t-34 193.5q0 115 34 196zM111.5 179q22.5 -70 59 -105.5t78.5 -35.5q41 0 78 35.5t60 106t23 168.5q0 100 -23 171t-60 107.5t-78 36.5t-78 -36
t-59.5 -107.5t-22.5 -171.5q0 -99 22.5 -169z" />
    <glyph glyph-name="one" unicode="1" horiz-adv-x="223" 
d="M160 700l-15 -9q-29 -18 -63.5 -31t-61.5 -13h-10v-16h73v-619h-53v-12h183v12h-53v688z" />
    <glyph glyph-name="two" unicode="2" horiz-adv-x="461" 
d="M146 172q31 30 103 82q55 41 87 68t57 62q20 28 31.5 64.5t11.5 73.5q0 38 -12.5 71t-37.5 56q-25 24 -65 36t-85 12q-72 0 -121 -26q-82 -44 -82 -107q0 -22 11.5 -34.5t26.5 -12.5q14 0 23 10t9 28q0 9 -3 21q-1 3 -1 9q0 26 35 47q17 10 41 16t49 6q29 0 54.5 -7.5
t41.5 -22.5q19 -16 28 -42.5t9 -58.5q0 -24 -5.5 -47t-14.5 -41q-15 -28 -45 -57t-85 -76q-9 -8 -44.5 -38.5t-56.5 -55.5q-44 -52 -70 -100t-26 -98v-10h389l52 188l-35 10l-3 -9q-17 -42 -31 -65t-38 -37t-63 -14h-209q24 49 74 99z" />
    <glyph glyph-name="three" unicode="3" horiz-adv-x="458" 
d="M398.5 436q32.5 41 32.5 96q0 58 -29.5 98t-77 59.5t-99.5 19.5q-57 0 -101 -22t-58 -62q-3 -10 -3 -20q0 -20 13 -32t29 -12q14 0 22.5 9t8.5 25q0 7 -1 11q-4 24 22 40t64 16q52 0 91 -32t39 -98q0 -69 -44 -104t-115 -35q-10 5 -22 5t-19 -8t-7 -18q0 -12 8 -21t21 -9
q9 0 21 6q75 3 124 -33.5t49 -110.5q0 -77 -38.5 -124.5t-112.5 -47.5q-60 0 -83.5 21.5t-19.5 79.5q1 5 1 13q0 30 -15 46t-35 16q-22 0 -38 -16.5t-16 -45.5q0 -53 30 -88.5t77 -51.5t99 -16q104 0 168 56t64 158q0 62 -38 105.5t-98 61.5q54 24 86.5 65z" />
    <glyph glyph-name="four" unicode="4" horiz-adv-x="476" 
d="M346 230h120v-49h-120v-169h74v-12h-227v12h74v169h-257v40l292 479h44v-470zM267 557l-198 -327h198v327z" />
    <glyph glyph-name="five" unicode="5" horiz-adv-x="449" 
d="M140 441q38 13 78 13q49 0 93.5 -18.5t74.5 -53.5q26 -31 39.5 -70.5t13.5 -82.5t-13.5 -85t-39.5 -74q-31 -39 -77.5 -59t-99.5 -20q-42 0 -81.5 13t-70.5 38q-47 39 -47 75q0 21 15 35t33 14t30 -15t11 -45q-1 -34 22 -51t60 -17q40 0 81 17.5t59 44.5t27.5 61t9.5 69
q0 73 -37 123q-39 55 -108 55q-43 0 -84.5 -22t-66.5 -59l-5 -6l-34 15l21 364h369l-20 -72h-308l-13 -224q30 24 68 37z" />
    <glyph glyph-name="six" unicode="6" horiz-adv-x="463" 
d="M176.5 423q44.5 22 89.5 22q51 0 93.5 -26.5t68 -77.5t25.5 -122q0 -64 -26.5 -116.5t-75.5 -82.5t-114 -30q-73 0 -124 46t-77 121.5t-26 162.5q0 92 28 177t83 141.5t131 65.5q5 1 16 1q30 0 60 -11t50 -32t20 -50q0 -20 -11 -31.5t-26 -11.5q-14 0 -23 11.5t-8 32.5
q2 21 -24 32t-51 11q-83 0 -119 -92t-41 -206q37 43 81.5 65zM344 89q30 56 30 141q0 79 -34 121t-86 42q-44 0 -87.5 -29.5t-72.5 -83.5q0 -104 28 -175.5t115 -71.5q77 0 107 56z" />
    <glyph glyph-name="seven" unicode="7" horiz-adv-x="477" 
d="M57 700h410v-45l-2 -2q-95 -146 -158 -283.5t-63 -259.5q0 -20 1 -30q4 -43 -12 -66t-39 -23q-22 0 -37.5 20.5t-12.5 54.5q5 78 39.5 167t79 168t111.5 189l22 36h-237q-41 0 -67 -36.5t-44 -88.5l-4 -10l-34 12z" />
    <glyph glyph-name="eight" unicode="8" horiz-adv-x="462" 
d="M411 308q41 -50 41 -116q0 -62 -31 -107.5t-82.5 -70t-110.5 -24.5q-68 0 -117.5 24t-75 64t-25.5 87q0 54 33.5 105.5t98.5 88.5q-48 24 -76 70t-28 99q0 32 10 61q20 59 69 90t113 31q59 0 101.5 -22.5t64 -59t21.5 -79.5q0 -50 -29 -94.5t-84 -70.5q66 -26 107 -76z
M95 555q0 -51 47 -90t108 -60q45 21 74.5 60.5t29.5 83.5q0 36 -20 67q-17 26 -44.5 40t-60.5 14q-43 0 -79 -21.5t-49 -60.5q-6 -16 -6 -33zM389 164q0 61 -58 106.5t-131 69.5q-50 -26 -83 -71.5t-33 -95.5q0 -39 21 -74q20 -33 53 -49.5t73 -16.5q52 0 96 25t57 71
q5 15 5 35z" />
    <glyph glyph-name="nine" unicode="9" horiz-adv-x="462" 
d="M349.5 663q51.5 -46 77 -121t25.5 -163q0 -92 -28 -177t-83 -141.5t-131 -65.5q-5 -1 -15 -1q-30 0 -60 11t-50 32t-20 50q0 20 11 31.5t26 11.5q14 0 23 -11.5t8 -32.5q-2 -22 24 -33t50 -11q84 0 120 92.5t41 206.5q-36 -43 -81 -65t-91 -22q-50 0 -92.5 26.5t-68 77.5
t-25.5 122q0 64 26.5 116.5t75.5 82.5t113 30q73 0 124.5 -46zM123 348q34 -42 86 -42q44 0 87.5 29.5t72.5 83.5q-1 106 -29 176.5t-115 70.5q-76 0 -106 -56.5t-30 -140.5q0 -79 34 -121z" />
    <glyph glyph-name="colon" unicode=":" horiz-adv-x="201" 
d="M138 469q13 -14 13 -36t-13 -36q-14 -17 -37 -17q-24 0 -38 17q-13 14 -13 36t13 36q14 17 38 17q23 0 37 -17zM138 90q13 -14 13 -37q0 -22 -13 -36q-14 -17 -37 -17q-24 0 -38 17q-13 14 -13 36q0 23 13 37q13 16 38 16q24 0 37 -16z" />
    <glyph glyph-name="semicolon" unicode=";" horiz-adv-x="202" 
d="M139 466q13 -14 13 -37q0 -22 -13 -36q-13 -17 -37 -17q-26 0 -39 17q-12 15 -12 36q0 22 12 37q14 16 39 16q23 0 37 -16zM88 -79q16 26 22 50q2 12 2 15q0 6 -3 11q-6 7 -21 7q-13 0 -25 13q-12 15 -12 38q0 19 14 35q16 16 37 16q23 0 36 -16q14 -16 14 -37
q0 -62 -24 -110q-23 -46 -67 -78l-11 12q25 21 38 44z" />
    <glyph glyph-name="less" unicode="&#x3c;" 
 />
    <glyph glyph-name="equal" unicode="=" 
 />
    <glyph glyph-name="greater" unicode="&#x3e;" 
 />
    <glyph glyph-name="question" unicode="?" horiz-adv-x="397" 
d="M182 185q0 47 9 81.5t21.5 57.5t35.5 56q21 30 35 54t25 56q13 39 13 73q0 58 -37 96q-19 22 -45.5 32.5t-54.5 10.5q-32 0 -62.5 -11.5t-49 -30.5t-18.5 -39q0 -11 8 -24q14 -21 14 -39q0 -16 -9.5 -25.5t-22.5 -9.5q-14 0 -24 13t-10 39q0 74 53 113t128 39
q39 0 75 -11t62 -32q29 -23 44 -57.5t15 -72.5q0 -52 -26 -96q-22 -37 -67 -83q-32 -34 -50.5 -58.5t-31 -57.5t-12.5 -74h-18zM221.5 84q13.5 -14 13.5 -35q0 -20 -14 -34.5t-34 -14.5t-32.5 14.5t-12.5 34.5q0 21 12 35t33 14t34.5 -14z" />
    <glyph glyph-name="at" unicode="@" horiz-adv-x="853" 
d="M444 153q-34 -23 -78 -23q-55 0 -89 37q-39 41 -39 114q0 54 27 111q24 53 63 91q27 27 63 44q37 17 73 17q41 0 69 -26q24 -21 35 -66l26 86h51l-78 -288l-8 -51q-3 -20 17 -34q17 -12 40 -12q39 0 88 42t74 96q14 31 22 70q7 34 7 77q0 50 -14 94q-22 69 -81 120
q-43 37 -98 57q-57 19 -125 19q-87 0 -161 -27q-77 -26 -128 -81q-60 -58 -90 -132q-35 -80 -35 -180q0 -80 26 -141q27 -61 86 -111q50 -42 115 -66q73 -26 155 -26t160 27q11 23 23.5 34t23.5 11q8 0 12.5 -4.5t4.5 -12.5q0 -13 -13.5 -26.5t-41.5 -23.5q-82 -29 -172 -29
q-88 0 -165 23q-72 25 -124 64q-74 55 -110 130q-35 71 -35 166q0 100 44 188q40 78 114 138q59 51 132 77q76 27 167 27q80 0 146 -21q65 -21 113 -66q46 -42 73 -102q24 -58 24 -133q0 -36 -6 -71q-9 -41 -20 -69q-21 -50 -67 -97q-63 -64 -131 -64q-50 0 -73 23
q-24 26 -24 76q-30 -51 -68 -76zM411 506q-25 -17 -47 -45q-30 -37 -48 -98q-17 -60 -17 -110q0 -48 18 -74q19 -25 58 -25q29 0 57 19q30 19 56 64q14 24 24 46q5 11 19 48q3 10 11 49q5 27 5 44q0 41 -20 70q-23 30 -59 30q-27 0 -57 -18z" />
    <glyph glyph-name="A" unicode="A" horiz-adv-x="711" 
d="M691 12v-12h-207v12h46l-54 132v1l-1 1v1l-9 22l-24 59l-24 60h-222l-6 -15l-106 -261h40v-12h-104v12h40l45 110l2 4q14 28 41 98l24 62l160 414h29l189 -455l94 -233h47zM410 308l-106 262l-100 -262h206z" />
    <glyph glyph-name="A" unicode="a" horiz-adv-x="711" 
d="M691 12v-12h-207v12h46l-54 132v1l-1 1v1l-9 22l-24 59l-24 60h-222l-6 -15l-106 -261h40v-12h-104v12h40l45 110l2 4q14 28 41 98l24 62l160 414h29l189 -455l94 -233h47zM410 308l-106 262l-100 -262h206z" />
    <glyph glyph-name="B" unicode="B" horiz-adv-x="622" 
d="M602 185q0 -45 -19 -86q-18 -37 -52 -62q-28 -20 -72 -29q-45 -8 -117 -8h-322v12h55v676h-55v12h283q57 0 67 -1q59 -5 97 -28q33 -21 51 -54q19 -35 19 -75q0 -66 -42 -110q-15 -17 -34 -27q-20 -12 -54 -23q48 -9 76 -18q29 -11 49 -27q33 -27 51 -66q19 -39 19 -86z
M209 650q-12 -17 -18 -40q-5 -25 -5 -60v-171h42q32 0 60 4q30 5 44 10q11 3 31 15q27 20 40 50q14 33 14 68q0 40 -15 74q-13 35 -38 55q-22 17 -48 23q-25 5 -39 5q-45 -1 -68 -33zM478 184q0 45 -15 82q-15 38 -40 59q-47 38 -145 38h-92v-211q0 -35 5 -62q6 -23 18 -40
q27 -34 90 -34q83 0 131 45t48 123z" />
    <glyph glyph-name="B" unicode="b" horiz-adv-x="622" 
d="M602 185q0 -45 -19 -86q-18 -37 -52 -62q-28 -20 -72 -29q-45 -8 -117 -8h-322v12h55v676h-55v12h283q57 0 67 -1q59 -5 97 -28q33 -21 51 -54q19 -35 19 -75q0 -66 -42 -110q-15 -17 -34 -27q-20 -12 -54 -23q48 -9 76 -18q29 -11 49 -27q33 -27 51 -66q19 -39 19 -86z
M209 650q-12 -17 -18 -40q-5 -25 -5 -60v-171h42q32 0 60 4q30 5 44 10q11 3 31 15q27 20 40 50q14 33 14 68q0 40 -15 74q-13 35 -38 55q-22 17 -48 23q-25 5 -39 5q-45 -1 -68 -33zM478 184q0 45 -15 82q-15 38 -40 59q-47 38 -145 38h-92v-211q0 -35 5 -62q6 -23 18 -40
q27 -34 90 -34q83 0 131 45t48 123z" />
    <glyph glyph-name="C" unicode="C" horiz-adv-x="650" 
d="M621 677h-12v-43q-29 36 -93 56t-133 20q-64 0 -128 -21q-63 -21 -109 -58q-57 -44 -93 -125q-33 -76 -33 -169q0 -120 57 -207q57 -86 158 -119q63 -21 133 -21q75 0 130 24q57 23 89 68q34 46 43 126l-11 2q-14 -72 -42 -112q-26 -36 -71 -56q-48 -20 -103 -20
q-115 0 -184 79q-39 46 -58 106q-19 61 -19 142q0 94 28 166q22 53 52 92q32 41 69 62q44 25 98 25q38 0 68 -12q31 -14 59 -39q36 -35 57 -78q14 -30 28 -72q4 -9 8 -21v-1h12v206z" />
    <glyph glyph-name="C" unicode="c" horiz-adv-x="650" 
d="M621 677h-12v-43q-29 36 -93 56t-133 20q-64 0 -128 -21q-63 -21 -109 -58q-57 -44 -93 -125q-33 -76 -33 -169q0 -120 57 -207q57 -86 158 -119q63 -21 133 -21q75 0 130 24q57 23 89 68q34 46 43 126l-11 2q-14 -72 -42 -112q-26 -36 -71 -56q-48 -20 -103 -20
q-115 0 -184 79q-39 46 -58 106q-19 61 -19 142q0 94 28 166q22 53 52 92q32 41 69 62q44 25 98 25q38 0 68 -12q31 -14 59 -39q36 -35 57 -78q14 -30 28 -72q4 -9 8 -21v-1h12v206z" />
    <glyph glyph-name="D" unicode="D" horiz-adv-x="723" 
d="M703 324q0 -74 -23 -134q-23 -62 -63 -104q-58 -59 -142 -74q-63 -12 -129 -12h-326v12h55v676h-55v12h229q85 0 119 -2q109 -9 184 -62q72 -51 111 -133q40 -81 40 -179zM579 328q0 74 -22 139t-63 115q-57 69 -136 91q-32 9 -61 9q-45 0 -74.5 -25t-36.5 -79v-565h116
q81 0 126 20q44 21 80 68q36 46 53 103q18 59 18 124z" />
    <glyph glyph-name="D" unicode="d" horiz-adv-x="723" 
d="M703 324q0 -74 -23 -134q-23 -62 -63 -104q-58 -59 -142 -74q-63 -12 -129 -12h-326v12h55v676h-55v12h229q85 0 119 -2q109 -9 184 -62q72 -51 111 -133q40 -81 40 -179zM579 328q0 74 -22 139t-63 115q-57 69 -136 91q-32 9 -61 9q-45 0 -74.5 -25t-36.5 -79v-565h116
q81 0 126 20q44 21 80 68q36 46 53 103q18 59 18 124z" />
    <glyph glyph-name="E" unicode="E" horiz-adv-x="546" 
d="M515 170l11 -1l-8 -169h-498v12h55v676h-55v12h55h443l8 -170h-11q-8 46 -22 71q-18 31 -45 50q-25 19 -57 26q-31 7 -87 7q-53 0 -85.5 -25.5t-32.5 -77.5v-205h169v89h16v-192h-16v87h-169v-344h118q56 0 87 7q32 7 57 26q26 18 45 49q14 27 22 72z" />
    <glyph glyph-name="E" unicode="e" horiz-adv-x="546" 
d="M515 170l11 -1l-8 -169h-498v12h55v676h-55v12h55h443l8 -170h-11q-8 46 -22 71q-18 31 -45 50q-25 19 -57 26q-31 7 -87 7q-53 0 -85.5 -25.5t-32.5 -77.5v-205h169v89h16v-192h-16v87h-169v-344h118q56 0 87 7q32 7 57 26q26 18 45 49q14 27 22 72z" />
    <glyph glyph-name="F" unicode="F" horiz-adv-x="547" 
d="M527 530h-12q-6 45 -22 71q-14 28 -44 50q-27 19 -57 26q-37 8 -88 8q-53 0 -85 -26t-32 -78v-205h168v29h1v59h16v-192h-16v37h-1v51h-168v-348h54v-12h-221v12h56v676h-56v12h499z" />
    <glyph glyph-name="F" unicode="f" horiz-adv-x="547" 
d="M527 530h-12q-6 45 -22 71q-14 28 -44 50q-27 19 -57 26q-37 8 -88 8q-53 0 -85 -26t-32 -78v-205h168v29h1v59h16v-192h-16v37h-1v51h-168v-348h54v-12h-221v12h56v676h-56v12h499z" />
    <glyph glyph-name="G" unicode="G" horiz-adv-x="761" 
d="M496.5 54.5q-38.5 -34.5 -97.5 -34.5q-49 0 -98 22t-82 60q-38 41 -58 106q-19 61 -19 142q0 91 28 166q20 53 53 94q34 42 69 61q40 25 98 25q39 0 69 -12q28 -10 58 -39q36 -33 57 -78q7 -13 29 -72l8 -21v-1h12v207h-12v-44q-30 36 -94 56.5t-133 20.5q-65 0 -129 -21
q-63 -21 -109 -58q-61 -50 -93 -126q-33 -76 -33 -170q0 -122 57 -207q56 -86 158 -120q59 -21 134 -21q26 0 50 3q35 3 68 12q39 14 48 18l110 -32v262h96v16h-322v-16q57 0 86.5 -20t29.5 -74q0 -70 -38.5 -104.5z" />
    <glyph glyph-name="G" unicode="g" horiz-adv-x="761" 
d="M496.5 54.5q-38.5 -34.5 -97.5 -34.5q-49 0 -98 22t-82 60q-38 41 -58 106q-19 61 -19 142q0 91 28 166q20 53 53 94q34 42 69 61q40 25 98 25q39 0 69 -12q28 -10 58 -39q36 -33 57 -78q7 -13 29 -72l8 -21v-1h12v207h-12v-44q-30 36 -94 56.5t-133 20.5q-65 0 -129 -21
q-63 -21 -109 -58q-61 -50 -93 -126q-33 -76 -33 -170q0 -122 57 -207q56 -86 158 -120q59 -21 134 -21q26 0 50 3q35 3 68 12q39 14 48 18l110 -32v262h96v16h-322v-16q57 0 86.5 -20t29.5 -74q0 -70 -38.5 -104.5z" />
    <glyph glyph-name="H" unicode="H" horiz-adv-x="730" 
d="M660 688v-676h44v-12h-210v12h55v326h-363v-326h44v-12h-210v12h55v676h-49v12h210v-12h-50v-326h363v326h-49v12h210v-12h-50z" />
    <glyph glyph-name="H" unicode="h" horiz-adv-x="730" 
d="M660 688v-676h44v-12h-210v12h55v326h-363v-326h44v-12h-210v12h55v676h-49v12h210v-12h-50v-326h363v326h-49v12h210v-12h-50z" />
    <glyph glyph-name="I" unicode="I" horiz-adv-x="256" 
d="M186 688v-676h44v-12h-210v12h55v676h-50v12h211v-12h-50z" />
    <glyph glyph-name="I" unicode="i" horiz-adv-x="256" 
d="M186 688v-676h44v-12h-210v12h55v676h-50v12h211v-12h-50z" />
    <glyph glyph-name="J" unicode="J" horiz-adv-x="434" 
d="M365 688h49v12h-210v-12h50v-600q0 -115 -13 -160q-11 -32 -28 -46q-17 -16 -43 -16q-19 0 -31 9q-11 10 -20 32l-14 33q-4 8 -11 15q-15 13 -31 13q-19 0 -31 -12t-12 -30q0 -31 30 -49q17 -11 44 -17t56 -6q44 0 94 16q47 16 73 43q28 28 38 64q10 34 10 107v604z" />
    <glyph glyph-name="J" unicode="j" horiz-adv-x="434" 
d="M365 688h49v12h-210v-12h50v-600q0 -115 -13 -160q-11 -32 -28 -46q-17 -16 -43 -16q-19 0 -31 9q-11 10 -20 32l-14 33q-4 8 -11 15q-15 13 -31 13q-19 0 -31 -12t-12 -30q0 -31 30 -49q17 -11 44 -17t56 -6q44 0 94 16q47 16 73 43q28 28 38 64q10 34 10 107v604z" />
    <glyph glyph-name="K" unicode="K" horiz-adv-x="703" 
d="M683 12v-12h-211v12h27q-145 183 -280 352l-33 -33v-319h44v-12h-210v12h55v676h-50v12h210v-12h-49v-331l217 215q36 38 40 44q8 9 8 25q0 26 -24 38q-14 6 -44 9v12h221v-12q-23 -2 -37 -7q-15 -6 -33 -18q-23 -16 -69 -61l-166 -160q112 -144 338 -430h46z" />
    <glyph glyph-name="K" unicode="k" horiz-adv-x="703" 
d="M683 12v-12h-211v12h27q-145 183 -280 352l-33 -33v-319h44v-12h-210v12h55v676h-50v12h210v-12h-49v-331l217 215q36 38 40 44q8 9 8 25q0 26 -24 38q-14 6 -44 9v12h221v-12q-23 -2 -37 -7q-15 -6 -33 -18q-23 -16 -69 -61l-166 -160q112 -144 338 -430h46z" />
    <glyph glyph-name="L" unicode="L" horiz-adv-x="546" 
d="M20 0v12h55v676h-55v12h221v-12h-55v-672h118q56 0 87 7q32 7 57 26q27 20 45 49q14 27 22 72h11l-8 -170h-498z" />
    <glyph glyph-name="L" unicode="l" horiz-adv-x="546" 
d="M20 0v12h55v676h-55v12h221v-12h-55v-672h118q56 0 87 7q32 7 57 26q27 20 45 49q14 27 22 72h11l-8 -170h-498z" />
    <glyph glyph-name="M" unicode="M" horiz-adv-x="854" 
d="M834 12v-12h-211v12h50v608l-264 -620h-11l-262 610v-598h94v-12h-210v12h95v527q0 17 -2 45q-3 39 -12 55q-12 24 -35 36q-18 9 -46 12v13h209l222 -548l230 548h153v-12h-50v-676h50z" />
    <glyph glyph-name="M" unicode="m" horiz-adv-x="854" 
d="M834 12v-12h-211v12h50v608l-264 -620h-11l-262 610v-598h94v-12h-210v12h95v527q0 17 -2 45q-3 39 -12 55q-12 24 -35 36q-18 9 -46 12v13h209l222 -548l230 548h153v-12h-50v-676h50z" />
    <glyph glyph-name="N" unicode="N" horiz-adv-x="708" 
d="M688 700v-11h-46v-689h-24l-482 607v-595h94v-12h-210v12h95v527q0 53 -6 78q-6 26 -22 42q-13 15 -32 21q-17 6 -35 7v13h184l417 -531v370q0 53 -6 78q-6 24 -22 42q-15 15 -33 21q-20 7 -47 8v12h175z" />
    <glyph glyph-name="N" unicode="n" horiz-adv-x="708" 
d="M688 700v-11h-46v-689h-24l-482 607v-595h94v-12h-210v12h95v527q0 53 -6 78q-6 26 -22 42q-13 15 -32 21q-17 6 -35 7v13h184l417 -531v370q0 53 -6 78q-6 24 -22 42q-15 15 -33 21q-20 7 -47 8v12h175z" />
    <glyph glyph-name="O" unicode="O" horiz-adv-x="658" 
d="M39 222q18 -60 53 -107q44 -58 105 -92q62 -33 128 -33q68 0 130 34q62 33 107 95q36 48 56 109q20 62 20 124q0 128 -74 229q-48 63 -106 95q-61 34 -125 34q-52 0 -101 -21q-47 -20 -93 -61q-57 -52 -89 -126q-30 -72 -30 -157q0 -66 19 -123zM140 493q18 74 51 123
q28 42 60 60q32 19 77 19q43 0 78 -19q33 -19 60 -60q34 -50 52 -123q18 -72 18 -153q0 -147 -66 -248q-30 -45 -64 -65q-33 -21 -78 -21q-42 0 -77 21q-32 19 -63 65q-66 100 -66 246q0 83 18 155z" />
    <glyph glyph-name="O" unicode="o" horiz-adv-x="658" 
d="M39 222q18 -60 53 -107q44 -58 105 -92q62 -33 128 -33q68 0 130 34q62 33 107 95q36 48 56 109q20 62 20 124q0 128 -74 229q-48 63 -106 95q-61 34 -125 34q-52 0 -101 -21q-47 -20 -93 -61q-57 -52 -89 -126q-30 -72 -30 -157q0 -66 19 -123zM140 493q18 74 51 123
q28 42 60 60q32 19 77 19q43 0 78 -19q33 -19 60 -60q34 -50 52 -123q18 -72 18 -153q0 -147 -66 -248q-30 -45 -64 -65q-33 -21 -78 -21q-42 0 -77 21q-32 19 -63 65q-66 100 -66 246q0 83 18 155z" />
    <glyph glyph-name="P" unicode="P" horiz-adv-x="558" 
d="M25 688h50v-676h-55v-12h210v12h-44v333h100q61 0 85 2q54 4 93 27q74 44 74 137t-73 148q-31 24 -70 33q-29 6 -101 8h-269v-12zM186 542q0 51 6 75q6 26 22 42q13 13 32 21q6 3 13 3q6 1 15 1q7 0 9 -1q42 -4 74 -30q27 -21 42 -58q15 -35 15 -77q0 -77 -50 -122
q-25 -22 -49 -27q-25 -8 -79 -8h-50v181z" />
    <glyph glyph-name="P" unicode="p" horiz-adv-x="558" 
d="M25 688h50v-676h-55v-12h210v12h-44v333h100q61 0 85 2q54 4 93 27q74 44 74 137t-73 148q-31 24 -70 33q-29 6 -101 8h-269v-12zM186 542q0 51 6 75q6 26 22 42q13 13 32 21q6 3 13 3q6 1 15 1q7 0 9 -1q42 -4 74 -30q27 -21 42 -58q15 -35 15 -77q0 -77 -50 -122
q-25 -22 -49 -27q-25 -8 -79 -8h-50v181z" />
    <glyph glyph-name="Q" unicode="Q" horiz-adv-x="658" 
d="M454 22q-32 -18 -67 -26q54 -49 104 -49q15 0 33 5q16 5 22 8q17 8 28 20.5t22 34.5l7 -3q-10 -34 -25 -56.5t-40 -40.5q-43 -30 -86 -30q-42 0 -81.5 28.5t-77.5 76.5q-51 8 -96 31q-61 33 -104 93q-36 49 -54 107q-19 58 -19 123q0 85 30 158q31 72 89 125q41 40 93 61
q52 22 101 22q64 0 124 -34t107 -96q74 -101 74 -229q0 -62 -20 -124q-17 -58 -56 -109q-45 -61 -108 -96zM469 91q67 100 67 248q0 82 -18 154q-19 72 -52 122q-25 42 -59 60q-32 19 -78 19t-78 -19q-33 -18 -60 -60q-33 -47 -51 -122q-18 -72 -18 -156q0 -78 19 -141
q67 -5 114 -48q20 -17 55 -64q42 -53 62 -73q18 5 34 14q34 21 63 66zM275 14q-12 17 -22 32.5t-20 29.5q-13 23 -27 42q-18 28 -30.5 42t-29.5 19q15 -47 42 -88q31 -46 63 -65q12 -7 24 -12z" />
    <glyph glyph-name="Q" unicode="q" horiz-adv-x="658" 
d="M454 22q-32 -18 -67 -26q54 -49 104 -49q15 0 33 5q16 5 22 8q17 8 28 20.5t22 34.5l7 -3q-10 -34 -25 -56.5t-40 -40.5q-43 -30 -86 -30q-42 0 -81.5 28.5t-77.5 76.5q-51 8 -96 31q-61 33 -104 93q-36 49 -54 107q-19 58 -19 123q0 85 30 158q31 72 89 125q41 40 93 61
q52 22 101 22q64 0 124 -34t107 -96q74 -101 74 -229q0 -62 -20 -124q-17 -58 -56 -109q-45 -61 -108 -96zM469 91q67 100 67 248q0 82 -18 154q-19 72 -52 122q-25 42 -59 60q-32 19 -78 19t-78 -19q-33 -18 -60 -60q-33 -47 -51 -122q-18 -72 -18 -156q0 -78 19 -141
q67 -5 114 -48q20 -17 55 -64q42 -53 62 -73q18 5 34 14q34 21 63 66zM275 14q-12 17 -22 32.5t-20 29.5q-13 23 -27 42q-18 28 -30.5 42t-29.5 19q15 -47 42 -88q31 -46 63 -65q12 -7 24 -12z" />
    <glyph glyph-name="R" unicode="R" horiz-adv-x="653" 
d="M633 12v-12h-210v12h40l-18 41q-29 66 -49.5 109.5t-44.5 84.5q-22 38 -38.5 57.5t-40 28.5t-61.5 9h-24v-330h44v-12h-211v12h55v676h-49v12h268q73 -2 101 -8q38 -9 71 -33q72 -55 72 -148q0 -94 -74 -137q-31 -18 -78 -26q21 -9 33.5 -20t23.5 -29q52 -89 139 -287h51
zM414 518q0 41 -14 77q-16 37 -42 57q-31 26 -75 31q-4 1 -23 1q-10 -2 -14 -4q-19 -8 -32 -21q-17 -19 -21 -42q-6 -25 -6 -75v-181h50q54 0 78 8q26 6 49 27q50 44 50 122z" />
    <glyph glyph-name="R" unicode="r" horiz-adv-x="653" 
d="M633 12v-12h-210v12h40l-18 41q-29 66 -49.5 109.5t-44.5 84.5q-22 38 -38.5 57.5t-40 28.5t-61.5 9h-24v-330h44v-12h-211v12h55v676h-49v12h268q73 -2 101 -8q38 -9 71 -33q72 -55 72 -148q0 -94 -74 -137q-31 -18 -78 -26q21 -9 33.5 -20t23.5 -29q52 -89 139 -287h51
zM414 518q0 41 -14 77q-16 37 -42 57q-31 26 -75 31q-4 1 -23 1q-10 -2 -14 -4q-19 -8 -32 -21q-17 -19 -21 -42q-6 -25 -6 -75v-181h50q54 0 78 8q26 6 49 27q50 44 50 122z" />
    <glyph glyph-name="S" unicode="S" horiz-adv-x="480" 
d="M460 200q0 -47 -18 -88q-27 -59 -79 -90q-53 -32 -124 -32q-65 0 -122.5 30t-81.5 69v-89h-15v217h15v-15q22 -73 47 -111q56 -84 138 -84q59 0 96 38q38 40 38 98q0 25 -8 52q-10 31 -23 46q-17 22 -41 38q-33 22 -81 46q-45 22 -73 41q-27 18 -41 34q-44 47 -44 115
q0 41 17 81q16 37 47 66q26 23 61.5 35t74.5 12q47 0 90.5 -16.5t69.5 -45.5v53h15v-202h-15l-7 25q-16 56 -30.5 90.5t-45 58.5t-81.5 24t-84 -33.5t-33 -83.5q0 -85 107 -136l71 -35q84 -40 119 -86q41 -51 41 -122z" />
    <glyph glyph-name="S" unicode="s" horiz-adv-x="480" 
d="M460 200q0 -47 -18 -88q-27 -59 -79 -90q-53 -32 -124 -32q-65 0 -122.5 30t-81.5 69v-89h-15v217h15v-15q22 -73 47 -111q56 -84 138 -84q59 0 96 38q38 40 38 98q0 25 -8 52q-10 31 -23 46q-17 22 -41 38q-33 22 -81 46q-45 22 -73 41q-27 18 -41 34q-44 47 -44 115
q0 41 17 81q16 37 47 66q26 23 61.5 35t74.5 12q47 0 90.5 -16.5t69.5 -45.5v53h15v-202h-15l-7 25q-16 56 -30.5 90.5t-45 58.5t-81.5 24t-84 -33.5t-33 -83.5q0 -85 107 -136l71 -35q84 -40 119 -86q41 -51 41 -122z" />
    <glyph glyph-name="T" unicode="T" horiz-adv-x="603" 
d="M583 511l-11 -1q-14 64 -36 97q-27 41 -64 55q-35 15 -115 20v-670h50v-12h-210v12h49v670q-79 -5 -115 -20q-37 -14 -64 -55q-23 -37 -35 -97l-12 1l10 189h544z" />
    <glyph glyph-name="T" unicode="t" horiz-adv-x="603" 
d="M583 511l-11 -1q-14 64 -36 97q-27 41 -64 55q-35 15 -115 20v-670h50v-12h-210v12h49v670q-79 -5 -115 -20q-37 -14 -64 -55q-23 -37 -35 -97l-12 1l10 189h544z" />
    <glyph glyph-name="U" unicode="U" horiz-adv-x="716" 
d="M696 688h-94v-468q0 -69 -11 -104q-10 -32 -43 -62q-74 -64 -212 -64q-144 0 -211 60q-44 38 -53 102q-3 23 -3 81v455h-49v12h208v-12h-49v-446q0 -67 5 -102q7 -33 22 -57q24 -40 60 -58t91 -18q53 0 100 16q48 15 80 44q18 16 30 39q9 21 12 52q2 28 2 99v431h-94v12
h209v-12z" />
    <glyph glyph-name="U" unicode="u" horiz-adv-x="716" 
d="M696 688h-94v-468q0 -69 -11 -104q-10 -32 -43 -62q-74 -64 -212 -64q-144 0 -211 60q-44 38 -53 102q-3 23 -3 81v455h-49v12h208v-12h-49v-446q0 -67 5 -102q7 -33 22 -57q24 -40 60 -58t91 -18q53 0 100 16q48 15 80 44q18 16 30 39q9 21 12 52q2 28 2 99v431h-94v12
h209v-12z" />
    <glyph glyph-name="V" unicode="V" horiz-adv-x="722" 
d="M702 688h-45l-272 -688h-30l-283 688h-52v12h210v-12h-42l101 -249l26 -65l98 -242l86 224l27 68l106 264h-35v12h105v-12z" />
    <glyph glyph-name="V" unicode="v" horiz-adv-x="722" 
d="M702 688h-45l-272 -688h-30l-283 688h-52v12h210v-12h-42l101 -249l26 -65l98 -242l86 224l27 68l106 264h-35v12h105v-12z" />
    <glyph glyph-name="W" unicode="W" horiz-adv-x="1095" 
d="M1075 688h-46l-271 -688h-30l-175 426l-169 -426h-29l-284 688h-51v12h210v-12h-42l101 -249l26 -65l98 -242l86 224l26 68l14 35l-94 229h-52v12h308v-12h-45l-47 -119l53 -130l26 -65l98 -242l86 224l26 68l107 264h-35v12h105v-12zM596 601l36 87h-71z" />
    <glyph glyph-name="W" unicode="w" horiz-adv-x="1095" 
d="M1075 688h-46l-271 -688h-30l-175 426l-169 -426h-29l-284 688h-51v12h210v-12h-42l101 -249l26 -65l98 -242l86 224l26 68l14 35l-94 229h-52v12h308v-12h-45l-47 -119l53 -130l26 -65l98 -242l86 224l26 68l107 264h-35v12h105v-12zM596 601l36 87h-71z" />
    <glyph glyph-name="X" unicode="X" horiz-adv-x="747" 
d="M727 12v-12h-210v12h38l-206 305v2q-59 -70 -175 -212l-78 -95h29v-12h-105v12h49l267 326q-90 136 -234 350h-50v12h211v-12h-35q118 -176 179 -263v-3l218 266h-34v12h105v-12h-44q-121 -146 -233 -284l92 -138q33 -49 76 -114t94 -140h46z" />
    <glyph glyph-name="X" unicode="x" horiz-adv-x="747" 
d="M727 12v-12h-210v12h38l-206 305v2q-59 -70 -175 -212l-78 -95h29v-12h-105v12h49l267 326q-90 136 -234 350h-50v12h211v-12h-35q118 -176 179 -263v-3l218 266h-34v12h105v-12h-44q-121 -146 -233 -284l92 -138q33 -49 76 -114t94 -140h46z" />
    <glyph glyph-name="Y" unicode="Y" horiz-adv-x="713" 
d="M693 688h-39l-75 -114l-1 -2l-2 -2l-1 -2l-3 -4l-14 -21l-104 -159q-21 -31 -26 -47q-5 -17 -5 -50v-275h50v-12h-211v12h50v249q0 21 -9 48q-8 26 -40 76l-197 303h-46v12h210v-12h-31l212 -334l119 186l14 21q19 32 19 59q0 33 -21 51q-20 16 -50 17h-10v12h211v-12z
" />
    <glyph glyph-name="Y" unicode="y" horiz-adv-x="713" 
d="M693 688h-39l-75 -114l-1 -2l-2 -2l-1 -2l-3 -4l-14 -21l-104 -159q-21 -31 -26 -47q-5 -17 -5 -50v-275h50v-12h-211v12h50v249q0 21 -9 48q-8 26 -40 76l-197 303h-46v12h210v-12h-31l212 -334l119 186l14 21q19 32 19 59q0 33 -21 51q-20 16 -50 17h-10v12h211v-12z
" />
    <glyph glyph-name="Z" unicode="Z" horiz-adv-x="616" 
d="M596 689l-444 -673h164h36h228v55h16v-71h-576v12l448 672h-147q-77 0 -126 -11q-47 -13 -82 -40q-29 -23 -45 -52q-16 -28 -21 -69l-12 1l12 187h549v-11z" />
    <glyph glyph-name="Z" unicode="z" horiz-adv-x="616" 
d="M596 689l-444 -673h164h36h228v55h16v-71h-576v12l448 672h-147q-77 0 -126 -11q-47 -13 -82 -40q-29 -23 -45 -52q-16 -28 -21 -69l-12 1l12 187h549v-11z" />
    <glyph glyph-name="bracketleft" unicode="[" 
 />
    <glyph glyph-name="backslash" unicode="\" 
 />
    <glyph glyph-name="bracketright" unicode="]" 
 />
    <glyph glyph-name="asciicircum" unicode="^" 
 />
    <glyph glyph-name="underscore" unicode="_" 
 />
    <glyph glyph-name="braceleft" unicode="{" 
 />
    <glyph glyph-name="bar" unicode="|" 
 />
    <glyph glyph-name="braceright" unicode="}" 
 />
    <glyph glyph-name="asciitilde" unicode="~" 
 />
    <glyph glyph-name="exclamdown" unicode="&#xa1;" 
 />
    <glyph glyph-name="cent" unicode="&#xa2;" 
 />
    <glyph glyph-name="sterling" unicode="&#xa3;" 
 />
    <glyph glyph-name="currency" unicode="&#xa4;" 
 />
    <glyph glyph-name="yen" unicode="&#xa5;" 
 />
    <glyph glyph-name="brokenbar" unicode="&#xa6;" 
 />
    <glyph glyph-name="section" unicode="&#xa7;" 
 />
    <glyph glyph-name="copyright" unicode="&#xa9;" 
 />
    <glyph glyph-name="guillemotleft" unicode="&#xab;" 
 />
    <glyph glyph-name="logicalnot" unicode="&#xac;" 
 />
    <glyph glyph-name="registered" unicode="&#xae;" 
 />
    <glyph glyph-name="degree" unicode="&#xb0;" 
 />
    <glyph glyph-name="plusminus" unicode="&#xb1;" 
 />
    <glyph glyph-name="paragraph" unicode="&#xb6;" 
 />
    <glyph glyph-name="periodcentered" unicode="&#xb7;" 
 />
    <glyph glyph-name="guillemotright" unicode="&#xbb;" 
 />
    <glyph glyph-name="questiondown" unicode="&#xbf;" 
 />
    <glyph glyph-name="multiply" unicode="&#xd7;" 
 />
    <glyph glyph-name="divide" unicode="&#xf7;" 
 />
    <glyph glyph-name="quoteleft" unicode="&#x2018;" horiz-adv-x="152" 
d="M122 600q-46 37 -71 81q-31 50 -31 109q0 32 20 50q17 14 40 14q18 0 34 -14q14 -16 14 -35q0 -23 -12 -38q-12 -14 -24 -14q-14 0 -21 -13q-4 -10 -4 -18q0 -28 26 -65q14 -22 39 -45z" />
    <glyph glyph-name="quoteright" unicode="&#x2019;" horiz-adv-x="152" 
d="M30 600q45 36 72 81q30 51 30 109q0 32 -19 50q-17 14 -41 14q-19 0 -33 -14t-14 -35q0 -23 12 -38q11 -14 23 -14q14 0 21 -13q4 -8 4 -20q0 -8 -1 -12q-8 -25 -25 -51q-16 -25 -39 -45z" />
    <glyph glyph-name="quotesinglbase" unicode="&#x201a;" 
d="M36 -95l23 23q19 22 23 36q3 12 3 19q0 5 -2 13q-3 14 -17 14q-12 0 -24 13q-11 14 -11 33q0 21 14 35t33 14q23 0 37 -14q17 -19 17 -50q0 -52 -31 -95q-20 -28 -70 -69l-11 12z" />
    <glyph glyph-name="quotedblleft" unicode="&#x201c;" horiz-adv-x="342" 
d="M93 657q-16 26 -24 51q-2 10 -2 13q0 9 5 19q6 13 21 13q12 0 24 14q11 16 11 38q0 19 -14 35q-14 14 -33 14q-24 0 -41 -14q-20 -18 -20 -50q0 -57 31 -109q27 -46 70 -81l12 12q-21 18 -40 45zM322 612q-22 19 -39 45q-18 27 -24 51q-2 10 -2 14q0 8 4 18q7 13 21 13
q12 0 23 14q13 14 13 38q0 19 -14 35q-16 14 -34 14q-23 0 -40 -14q-20 -17 -20 -50q0 -59 31 -109q25 -44 71 -81z" />
    <glyph glyph-name="quotedblright" unicode="&#x201d;" horiz-adv-x="342" 
d="M30 600q45 36 72 81q31 53 31 109q0 32 -20 50q-17 14 -40 14q-20 0 -34 -14t-14 -35q0 -23 12 -38q12 -14 23 -14q15 0 21 -13q4 -8 4 -20q0 -8 -1 -12q-8 -25 -25 -51q-16 -25 -39 -45zM221 600q45 38 70 81q31 52 31 109q0 32 -19 50q-19 14 -42 14q-18 0 -32 -14
q-15 -15 -15 -35q0 -23 12 -38q11 -14 23 -14q15 0 22 -13q4 -10 4 -18q0 -4 -2 -14q-7 -26 -24 -51q-16 -25 -39 -45z" />
    <glyph glyph-name="quotedblbase" unicode="&#x201e;" 
d="M132 41q0 -52 -31 -95q-20 -28 -70 -69l-11 12l16 16l23 23q19 22 23 36q3 12 3 19q0 5 -2 13q-3 14 -17 14q-12 0 -24 13q-11 14 -11 33q0 21 14 35t33 14q23 0 37 -14q17 -19 17 -50z" />
    <glyph glyph-name="dagger" unicode="&#x2020;" 
 />
    <glyph glyph-name="daggerdbl" unicode="&#x2021;" 
 />
    <glyph glyph-name="bullet" unicode="&#x2022;" 
 />
    <glyph glyph-name="ellipsis" unicode="&#x2026;" 
d="M126 56q0 -22 -13 -38q-15 -18 -41 -18q-25 0 -40 18q-12 15 -12 38q0 24 12 39q16 16 40 16q25 0 41 -16q13 -16 13 -39z" />
    <glyph glyph-name="perthousand" unicode="&#x2030;" 
 />
    <glyph glyph-name="guilsinglleft" unicode="&#x2039;" 
 />
    <glyph glyph-name="guilsinglright" unicode="&#x203a;" 
 />
    <glyph glyph-name="fraction" unicode="&#x2044;" 
 />
    <glyph glyph-name="Euro" unicode="&#x20ac;" 
 />
    <glyph glyph-name="trademark" unicode="&#x2122;" horiz-adv-x="1457" 
d="M583 511l-11 -1q-14 64 -36 97q-27 41 -64 55q-35 15 -115 20v-670h50v-12h-210v12h49v670q-79 -5 -115 -20q-37 -14 -64 -55q-23 -37 -35 -97l-12 1l10 189h544zM1437 12v-12h-211v12h50v608l-264 -620h-11l-262 610v-598h94v-12h-210v12h95v527q0 17 -2 45
q-3 39 -12 55q-12 24 -35 36q-18 9 -46 12v13h209l222 -548l230 548h153v-12h-50v-676h50z" />
    <glyph glyph-name="partialdiff" unicode="&#x2202;" 
 />
    <glyph glyph-name="emptyset" unicode="&#x2205;" 
 />
    <glyph glyph-name="product" unicode="&#x220f;" 
 />
    <glyph glyph-name="summation" unicode="&#x2211;" 
 />
    <glyph glyph-name="minus" unicode="&#x2212;" 
 />
    <glyph glyph-name="radical" unicode="&#x221a;" 
 />
    <glyph glyph-name="infinity" unicode="&#x221e;" 
 />
    <glyph glyph-name="integral" unicode="&#x222b;" 
 />
    <glyph glyph-name="approxequal" unicode="&#x2248;" 
 />
    <glyph glyph-name="notequal" unicode="&#x2260;" 
 />
    <glyph glyph-name="lessequal" unicode="&#x2264;" 
 />
    <glyph glyph-name="greaterequal" unicode="&#x2265;" 
 />
    <glyph glyph-name="lozenge" unicode="&#x25ca;" 
 />
    </font>
</defs>
</svg>
