<svg id="svg" version="1.1" xmlns="http://www.w3.org/2000/svg" xmlns:xlink="http://www.w3.org/1999/xlink" width="400" height="400" viewBox="0, 0, 400,400"><g id="svgg"><path id="path0" d="M116.786 44.032 C 116.751 44.062,115.175 44.169,113.285 44.269 C 111.395 44.370,109.551 44.489,109.187 44.534 C 108.824 44.579,107.716 44.697,106.727 44.798 C 105.737 44.898,104.726 45.018,104.480 45.065 C 104.233 45.111,103.496 45.222,102.842 45.312 C 102.188 45.401,101.360 45.531,101.002 45.601 C 100.644 45.671,99.871 45.799,99.284 45.885 C 98.696 45.971,97.383 46.222,96.365 46.442 C 95.347 46.663,93.681 47.021,92.664 47.239 C 88.302 48.172,76.548 51.933,75.757 52.648 C 75.619 52.773,75.359 52.875,75.180 52.875 C 75.001 52.875,74.044 53.240,73.052 53.686 C 72.061 54.133,70.661 54.757,69.942 55.074 C 67.915 55.969,63.751 58.063,61.996 59.070 C 61.124 59.571,60.151 60.100,59.835 60.247 C 59.154 60.563,54.388 63.479,54.197 63.697 C 54.124 63.780,53.740 64.015,53.342 64.220 C 52.945 64.425,52.385 64.811,52.097 65.079 C 51.810 65.346,51.503 65.565,51.414 65.565 C 51.280 65.565,50.461 66.137,49.042 67.221 C 48.896 67.333,48.182 67.864,47.455 68.402 C 45.779 69.644,45.916 69.537,43.884 71.180 C 37.993 75.944,32.522 81.271,28.066 86.583 C 26.725 88.182,25.472 89.670,25.282 89.888 C 25.092 90.106,24.650 90.696,24.299 91.200 C 23.948 91.703,23.446 92.357,23.181 92.654 C 22.917 92.950,22.448 93.609,22.138 94.118 C 21.828 94.627,21.499 95.102,21.406 95.175 C 21.151 95.375,17.978 100.154,17.978 100.338 C 17.978 100.426,17.693 100.877,17.346 101.340 C 16.998 101.802,16.374 102.807,15.958 103.571 C 15.542 104.335,14.752 105.763,14.202 106.743 C 12.380 109.991,9.550 116.013,8.209 119.498 C 7.733 120.734,7.190 122.102,7.002 122.538 C 6.435 123.857,4.020 131.496,3.819 132.605 C 3.716 133.175,3.538 133.824,3.423 134.047 C 3.309 134.270,3.136 134.982,3.040 135.628 C 2.943 136.274,2.814 136.886,2.751 136.987 C 2.689 137.087,2.524 137.744,2.385 138.446 C 2.246 139.148,2.084 139.960,2.026 140.251 C 1.968 140.542,1.845 141.196,1.752 141.705 C 1.660 142.214,1.535 142.883,1.475 143.192 C 1.350 143.829,1.179 144.941,0.910 146.861 C 0.809 147.588,0.681 148.420,0.627 148.711 C -0.058 152.401,-0.055 173.680,0.630 177.264 C 0.686 177.555,0.819 178.447,0.925 179.247 C 1.032 180.046,1.155 180.894,1.199 181.130 C 1.243 181.366,1.351 182.020,1.440 182.584 C 2.339 188.287,5.262 199.099,7.006 203.173 C 7.192 203.609,7.650 204.757,8.023 205.724 C 9.351 209.167,12.562 215.881,14.642 219.564 C 15.135 220.436,15.786 221.626,16.088 222.208 C 16.391 222.789,17.178 224.086,17.837 225.089 C 18.496 226.092,19.035 226.963,19.035 227.025 C 19.035 227.209,24.778 235.643,25.299 236.224 C 25.562 236.517,26.074 237.184,26.438 237.706 C 27.170 238.758,27.628 239.355,30.148 242.547 C 31.098 243.751,32.050 244.919,32.263 245.144 C 32.476 245.368,33.007 246.001,33.443 246.550 C 37.729 251.944,51.267 265.830,58.180 271.922 C 60.152 273.660,62.540 275.764,63.486 276.596 C 65.023 277.950,70.600 282.542,72.513 284.029 C 72.918 284.343,73.394 284.722,73.571 284.872 C 73.748 285.021,74.567 285.676,75.391 286.326 C 76.214 286.976,77.166 287.730,77.506 288.002 C 77.845 288.273,80.026 289.914,82.353 291.647 C 84.679 293.380,86.821 294.984,87.112 295.211 C 87.403 295.438,88.116 295.939,88.698 296.325 C 89.280 296.710,89.986 297.234,90.268 297.488 C 90.550 297.743,90.859 297.951,90.955 297.951 C 91.050 297.951,91.409 298.194,91.752 298.492 C 92.095 298.789,92.797 299.290,93.313 299.606 C 93.828 299.921,94.388 300.312,94.556 300.476 C 94.725 300.639,95.498 301.177,96.275 301.671 C 97.051 302.164,97.726 302.659,97.775 302.771 C 97.823 302.883,98.022 302.974,98.215 302.974 C 98.409 302.974,98.608 303.074,98.656 303.196 C 98.772 303.489,106.721 308.790,107.044 308.790 C 107.180 308.790,107.332 308.880,107.380 308.989 C 107.503 309.264,110.445 311.170,110.747 311.170 C 110.883 311.170,111.033 311.259,111.082 311.368 C 111.182 311.593,113.323 313.020,113.561 313.020 C 113.647 313.020,114.107 313.318,114.583 313.681 C 115.060 314.045,115.573 314.342,115.723 314.342 C 115.873 314.342,116.135 314.510,116.305 314.715 C 116.475 314.919,116.995 315.282,117.461 315.519 C 117.927 315.757,118.619 316.155,118.998 316.403 C 120.355 317.289,128.218 322.009,128.338 322.009 C 128.405 322.009,128.983 322.362,129.622 322.793 C 130.260 323.224,131.069 323.706,131.419 323.864 C 131.769 324.022,132.531 324.442,133.113 324.797 C 133.695 325.152,134.527 325.630,134.964 325.859 C 135.400 326.088,136.233 326.565,136.814 326.918 C 137.396 327.271,138.348 327.810,138.929 328.116 C 139.511 328.422,140.582 329.014,141.309 329.431 C 142.036 329.847,143.166 330.478,143.820 330.831 C 144.475 331.184,145.843 331.923,146.861 332.474 C 153.154 335.875,160.533 339.690,166.557 342.656 C 176.400 347.504,179.067 348.774,186.913 352.351 C 196.057 356.519,201.941 356.903,209.385 353.818 C 211.342 353.007,211.656 352.875,212.426 352.546 C 217.330 350.448,222.013 348.210,233.840 342.314 C 243.326 337.584,247.158 335.623,251.157 333.449 C 252.102 332.935,253.529 332.166,254.329 331.739 C 255.129 331.313,256.438 330.601,257.237 330.157 C 258.037 329.713,259.108 329.124,259.617 328.848 C 260.126 328.572,261.137 327.999,261.864 327.573 C 262.591 327.148,263.543 326.614,263.979 326.386 C 264.415 326.158,265.248 325.683,265.829 325.330 C 266.411 324.978,267.244 324.503,267.680 324.275 C 268.116 324.047,268.830 323.625,269.266 323.336 C 269.703 323.047,270.346 322.685,270.696 322.533 C 271.046 322.380,271.819 321.927,272.414 321.525 C 273.009 321.123,273.675 320.710,273.893 320.606 C 274.111 320.502,274.646 320.182,275.083 319.895 C 275.519 319.608,276.114 319.251,276.404 319.101 C 276.695 318.951,277.290 318.594,277.726 318.307 C 278.163 318.020,278.698 317.702,278.916 317.601 C 279.471 317.344,281.928 315.854,282.089 315.678 C 282.161 315.598,282.637 315.302,283.146 315.022 C 283.655 314.741,285.083 313.854,286.319 313.050 C 287.555 312.246,288.854 311.431,289.206 311.239 C 289.559 311.047,290.421 310.477,291.124 309.972 C 291.826 309.468,292.519 309.055,292.664 309.055 C 292.809 309.055,292.928 308.936,292.928 308.790 C 292.928 308.645,293.050 308.526,293.199 308.526 C 293.536 308.526,301.487 303.237,301.608 302.932 C 301.657 302.810,301.801 302.710,301.930 302.710 C 302.229 302.710,307.572 298.988,307.689 298.698 C 307.737 298.578,307.891 298.480,308.031 298.480 C 308.256 298.480,311.097 296.507,311.434 296.116 C 311.507 296.032,312.042 295.649,312.624 295.265 C 313.206 294.881,313.919 294.376,314.210 294.143 C 314.501 293.909,316.048 292.743,317.647 291.551 C 319.247 290.359,320.674 289.286,320.820 289.166 C 320.965 289.046,322.277 288.029,323.736 286.906 C 325.195 285.783,326.563 284.715,326.776 284.532 C 326.990 284.349,327.997 283.532,329.015 282.715 C 330.033 281.898,330.925 281.149,330.998 281.049 C 331.071 280.950,331.381 280.697,331.687 280.487 C 333.789 279.048,343.716 270.204,350.660 263.584 C 355.463 259.006,363.896 249.756,368.738 243.756 C 369.502 242.810,370.286 241.857,370.480 241.639 C 370.674 241.421,371.120 240.831,371.471 240.327 C 371.822 239.824,372.314 239.179,372.566 238.895 C 372.817 238.611,373.352 237.893,373.755 237.299 C 374.158 236.705,374.696 235.989,374.950 235.707 C 375.205 235.425,375.413 235.106,375.413 234.999 C 375.413 234.891,375.562 234.646,375.744 234.454 C 376.439 233.719,377.528 232.145,377.528 231.875 C 377.528 231.720,377.647 231.593,377.792 231.593 C 377.938 231.593,378.057 231.469,378.057 231.317 C 378.057 231.166,378.295 230.787,378.586 230.474 C 378.876 230.162,379.114 229.751,379.114 229.560 C 379.114 229.370,379.233 229.213,379.379 229.213 C 379.524 229.213,379.643 229.035,379.643 228.817 C 379.643 228.599,379.743 228.420,379.865 228.420 C 379.987 228.420,380.222 228.153,380.388 227.826 C 380.553 227.498,380.988 226.755,381.353 226.173 C 381.718 225.592,382.139 224.878,382.288 224.587 C 382.437 224.296,382.792 223.701,383.076 223.265 C 383.361 222.829,383.863 221.996,384.191 221.414 C 384.520 220.833,385.057 219.881,385.385 219.299 C 386.138 217.965,389.409 211.399,390.006 210.023 C 391.396 206.818,391.743 205.994,392.053 205.155 C 392.241 204.646,392.542 203.873,392.721 203.437 C 394.948 198.010,397.991 186.230,398.798 179.907 C 398.891 179.180,399.012 178.288,399.068 177.925 C 399.563 174.673,399.854 169.199,399.855 163.120 C 399.856 155.061,399.511 150.500,398.414 144.085 C 398.277 143.285,398.102 142.214,398.025 141.705 C 397.719 139.686,396.758 135.591,395.543 131.130 C 394.821 128.482,392.074 120.488,391.776 120.172 C 391.646 120.034,391.540 119.774,391.540 119.595 C 391.540 119.417,391.175 118.459,390.729 117.467 C 390.282 116.476,389.658 115.076,389.341 114.357 C 388.459 112.359,386.361 108.182,385.350 106.411 C 384.852 105.539,384.272 104.468,384.061 104.032 C 383.850 103.596,383.246 102.602,382.718 101.824 C 382.190 101.046,381.758 100.357,381.758 100.294 C 381.758 100.187,378.749 95.649,378.277 95.043 C 378.164 94.898,377.187 93.589,376.107 92.135 C 371.405 85.805,364.167 78.106,358.361 73.259 C 356.761 71.923,355.281 70.687,355.072 70.511 C 354.622 70.134,353.490 69.295,352.677 68.738 C 352.359 68.519,351.783 68.070,351.396 67.738 C 351.010 67.407,350.099 66.755,349.372 66.289 C 348.645 65.823,348.011 65.351,347.962 65.239 C 347.914 65.128,347.705 65.036,347.499 65.036 C 347.293 65.036,347.125 64.917,347.125 64.772 C 347.125 64.627,346.946 64.508,346.728 64.508 C 346.510 64.508,346.332 64.389,346.332 64.243 C 346.332 64.098,346.234 63.979,346.115 63.979 C 345.996 63.979,344.905 63.325,343.691 62.527 C 342.477 61.728,340.999 60.822,340.405 60.514 C 339.811 60.205,338.612 59.548,337.740 59.052 C 335.634 57.857,329.006 54.633,326.900 53.781 C 326.464 53.604,325.750 53.312,325.314 53.132 C 324.878 52.952,324.253 52.701,323.926 52.575 C 323.599 52.449,323.063 52.231,322.736 52.089 C 319.742 50.794,309.103 47.555,305.882 46.957 C 305.519 46.890,304.389 46.657,303.371 46.440 C 302.353 46.223,301.074 45.976,300.529 45.891 C 298.696 45.606,297.623 45.430,297.094 45.328 C 296.805 45.272,295.898 45.150,295.079 45.055 C 294.259 44.961,293.387 44.846,293.141 44.799 C 292.895 44.753,291.688 44.637,290.461 44.541 C 289.233 44.445,287.828 44.326,287.340 44.277 C 286.162 44.157,271.677 44.169,270.324 44.290 C 269.742 44.342,268.434 44.458,267.416 44.547 C 266.398 44.636,265.327 44.757,265.036 44.816 C 264.746 44.874,263.837 44.991,263.018 45.075 C 262.198 45.158,261.306 45.268,261.035 45.319 C 260.764 45.369,260.007 45.493,259.352 45.595 C 257.126 45.940,250.502 47.323,248.645 47.830 C 247.627 48.107,246.135 48.515,245.329 48.736 C 242.759 49.442,237.032 51.395,236.289 51.820 C 236.037 51.964,235.704 52.082,235.549 52.082 C 235.395 52.082,234.776 52.320,234.174 52.611 C 233.572 52.902,232.983 53.139,232.866 53.139 C 232.382 53.139,223.668 57.352,221.150 58.802 C 220.278 59.305,219.326 59.844,219.035 60.001 C 218.744 60.157,218.149 60.515,217.713 60.796 C 217.277 61.077,216.414 61.572,215.796 61.896 C 215.178 62.221,214.673 62.584,214.673 62.704 C 214.673 62.823,214.547 62.921,214.394 62.921 C 214.136 62.921,211.006 64.930,210.707 65.287 C 210.635 65.374,210.221 65.671,209.789 65.947 C 209.356 66.222,208.880 66.545,208.731 66.663 C 208.582 66.781,207.610 67.505,206.572 68.270 C 204.716 69.640,203.109 70.940,201.178 72.637 C 200.640 73.110,200.051 73.496,199.868 73.496 C 199.685 73.496,199.093 73.110,198.553 72.637 C 197.099 71.365,194.504 69.256,192.862 68.013 C 190.647 66.335,189.534 65.565,189.326 65.565 C 189.187 65.565,189.033 65.467,188.984 65.347 C 188.897 65.130,184.931 62.393,184.705 62.393 C 184.640 62.393,183.951 61.961,183.173 61.433 C 182.395 60.905,181.401 60.300,180.965 60.090 C 180.529 59.879,179.458 59.298,178.586 58.797 C 176.030 57.333,167.348 53.139,166.870 53.139 C 166.752 53.139,166.163 52.902,165.561 52.611 C 164.960 52.320,164.341 52.082,164.186 52.082 C 164.032 52.082,163.699 51.964,163.447 51.820 C 162.703 51.395,156.976 49.442,154.406 48.736 C 153.600 48.515,152.108 48.107,151.091 47.830 C 149.234 47.323,142.610 45.940,140.383 45.595 C 139.729 45.493,139.015 45.378,138.797 45.339 C 138.332 45.254,136.657 45.045,134.435 44.793 C 133.562 44.694,132.611 44.560,132.320 44.495 C 132.029 44.431,128.757 44.323,125.050 44.255 C 121.342 44.188,117.980 44.098,117.579 44.055 C 117.179 44.012,116.822 44.002,116.786 44.032 M130.601 89.200 C 131.110 89.280,132.110 89.418,132.823 89.507 C 133.535 89.596,134.363 89.716,134.663 89.774 C 134.962 89.832,135.687 89.945,136.275 90.027 C 137.232 90.160,140.252 90.884,143.952 91.868 C 147.524 92.817,154.072 95.482,158.096 97.623 C 161.672 99.525,161.591 99.478,162.503 100.132 C 162.960 100.459,163.417 100.727,163.519 100.727 C 163.621 100.727,164.155 101.084,164.706 101.520 C 165.257 101.956,165.778 102.313,165.865 102.313 C 165.951 102.313,166.231 102.486,166.487 102.697 C 166.744 102.908,167.667 103.622,168.539 104.282 C 171.379 106.434,172.449 107.393,176.348 111.293 C 180.608 115.553,182.186 117.372,184.861 121.104 C 186.475 123.355,186.913 124.006,186.913 124.147 C 186.913 124.235,187.181 124.680,187.508 125.135 C 188.264 126.187,188.666 126.862,189.034 127.693 C 189.195 128.057,189.672 128.895,190.095 129.555 C 190.518 130.216,191.207 131.584,191.627 132.596 C 192.047 133.607,192.634 134.970,192.931 135.625 C 193.671 137.254,194.899 140.640,195.616 143.027 C 197.021 147.705,197.510 148.313,199.868 148.313 C 202.385 148.313,202.641 147.949,204.750 141.382 C 205.577 138.805,206.548 136.086,206.909 135.339 C 207.269 134.592,207.796 133.361,208.079 132.603 C 208.363 131.845,209.070 130.437,209.651 129.473 C 210.232 128.510,210.707 127.651,210.707 127.565 C 210.707 127.478,210.932 127.085,211.207 126.691 C 211.482 126.297,212.463 124.785,213.387 123.331 C 214.311 121.877,215.263 120.449,215.503 120.159 C 215.742 119.868,216.932 118.382,218.147 116.857 C 221.854 112.204,227.761 106.609,232.538 103.224 C 233.545 102.510,234.408 101.835,234.457 101.723 C 234.505 101.612,234.714 101.520,234.920 101.520 C 235.126 101.520,235.294 101.401,235.294 101.256 C 235.294 101.110,235.432 100.991,235.600 100.991 C 235.768 100.991,236.273 100.715,236.723 100.377 C 237.173 100.039,237.720 99.680,237.938 99.579 C 238.156 99.477,238.810 99.114,239.392 98.770 C 252.943 90.769,272.263 87.022,287.332 89.474 C 287.720 89.537,288.513 89.659,289.095 89.744 C 289.676 89.830,290.330 89.950,290.549 90.011 C 290.767 90.071,291.362 90.185,291.870 90.264 C 298.792 91.332,311.496 96.037,317.647 99.810 C 318.229 100.167,318.876 100.541,319.086 100.641 C 319.483 100.830,324.852 104.483,325.314 104.878 C 325.459 105.003,326.461 105.815,327.540 106.683 C 331.710 110.038,336.434 114.951,339.863 119.498 C 340.576 120.443,341.252 121.256,341.366 121.304 C 341.480 121.353,341.573 121.514,341.573 121.663 C 341.573 121.811,341.930 122.384,342.366 122.935 C 342.802 123.485,343.159 124.019,343.159 124.121 C 343.159 124.224,343.427 124.681,343.754 125.137 C 344.585 126.297,345.841 128.629,347.552 132.188 C 349.621 136.489,349.704 136.692,350.931 140.383 C 352.150 144.052,353.440 149.233,353.894 152.280 C 353.970 152.789,354.083 153.503,354.144 153.866 C 354.812 157.808,354.806 171.799,354.137 172.893 C 354.090 172.971,353.976 173.510,353.884 174.091 C 353.311 177.722,352.213 182.000,350.829 185.988 C 349.781 189.005,345.825 197.703,345.116 198.546 C 344.933 198.765,344.653 199.241,344.496 199.604 C 344.338 199.967,343.974 200.621,343.687 201.058 C 343.400 201.494,343.075 202.029,342.964 202.247 C 342.672 202.823,338.612 208.878,338.094 209.510 C 337.853 209.805,336.994 210.939,336.185 212.029 C 334.520 214.273,334.084 214.829,333.026 216.054 C 332.615 216.530,331.604 217.745,330.779 218.754 C 327.892 222.285,315.837 234.658,313.020 236.983 C 312.511 237.402,311.203 238.550,310.112 239.534 C 309.022 240.517,307.237 242.066,306.147 242.976 C 305.056 243.885,304.044 244.760,303.897 244.919 C 303.750 245.078,303.096 245.616,302.443 246.114 C 301.790 246.613,301.077 247.176,300.859 247.365 C 300.285 247.864,299.096 248.838,298.411 249.369 C 298.085 249.622,296.629 250.749,295.175 251.874 C 293.721 252.998,292.397 254.040,292.233 254.190 C 292.069 254.339,291.668 254.640,291.342 254.858 C 291.015 255.076,290.614 255.374,290.450 255.520 C 290.286 255.666,289.473 256.248,288.642 256.813 C 287.812 257.378,286.917 258.031,286.655 258.266 C 286.392 258.500,285.476 259.165,284.619 259.744 C 283.762 260.324,282.931 260.923,282.773 261.076 C 282.615 261.229,282.036 261.630,281.487 261.966 C 280.938 262.302,280.343 262.714,280.165 262.881 C 279.987 263.049,278.949 263.769,277.859 264.482 C 276.768 265.195,275.836 265.879,275.788 266.002 C 275.739 266.125,275.531 266.226,275.325 266.226 C 275.119 266.226,274.950 266.345,274.950 266.490 C 274.950 266.636,274.772 266.755,274.554 266.755 C 274.336 266.755,274.157 266.847,274.157 266.959 C 274.157 267.071,273.622 267.455,272.968 267.812 C 272.313 268.170,271.778 268.554,271.778 268.666 C 271.778 268.778,271.599 268.870,271.381 268.870 C 271.163 268.870,270.985 268.989,270.985 269.134 C 270.985 269.280,270.806 269.399,270.588 269.399 C 270.370 269.399,270.192 269.518,270.192 269.663 C 270.192 269.808,270.071 269.927,269.924 269.927 C 269.608 269.927,265.869 272.349,265.741 272.637 C 265.693 272.746,265.542 272.835,265.405 272.835 C 265.100 272.835,262.955 274.214,262.833 274.488 C 262.785 274.597,262.618 274.686,262.462 274.686 C 262.306 274.686,261.788 274.983,261.312 275.347 C 260.835 275.711,260.372 276.008,260.283 276.008 C 260.193 276.008,259.442 276.450,258.613 276.990 C 257.783 277.530,256.856 278.108,256.552 278.274 C 255.912 278.625,249.882 282.267,248.828 282.939 C 248.437 283.189,247.759 283.573,247.323 283.793 C 246.887 284.013,246.352 284.308,246.134 284.450 C 245.131 285.099,239.562 288.276,237.806 289.201 C 237.224 289.507,236.153 290.105,235.426 290.531 C 234.699 290.956,233.510 291.607,232.783 291.979 C 232.056 292.350,230.568 293.143,229.478 293.741 C 222.400 297.620,202.036 307.802,200.217 308.370 C 199.820 308.494,198.921 308.212,197.309 307.456 C 193.699 305.764,176.258 297.022,173.298 295.422 C 171.844 294.635,170.000 293.647,169.200 293.225 C 168.401 292.803,167.092 292.090,166.292 291.641 C 165.492 291.192,164.303 290.541,163.648 290.193 C 162.994 289.845,161.923 289.248,161.269 288.865 C 160.615 288.482,159.722 288.001,159.286 287.796 C 158.850 287.591,158.395 287.323,158.275 287.201 C 158.060 286.982,155.151 285.307,153.866 284.662 C 153.503 284.479,152.694 283.999,152.069 283.594 C 151.444 283.190,150.671 282.743,150.351 282.602 C 150.031 282.461,149.412 282.111,148.976 281.824 C 148.539 281.538,147.944 281.181,147.654 281.031 C 147.363 280.881,146.768 280.524,146.332 280.238 C 145.896 279.951,145.301 279.597,145.010 279.449 C 144.334 279.107,143.462 278.561,143.291 278.374 C 143.016 278.071,140.364 276.537,140.115 276.537 C 139.972 276.537,139.855 276.445,139.855 276.332 C 139.855 276.220,139.408 275.894,138.863 275.608 C 138.318 275.322,137.812 275.026,137.740 274.950 C 137.513 274.715,135.379 273.364,135.234 273.364 C 135.159 273.364,134.517 272.948,133.809 272.439 C 133.101 271.930,132.387 271.514,132.222 271.514 C 132.058 271.514,131.923 271.395,131.923 271.249 C 131.923 271.104,131.755 270.985,131.549 270.985 C 131.343 270.985,131.135 270.896,131.086 270.787 C 131.038 270.677,129.095 269.339,126.768 267.812 C 124.442 266.286,122.498 264.947,122.450 264.838 C 122.401 264.729,122.203 264.640,122.009 264.640 C 121.815 264.640,121.617 264.543,121.569 264.424 C 121.520 264.305,120.355 263.442,118.979 262.507 C 117.603 261.572,116.242 260.598,115.955 260.344 C 115.667 260.089,115.354 259.881,115.259 259.881 C 115.164 259.881,114.740 259.579,114.317 259.210 C 113.895 258.841,113.133 258.282,112.624 257.968 C 112.115 257.654,111.639 257.323,111.566 257.232 C 111.494 257.140,110.126 256.095,108.526 254.908 C 106.927 253.721,105.215 252.422,104.723 252.020 C 104.230 251.618,103.635 251.180,103.401 251.047 C 103.166 250.914,102.915 250.731,102.842 250.641 C 102.769 250.551,101.758 249.711,100.595 248.776 C 91.252 241.266,86.581 237.073,78.519 228.963 C 71.916 222.320,71.205 221.550,67.410 216.920 C 66.218 215.466,64.988 213.977,64.677 213.612 C 64.366 213.246,63.781 212.463,63.379 211.871 C 62.976 211.279,62.436 210.567,62.180 210.288 C 61.924 210.010,61.439 209.333,61.103 208.783 C 60.766 208.234,60.353 207.637,60.186 207.455 C 59.614 206.836,58.163 204.612,58.163 204.354 C 58.163 204.213,58.073 204.096,57.964 204.095 C 57.855 204.093,57.539 203.617,57.261 203.037 C 56.983 202.457,56.670 201.983,56.565 201.983 C 56.460 201.983,56.301 201.775,56.211 201.520 C 56.122 201.266,55.781 200.606,55.453 200.055 C 51.201 192.898,47.666 183.868,46.273 176.603 C 46.119 175.803,45.942 174.874,45.878 174.538 C 45.298 171.496,45.098 168.776,45.088 163.781 C 45.073 156.566,45.152 155.765,46.700 147.390 C 47.419 143.505,51.741 132.143,53.641 129.148 C 54.092 128.436,54.461 127.764,54.461 127.655 C 54.461 127.545,54.818 126.927,55.254 126.280 C 55.691 125.634,56.048 125.038,56.048 124.957 C 56.048 124.827,57.198 123.106,58.627 121.097 C 62.756 115.292,69.943 108.107,75.894 103.835 C 77.538 102.655,79.612 101.256,79.716 101.256 C 79.780 101.256,80.637 100.762,81.621 100.159 C 83.865 98.783,88.034 96.696,92.135 94.895 C 94.307 93.941,103.395 91.199,106.627 90.523 C 113.571 89.069,125.568 88.407,130.601 89.200 " stroke="none" fill="#54a4bc" fill-rule="evenodd"></path><path id="path1" d="M118.903 44.083 C 119.957 44.133,121.682 44.133,122.736 44.083 C 123.790 44.032,122.928 43.991,120.820 43.991 C 118.711 43.991,117.849 44.032,118.903 44.083 M276.999 44.083 C 278.054 44.133,279.779 44.133,280.833 44.083 C 281.887 44.032,281.024 43.991,278.916 43.991 C 276.808 43.991,275.945 44.032,276.999 44.083 " stroke="none" fill="#58a4bc" fill-rule="evenodd"></path><path id="path2" d="M118.903 44.083 C 119.957 44.133,121.682 44.133,122.736 44.083 C 123.790 44.032,122.928 43.991,120.820 43.991 C 118.711 43.991,117.849 44.032,118.903 44.083 M276.999 44.083 C 278.054 44.133,279.779 44.133,280.833 44.083 C 281.887 44.032,281.024 43.991,278.916 43.991 C 276.808 43.991,275.945 44.032,276.999 44.083 " stroke="none" fill="#58a4bc" fill-rule="evenodd"></path><path id="path3" d="M118.903 44.083 C 119.957 44.133,121.682 44.133,122.736 44.083 C 123.790 44.032,122.928 43.991,120.820 43.991 C 118.711 43.991,117.849 44.032,118.903 44.083 M276.999 44.083 C 278.054 44.133,279.779 44.133,280.833 44.083 C 281.887 44.032,281.024 43.991,278.916 43.991 C 276.808 43.991,275.945 44.032,276.999 44.083 " stroke="none" fill="#58a4bc" fill-rule="evenodd"></path><path id="path4" d="M118.903 44.083 C 119.957 44.133,121.682 44.133,122.736 44.083 C 123.790 44.032,122.928 43.991,120.820 43.991 C 118.711 43.991,117.849 44.032,118.903 44.083 M276.999 44.083 C 278.054 44.133,279.779 44.133,280.833 44.083 C 281.887 44.032,281.024 43.991,278.916 43.991 C 276.808 43.991,275.945 44.032,276.999 44.083 " stroke="none" fill="#58a4bc" fill-rule="evenodd"></path></g></svg>