<?xml version="1.0" encoding="UTF-8"?>
<svg id="b" data-name="Layer 2" xmlns="http://www.w3.org/2000/svg" width="1253.846" height="565.863" viewBox="0 0 1253.846 565.863">
  <g id="c" data-name="Layer 1">
    <path d="M1241.003,143.655c-19.903-54.643-60.287-98.357-113.693-123.086-73.309-33.942-158.464-25.417-222.4,22.166-4.849,3.617-9.598,7.491-14.19,11.554l.05,.043h-.099c.016-.014,.033-.029,.049-.043-4.592-4.062-9.341-7.937-14.189-11.554-63.936-47.583-149.091-56.108-222.4-22.166-9.498,4.398-18.576,9.408-27.208,14.961-8.633-5.554-17.71-10.563-27.208-14.961-73.309-33.942-158.464-25.417-222.4,22.166-4.849,3.617-9.598,7.491-14.19,11.554l.05,.043h-.099l.049-.043c-4.592-4.062-9.341-7.937-14.19-11.554C285-4.848,199.845-13.373,126.536,20.569,73.13,45.298,32.746,89.012,12.843,143.655c-19.264,53.027-16.792,110.103,6.98,160.707,52.17,111.09,201.999,197.671,286.675,239.381,18.252,9.017,33.32,15.794,38.729,18.029,.072,.03,.14,.06,.21,.094,.908,.442,8.459,3.976,17.688,3.997,9.229-.021,16.78-3.555,17.688-3.997,.07-.034,.138-.064,.21-.094,5.409-2.235,20.478-9.012,38.729-18.029,56.222-27.694,141.16-75.175,207.17-136.473,66.011,61.297,150.948,108.779,207.17,136.473,18.251,9.017,33.32,15.794,38.729,18.029,.072,.03,.14,.06,.21,.094,.908,.442,8.459,3.976,17.688,3.997,9.229-.021,16.78-3.555,17.688-3.997,.07-.034,.138-.064,.21-.094,5.409-2.235,20.478-9.012,38.729-18.029,84.676-41.71,234.505-128.291,286.675-239.381,23.772-50.604,26.245-107.68,6.98-160.707Zm-619.698,126.217c-14.458-30.831-15.934-65.681-4.128-98.117,2.667-7.323,5.933-14.333,9.745-20.983,3.812,6.65,7.078,13.66,9.745,20.983,11.806,32.437,10.33,67.286-4.128,98.117-1.71,3.641-3.598,7.259-5.617,10.857-2.019-3.599-3.907-7.217-5.617-10.857Zm-237.649,200.842c-7.167,3.539-13.485,6.557-18.783,9.026-.596,.278-1.179,.548-1.749,.812l.05,.023h-.099l.049-.023c-.57-.264-1.152-.534-1.749-.812-5.297-2.469-11.615-5.487-18.783-9.026-60.466-29.784-205.728-108.976-248.884-200.842-14.458-30.831-15.934-65.681-4.128-98.117,12.404-34.062,37.691-61.383,71.235-76.909,6.441-2.983,13.017-5.445,19.701-7.407,13.489-4.228,27.87-6.521,42.804-6.521,65.018,0,118.536,44.937,133.94,103.589,.699,2.663,3.108,4.517,5.862,4.517,2.782,0,5.209-1.893,5.881-4.593,14.784-59.386,67.988-103.513,133.599-103.513,13.415,0,26.386,1.848,38.664,5.287,8.225,2.119,16.295,4.995,24.165,8.64,.039,.018,.077,.037,.116,.055-10.295,14.963-18.753,31.297-25.111,48.753-19.264,53.027-16.792,110.103,6.98,160.707,6.845,14.575,15.384,28.724,25.224,42.41-61.442,57.309-146.32,102.927-188.985,123.943Zm776.479-200.842c-43.156,91.866-188.418,171.058-248.884,200.842-7.167,3.539-13.485,6.557-18.782,9.026-.596,.278-1.179,.548-1.749,.812l.05,.023h-.099l.049-.023c-.57-.264-1.152-.534-1.749-.812-5.297-2.469-11.615-5.487-18.782-9.026-42.665-21.016-127.544-66.634-188.986-123.943,9.839-13.686,18.379-27.834,25.224-42.41,23.772-50.604,26.244-107.68,6.98-160.707-6.358-17.456-14.816-33.79-25.111-48.753,.039-.018,.077-.037,.116-.055,6.441-2.983,13.017-5.445,19.701-7.407,13.489-4.228,27.87-6.521,42.804-6.521,65.017,0,118.536,44.937,133.94,103.589,.699,2.663,3.108,4.517,5.861,4.517,2.782,0,5.209-1.893,5.881-4.593,14.784-59.386,67.988-103.513,133.599-103.513,13.415,0,26.386,1.848,38.664,5.287,8.225,2.119,16.295,4.995,24.166,8.64,33.543,15.525,58.831,42.846,71.235,76.909,11.806,32.437,10.33,67.286-4.128,98.117Z" fill="#183b54"/>
  </g>
</svg>